<svg width="90" height="90" viewBox="0 0 90 90" fill="none" xmlns="http://www.w3.org/2000/svg">
<path d="M4.60449 63.8343V55.7426L8.6954 56.6534V64.8352L4.60449 63.8343Z" fill="white"/>
<path d="M86.3955 63.4929V55.7426L82.3046 56.6534V64.8352L86.3955 63.4929Z" fill="white"/>
<path d="M74.4408 80.1613C58.4648 89.3843 32.5626 89.3843 16.5866 80.1613C0.610578 70.9384 0.610582 55.9851 16.5866 46.7621C32.5626 37.5392 58.4648 37.5392 74.4408 46.7621C90.4168 55.9851 90.4168 70.9384 74.4408 80.1613Z" fill="white"/>
<path d="M74.4417 71.9796C58.4658 81.2025 32.5635 81.2025 16.5876 71.9796C0.611555 62.7566 0.611559 47.8033 16.5876 38.5803C32.5635 29.3574 58.4658 29.3574 74.4417 38.5803C90.4177 47.8033 90.4177 62.7566 74.4417 71.9796Z" fill="white"/>
<path fill-rule="evenodd" clip-rule="evenodd" d="M16.9773 71.7546C32.738 80.8533 58.2913 80.8533 74.052 71.7546C89.8128 62.6559 89.8128 47.904 74.052 38.8053C58.2913 29.7066 32.738 29.7066 16.9773 38.8053C1.21651 47.904 1.21651 62.6559 16.9773 71.7546ZM16.5876 71.9796C32.5635 81.2025 58.4658 81.2025 74.4417 71.9796C90.4177 62.7566 90.4177 47.8033 74.4417 38.5803C58.4658 29.3574 32.5635 29.3574 16.5876 38.5803C0.611559 47.8033 0.611555 62.7566 16.5876 71.9796Z" fill="#2F7EB8"/>
<path d="M17.5499 56.4437C15.7 55.3757 14.3535 54.2266 13.5104 52.9964C12.6791 51.773 12.3806 50.5394 12.6147 49.2957C12.8723 48.052 13.6978 46.8792 15.0911 45.7774L20.1492 47.9269C19.0252 49.0084 18.633 50.1203 18.9725 51.2627C19.3238 52.4117 20.2605 53.4257 21.7826 54.3044C22.6841 54.8248 23.6735 55.2338 24.7507 55.5312C25.8279 55.8286 26.8817 55.9638 27.912 55.9368C28.9541 55.9165 29.8673 55.6799 30.6518 55.227C31.0031 55.0242 31.2665 54.8046 31.4422 54.568C31.6295 54.3247 31.7232 54.0678 31.7232 53.7974C31.7349 53.5338 31.6529 53.2432 31.4773 52.9255C31.3251 52.6078 31.085 52.2732 30.7572 51.9217L26.1557 47.0347C25.7576 46.6156 25.3654 46.1391 24.979 45.6051C24.616 45.0711 24.3819 44.4965 24.2765 43.8814C24.1945 43.2663 24.3409 42.6343 24.7156 41.9854C25.1137 41.3365 25.8689 40.691 26.9812 40.0489C28.6087 39.1093 30.3825 38.5584 32.3027 38.3962C34.2464 38.234 36.19 38.3962 38.1336 38.8829C40.0889 39.3763 41.9155 40.1198 43.6132 41.1135C45.3344 42.1206 46.5814 43.1852 47.3541 44.3073C48.1386 45.4226 48.4372 46.5615 48.2498 47.7241C48.0625 48.8867 47.3775 50.0257 46.195 51.141L40.8559 48.9712C41.5584 48.3494 41.9506 47.7038 42.0326 47.0347C42.1379 46.3655 41.9682 45.7132 41.5232 45.0778C41.09 44.4492 40.4519 43.878 39.6089 43.3643C38.7776 42.8709 37.8643 42.4924 36.8691 42.2288C35.8973 41.9651 34.943 41.8469 34.0063 41.8739C33.0814 41.9077 32.291 42.1139 31.6353 42.4924C31.0148 42.8506 30.6928 43.2528 30.6694 43.6989C30.6577 44.1383 30.8099 44.5844 31.126 45.0373C31.4656 45.4902 31.8461 45.9261 32.2676 46.3452L35.5343 49.6911C35.9909 50.144 36.4651 50.6746 36.9569 51.2829C37.4487 51.8913 37.7999 52.5469 38.0107 53.2499C38.2214 53.9529 38.1453 54.6728 37.7824 55.4095C37.4311 56.1531 36.6232 56.8898 35.3587 57.6198C34.0473 58.3769 32.6189 58.8838 31.0733 59.1407C29.5512 59.3976 27.9998 59.4483 26.4192 59.2928C24.8385 59.1373 23.2871 58.8095 21.765 58.3093C20.2546 57.8159 18.8496 57.194 17.5499 56.4437Z" fill="#2F7EB8"/>
<path d="M41.9703 70.5416C39.4412 69.0816 37.8254 67.5134 37.1229 65.8371C36.4321 64.154 36.5902 62.4608 37.5971 60.7574C38.6158 59.0608 40.4306 57.4588 43.0416 55.9515C45.6526 54.4442 48.4276 53.3964 51.3664 52.8084C54.317 52.2271 57.2441 52.1392 60.1479 52.5448C63.0633 52.9436 65.7855 53.873 68.3146 55.333C71.23 57.0161 72.9278 58.8411 73.4078 60.8081C73.8996 62.7683 73.3025 64.688 71.6164 66.5671L66.1719 64.7826C67.3311 63.5456 67.7819 62.3188 67.5243 61.1021C67.2784 59.8787 66.2129 58.7228 64.3278 57.6346C62.6301 56.6545 60.8328 56.0563 58.936 55.84C57.0509 55.6304 55.1307 55.7588 53.1754 56.2252C51.2435 56.6916 49.3467 57.4555 47.485 58.5167C45.6351 59.5847 44.3003 60.6797 43.4807 61.8017C42.6845 62.9238 42.4737 64.0323 42.8484 65.1273C43.2231 66.2223 44.2593 67.2599 45.957 68.24C47.8421 69.3283 49.8443 69.9434 51.9636 70.0853C54.0828 70.2273 56.2079 69.967 58.3389 69.3046L61.43 72.4477C58.175 73.4211 54.8439 73.7692 51.4367 73.492C48.0412 73.2082 44.8857 72.2247 41.9703 70.5416Z" fill="#2F7EB8"/>
<path d="M4.60449 63.8343V55.7426L8.6954 56.6534V64.8352L4.60449 63.8343Z" fill="white"/>
<path d="M86.3955 63.4929V55.7426L82.3046 56.6534V64.8352L86.3955 63.4929Z" fill="white"/>
<path d="M74.4408 80.1613C58.4648 89.3843 32.5626 89.3843 16.5866 80.1613C0.610578 70.9384 0.610582 55.9851 16.5866 46.7621C32.5626 37.5392 58.4648 37.5392 74.4408 46.7621C90.4168 55.9851 90.4168 70.9384 74.4408 80.1613Z" fill="white"/>
<path d="M74.4417 71.9796C58.4658 81.2025 32.5635 81.2025 16.5876 71.9796C0.611555 62.7566 0.611559 47.8033 16.5876 38.5803C32.5635 29.3574 58.4658 29.3574 74.4417 38.5803C90.4177 47.8033 90.4177 62.7566 74.4417 71.9796Z" fill="white"/>
<path fill-rule="evenodd" clip-rule="evenodd" d="M16.9773 71.7546C32.738 80.8533 58.2913 80.8533 74.052 71.7546C89.8128 62.6559 89.8128 47.904 74.052 38.8053C58.2913 29.7066 32.738 29.7066 16.9773 38.8053C1.21651 47.904 1.21651 62.6559 16.9773 71.7546ZM16.5876 71.9796C32.5635 81.2025 58.4658 81.2025 74.4417 71.9796C90.4177 62.7566 90.4177 47.8033 74.4417 38.5803C58.4658 29.3574 32.5635 29.3574 16.5876 38.5803C0.611559 47.8033 0.611555 62.7566 16.5876 71.9796Z" fill="#2F7EB8"/>
<path d="M17.5499 56.4437C15.7 55.3757 14.3535 54.2266 13.5104 52.9964C12.6791 51.773 12.3806 50.5394 12.6147 49.2957C12.8723 48.052 13.6978 46.8792 15.0911 45.7774L20.1492 47.9269C19.0252 49.0084 18.633 50.1203 18.9725 51.2627C19.3238 52.4117 20.2605 53.4257 21.7826 54.3044C22.6841 54.8248 23.6735 55.2338 24.7507 55.5312C25.8279 55.8286 26.8817 55.9638 27.912 55.9368C28.9541 55.9165 29.8673 55.6799 30.6518 55.227C31.0031 55.0242 31.2665 54.8046 31.4422 54.568C31.6295 54.3247 31.7232 54.0678 31.7232 53.7974C31.7349 53.5338 31.6529 53.2432 31.4773 52.9255C31.3251 52.6078 31.085 52.2732 30.7572 51.9217L26.1557 47.0347C25.7576 46.6156 25.3654 46.1391 24.979 45.6051C24.616 45.0711 24.3819 44.4965 24.2765 43.8814C24.1945 43.2663 24.3409 42.6343 24.7156 41.9854C25.1137 41.3365 25.8689 40.691 26.9812 40.0489C28.6087 39.1093 30.3825 38.5584 32.3027 38.3962C34.2464 38.234 36.19 38.3962 38.1336 38.8829C40.0889 39.3763 41.9155 40.1198 43.6132 41.1135C45.3344 42.1206 46.5814 43.1852 47.3541 44.3073C48.1386 45.4226 48.4372 46.5615 48.2498 47.7241C48.0625 48.8867 47.3775 50.0257 46.195 51.141L40.8559 48.9712C41.5584 48.3494 41.9506 47.7038 42.0326 47.0347C42.1379 46.3655 41.9682 45.7132 41.5232 45.0778C41.09 44.4492 40.4519 43.878 39.6089 43.3643C38.7776 42.8709 37.8643 42.4924 36.8691 42.2288C35.8973 41.9651 34.943 41.8469 34.0063 41.8739C33.0814 41.9077 32.291 42.1139 31.6353 42.4924C31.0148 42.8506 30.6928 43.2528 30.6694 43.6989C30.6577 44.1383 30.8099 44.5844 31.126 45.0373C31.4656 45.4902 31.8461 45.9261 32.2676 46.3452L35.5343 49.6911C35.9909 50.144 36.4651 50.6746 36.9569 51.2829C37.4487 51.8913 37.7999 52.5469 38.0107 53.2499C38.2214 53.9529 38.1453 54.6728 37.7824 55.4095C37.4311 56.1531 36.6232 56.8898 35.3587 57.6198C34.0473 58.3769 32.6189 58.8838 31.0733 59.1407C29.5512 59.3976 27.9998 59.4483 26.4192 59.2928C24.8385 59.1373 23.2871 58.8095 21.765 58.3093C20.2546 57.8159 18.8496 57.194 17.5499 56.4437Z" fill="#2F7EB8"/>
<path d="M41.9703 70.5416C39.4412 69.0816 37.8254 67.5134 37.1229 65.8371C36.4321 64.154 36.5902 62.4608 37.5971 60.7574C38.6158 59.0608 40.4306 57.4588 43.0416 55.9515C45.6526 54.4442 48.4276 53.3964 51.3664 52.8084C54.317 52.2271 57.2441 52.1392 60.1479 52.5448C63.0633 52.9436 65.7855 53.873 68.3146 55.333C71.23 57.0161 72.9278 58.8411 73.4078 60.8081C73.8996 62.7683 73.3025 64.688 71.6164 66.5671L66.1719 64.7826C67.3311 63.5456 67.7819 62.3188 67.5243 61.1021C67.2784 59.8787 66.2129 58.7228 64.3278 57.6346C62.6301 56.6545 60.8328 56.0563 58.936 55.84C57.0509 55.6304 55.1307 55.7588 53.1754 56.2252C51.2435 56.6916 49.3467 57.4555 47.485 58.5167C45.6351 59.5847 44.3003 60.6797 43.4807 61.8017C42.6845 62.9238 42.4737 64.0323 42.8484 65.1273C43.2231 66.2223 44.2593 67.2599 45.957 68.24C47.8421 69.3283 49.8443 69.9434 51.9636 70.0853C54.0828 70.2273 56.2079 69.967 58.3389 69.3046L61.43 72.4477C58.175 73.4211 54.8439 73.7692 51.4367 73.492C48.0412 73.2082 44.8857 72.2247 41.9703 70.5416Z" fill="#2F7EB8"/>
<path d="M4.60449 54.6138V46.5221L8.6954 47.433V55.6148L4.60449 54.6138Z" fill="white"/>
<path d="M86.3955 54.2724V46.5221L82.3046 47.433V55.6148L86.3955 54.2724Z" fill="white"/>
<path d="M74.4408 70.9409C58.4648 80.1638 32.5626 80.1638 16.5866 70.9409C0.610578 61.7179 0.610582 46.7646 16.5866 37.5417C32.5626 28.3187 58.4648 28.3187 74.4408 37.5417C90.4168 46.7646 90.4168 61.7179 74.4408 70.9409Z" fill="white"/>
<path d="M74.4417 62.7591C58.4658 71.9821 32.5635 71.9821 16.5876 62.7591C0.611555 53.5362 0.611559 38.5828 16.5876 29.3599C32.5635 20.1369 58.4658 20.1369 74.4417 29.3599C90.4177 38.5828 90.4177 53.5362 74.4417 62.7591Z" fill="white"/>
<path fill-rule="evenodd" clip-rule="evenodd" d="M16.9773 62.5341C32.738 71.6328 58.2913 71.6328 74.052 62.5341C89.8128 53.4354 89.8128 38.6836 74.052 29.5849C58.2913 20.4862 32.738 20.4862 16.9773 29.5849C1.21651 38.6836 1.21651 53.4354 16.9773 62.5341ZM16.5876 62.7591C32.5635 71.9821 58.4658 71.9821 74.4417 62.7591C90.4177 53.5362 90.4177 38.5828 74.4417 29.3599C58.4658 20.1369 32.5635 20.1369 16.5876 29.3599C0.611559 38.5828 0.611555 53.5362 16.5876 62.7591Z" fill="#2F7EB8"/>
<path d="M17.5499 47.2233C15.7 46.1553 14.3535 45.0062 13.5104 43.776C12.6791 42.5525 12.3806 41.3189 12.6147 40.0752C12.8723 38.8315 13.6978 37.6587 15.0911 36.557L20.1492 38.7064C19.0252 39.7879 18.633 40.8999 18.9725 42.0422C19.3238 43.1913 20.2605 44.2052 21.7826 45.0839C22.6841 45.6044 23.6735 46.0133 24.7507 46.3107C25.8279 46.6081 26.8817 46.7433 27.912 46.7163C28.9541 46.696 29.8673 46.4594 30.6518 46.0066C31.0031 45.8038 31.2665 45.5841 31.4422 45.3475C31.6295 45.1042 31.7232 44.8473 31.7232 44.577C31.7349 44.3133 31.6529 44.0227 31.4773 43.705C31.3251 43.3873 31.085 43.0527 30.7572 42.7012L26.1557 37.8142C25.7576 37.3951 25.3654 36.9186 24.979 36.3846C24.616 35.8506 24.3819 35.2761 24.2765 34.661C24.1945 34.0459 24.3409 33.4139 24.7156 32.765C25.1137 32.1161 25.8689 31.4705 26.9812 30.8284C28.6087 29.8889 30.3825 29.338 32.3027 29.1757C34.2464 29.0135 36.19 29.1757 38.1336 29.6624C40.0889 30.1558 41.9155 30.8994 43.6132 31.893C45.3344 32.9002 46.5814 33.9648 47.3541 35.0868C48.1386 36.2021 48.4372 37.3411 48.2498 38.5037C48.0625 39.6663 47.3775 40.8052 46.195 41.9205L40.8559 39.7508C41.5584 39.1289 41.9506 38.4834 42.0326 37.8142C42.1379 37.145 41.9682 36.4928 41.5232 35.8574C41.09 35.2288 40.4519 34.6576 39.6089 34.1439C38.7776 33.6504 37.8643 33.2719 36.8691 33.0083C35.8973 32.7447 34.943 32.6264 34.0063 32.6534C33.0814 32.6872 32.291 32.8934 31.6353 33.2719C31.0148 33.6302 30.6928 34.0323 30.6694 34.4785C30.6577 34.9178 30.8099 35.3639 31.126 35.8168C31.4656 36.2697 31.8461 36.7057 32.2676 37.1248L35.5343 40.4706C35.9909 40.9235 36.4651 41.4541 36.9569 42.0625C37.4487 42.6708 37.7999 43.3265 38.0107 44.0295C38.2214 44.7324 38.1453 45.4523 37.7824 46.1891C37.4311 46.9326 36.6232 47.6694 35.3587 48.3994C34.0473 49.1564 32.6189 49.6634 31.0733 49.9202C29.5512 50.1771 27.9998 50.2278 26.4192 50.0723C24.8385 49.9169 23.2871 49.589 21.765 49.0888C20.2546 48.5954 18.8496 47.9735 17.5499 47.2233Z" fill="#2F7EB8"/>
<path d="M41.9703 61.3211C39.4412 59.8611 37.8254 58.2929 37.1229 56.6166C36.4321 54.9335 36.5902 53.2403 37.5971 51.5369C38.6158 49.8403 40.4306 48.2384 43.0416 46.731C45.6526 45.2237 48.4276 44.176 51.3664 43.5879C54.317 43.0066 57.2441 42.9188 60.1479 43.3243C63.0633 43.7231 65.7855 44.6525 68.3146 46.1126C71.23 47.7956 72.9278 49.6207 73.4078 51.5876C73.8996 53.5479 73.3025 55.4675 71.6164 57.3466L66.1719 55.5621C67.3311 54.3252 67.7819 53.0984 67.5243 51.8817C67.2784 50.6582 66.2129 49.5024 64.3278 48.4141C62.6301 47.434 60.8328 46.8358 58.936 46.6195C57.0509 46.41 55.1307 46.5384 53.1754 47.0048C51.2435 47.4712 49.3467 48.235 47.485 49.2962C45.6351 50.3642 44.3003 51.4592 43.4807 52.5813C42.6845 53.7033 42.4737 54.8119 42.8484 55.9069C43.2231 57.0019 44.2593 58.0395 45.957 59.0196C47.8421 60.1078 49.8443 60.7229 51.9636 60.8649C54.0828 61.0068 56.2079 60.7466 58.3389 60.0842L61.43 63.2273C58.175 64.2006 54.8439 64.5487 51.4367 64.2716C48.0412 63.9877 44.8857 63.0042 41.9703 61.3211Z" fill="#2F7EB8"/>
<path d="M4.60449 44.3132V36.2214L8.6954 37.1323V45.3141L4.60449 44.3132Z" fill="white"/>
<path d="M86.3955 43.9718V36.2214L82.3046 37.1323V45.3141L86.3955 43.9718Z" fill="white"/>
<path d="M74.4408 60.6402C58.4648 69.8632 32.5626 69.8632 16.5866 60.6402C0.610578 51.4173 0.610582 36.4639 16.5866 27.241C32.5626 18.0181 58.4648 18.0181 74.4408 27.241C90.4168 36.4639 90.4168 51.4173 74.4408 60.6402Z" fill="white"/>
<path d="M74.4417 52.4585C58.4658 61.6814 32.5635 61.6814 16.5876 52.4585C0.611555 43.2355 0.611559 28.2822 16.5876 19.0592C32.5635 9.83629 58.4658 9.83629 74.4417 19.0592C90.4177 28.2822 90.4177 43.2355 74.4417 52.4585Z" fill="white"/>
<path fill-rule="evenodd" clip-rule="evenodd" d="M16.9773 52.2335C32.738 61.3322 58.2913 61.3322 74.052 52.2335C89.8128 43.1348 89.8128 28.3829 74.052 19.2842C58.2913 10.1855 32.738 10.1855 16.9773 19.2842C1.21651 28.3829 1.21651 43.1348 16.9773 52.2335ZM16.5876 52.4585C32.5635 61.6814 58.4658 61.6814 74.4417 52.4585C90.4177 43.2355 90.4177 28.2822 74.4417 19.0592C58.4658 9.83629 32.5635 9.83629 16.5876 19.0592C0.611559 28.2822 0.611555 43.2355 16.5876 52.4585Z" fill="#2F7EB8"/>
<path d="M17.5499 36.9226C15.7 35.8546 14.3535 34.7055 13.5104 33.4753C12.6791 32.2519 12.3806 31.0183 12.6147 29.7746C12.8723 28.5308 13.6978 27.3581 15.0911 26.2563L20.1492 28.4058C19.0252 29.4873 18.633 30.5992 18.9725 31.7415C19.3238 32.8906 20.2605 33.9045 21.7826 34.7833C22.6841 35.3037 23.6735 35.7127 24.7507 36.0101C25.8279 36.3075 26.8817 36.4427 27.912 36.4156C28.9541 36.3954 29.8673 36.1588 30.6518 35.7059C31.0031 35.5031 31.2665 35.2834 31.4422 35.0469C31.6295 34.8035 31.7232 34.5467 31.7232 34.2763C31.7349 34.0127 31.6529 33.722 31.4773 33.4043C31.3251 33.0867 31.085 32.7521 30.7572 32.4006L26.1557 27.5136C25.7576 27.0945 25.3654 26.6179 24.979 26.0839C24.616 25.55 24.3819 24.9754 24.2765 24.3603C24.1945 23.7452 24.3409 23.1132 24.7156 22.4643C25.1137 21.8154 25.8689 21.1699 26.9812 20.5277C28.6087 19.5882 30.3825 19.0373 32.3027 18.8751C34.2464 18.7129 36.19 18.8751 38.1336 19.3618C40.0889 19.8552 41.9155 20.5987 43.6132 21.5923C45.3344 22.5995 46.5814 23.6641 47.3541 24.7861C48.1386 25.9014 48.4372 27.0404 48.2498 28.203C48.0625 29.3656 47.3775 30.5046 46.195 31.6199L40.8559 29.4501C41.5584 28.8283 41.9506 28.1827 42.0326 27.5136C42.1379 26.8444 41.9682 26.1921 41.5232 25.5567C41.09 24.9281 40.4519 24.3569 39.6089 23.8432C38.7776 23.3498 37.8643 22.9713 36.8691 22.7076C35.8973 22.444 34.943 22.3257 34.0063 22.3528C33.0814 22.3866 32.291 22.5927 31.6353 22.9713C31.0148 23.3295 30.6928 23.7317 30.6694 24.1778C30.6577 24.6172 30.8099 25.0633 31.126 25.5162C31.4656 25.969 31.8461 26.405 32.2676 26.8241L35.5343 30.17C35.9909 30.6229 36.4651 31.1535 36.9569 31.7618C37.4487 32.3702 37.7999 33.0258 38.0107 33.7288C38.2214 34.4318 38.1453 35.1516 37.7824 35.8884C37.4311 36.6319 36.6232 37.3687 35.3587 38.0987C34.0473 38.8558 32.6189 39.3627 31.0733 39.6196C29.5512 39.8764 27.9998 39.9271 26.4192 39.7717C24.8385 39.6162 23.2871 39.2884 21.765 38.7882C20.2546 38.2947 18.8496 37.6729 17.5499 36.9226Z" fill="#2F7EB8"/>
<path d="M41.9703 51.0205C39.4412 49.5604 37.8254 47.9923 37.1229 46.316C36.4321 44.6329 36.5902 42.9396 37.5971 41.2363C38.6158 39.5397 40.4306 37.9377 43.0416 36.4304C45.6526 34.923 48.4276 33.8753 51.3664 33.2873C54.317 32.706 57.2441 32.6181 60.1479 33.0237C63.0633 33.4225 65.7855 34.3519 68.3146 35.8119C71.23 37.495 72.9278 39.32 73.4078 41.287C73.8996 43.2472 73.3025 45.1669 71.6164 47.046L66.1719 45.2615C67.3311 44.0245 67.7819 42.7977 67.5243 41.581C67.2784 40.3576 66.2129 39.2017 64.3278 38.1135C62.6301 37.1333 60.8328 36.5351 58.936 36.3188C57.0509 36.1093 55.1307 36.2377 53.1754 36.7041C51.2435 37.1705 49.3467 37.9343 47.485 38.9956C45.6351 40.0635 44.3003 41.1586 43.4807 42.2806C42.6845 43.4027 42.4737 44.5112 42.8484 45.6062C43.2231 46.7012 44.2593 47.7388 45.957 48.7189C47.8421 49.8072 49.8443 50.4223 51.9636 50.5642C54.0828 50.7062 56.2079 50.4459 58.3389 49.7835L61.43 52.9266C58.175 53.9 54.8439 54.2481 51.4367 53.9709C48.0412 53.687 44.8857 52.7036 41.9703 51.0205Z" fill="#2F7EB8"/>
<path d="M4.60449 44.3132V36.2214L8.6954 37.1323V45.3141L4.60449 44.3132Z" fill="white"/>
<path d="M86.3955 43.9718V36.2214L82.3046 37.1323V45.3141L86.3955 43.9718Z" fill="white"/>
<path d="M74.4408 60.6402C58.4648 69.8632 32.5626 69.8632 16.5866 60.6402C0.610578 51.4173 0.610582 36.4639 16.5866 27.241C32.5626 18.0181 58.4648 18.0181 74.4408 27.241C90.4168 36.4639 90.4168 51.4173 74.4408 60.6402Z" fill="white"/>
<path d="M74.4417 52.4585C58.4658 61.6814 32.5635 61.6814 16.5876 52.4585C0.611555 43.2355 0.611559 28.2822 16.5876 19.0592C32.5635 9.83629 58.4658 9.83629 74.4417 19.0592C90.4177 28.2822 90.4177 43.2355 74.4417 52.4585Z" fill="white"/>
<path fill-rule="evenodd" clip-rule="evenodd" d="M16.9773 52.2335C32.738 61.3322 58.2913 61.3322 74.052 52.2335C89.8128 43.1348 89.8128 28.3829 74.052 19.2842C58.2913 10.1855 32.738 10.1855 16.9773 19.2842C1.21651 28.3829 1.21651 43.1348 16.9773 52.2335ZM16.5876 52.4585C32.5635 61.6814 58.4658 61.6814 74.4417 52.4585C90.4177 43.2355 90.4177 28.2822 74.4417 19.0592C58.4658 9.83629 32.5635 9.83629 16.5876 19.0592C0.611559 28.2822 0.611555 43.2355 16.5876 52.4585Z" fill="#2F7EB8"/>
<path d="M17.5499 36.9226C15.7 35.8546 14.3535 34.7055 13.5104 33.4753C12.6791 32.2519 12.3806 31.0183 12.6147 29.7746C12.8723 28.5308 13.6978 27.3581 15.0911 26.2563L20.1492 28.4058C19.0252 29.4873 18.633 30.5992 18.9725 31.7415C19.3238 32.8906 20.2605 33.9045 21.7826 34.7833C22.6841 35.3037 23.6735 35.7127 24.7507 36.0101C25.8279 36.3075 26.8817 36.4427 27.912 36.4156C28.9541 36.3954 29.8673 36.1588 30.6518 35.7059C31.0031 35.5031 31.2665 35.2834 31.4422 35.0469C31.6295 34.8035 31.7232 34.5467 31.7232 34.2763C31.7349 34.0127 31.6529 33.722 31.4773 33.4043C31.3251 33.0867 31.085 32.7521 30.7572 32.4006L26.1557 27.5136C25.7576 27.0945 25.3654 26.6179 24.979 26.0839C24.616 25.55 24.3819 24.9754 24.2765 24.3603C24.1945 23.7452 24.3409 23.1132 24.7156 22.4643C25.1137 21.8154 25.8689 21.1699 26.9812 20.5277C28.6087 19.5882 30.3825 19.0373 32.3027 18.8751C34.2464 18.7129 36.19 18.8751 38.1336 19.3618C40.0889 19.8552 41.9155 20.5987 43.6132 21.5923C45.3344 22.5995 46.5814 23.6641 47.3541 24.7861C48.1386 25.9014 48.4372 27.0404 48.2498 28.203C48.0625 29.3656 47.3775 30.5046 46.195 31.6199L40.8559 29.4501C41.5584 28.8283 41.9506 28.1827 42.0326 27.5136C42.1379 26.8444 41.9682 26.1921 41.5232 25.5567C41.09 24.9281 40.4519 24.3569 39.6089 23.8432C38.7776 23.3498 37.8643 22.9713 36.8691 22.7076C35.8973 22.444 34.943 22.3257 34.0063 22.3528C33.0814 22.3866 32.291 22.5927 31.6353 22.9713C31.0148 23.3295 30.6928 23.7317 30.6694 24.1778C30.6577 24.6172 30.8099 25.0633 31.126 25.5162C31.4656 25.969 31.8461 26.405 32.2676 26.8241L35.5343 30.17C35.9909 30.6229 36.4651 31.1535 36.9569 31.7618C37.4487 32.3702 37.7999 33.0258 38.0107 33.7288C38.2214 34.4318 38.1453 35.1516 37.7824 35.8884C37.4311 36.6319 36.6232 37.3687 35.3587 38.0987C34.0473 38.8558 32.6189 39.3627 31.0733 39.6196C29.5512 39.8764 27.9998 39.9271 26.4192 39.7717C24.8385 39.6162 23.2871 39.2884 21.765 38.7882C20.2546 38.2947 18.8496 37.6729 17.5499 36.9226Z" fill="#2F7EB8"/>
<path d="M41.9703 51.0205C39.4412 49.5604 37.8254 47.9923 37.1229 46.316C36.4321 44.6329 36.5902 42.9396 37.5971 41.2363C38.6158 39.5397 40.4306 37.9377 43.0416 36.4304C45.6526 34.923 48.4276 33.8753 51.3664 33.2873C54.317 32.706 57.2441 32.6181 60.1479 33.0237C63.0633 33.4225 65.7855 34.3519 68.3146 35.8119C71.23 37.495 72.9278 39.32 73.4078 41.287C73.8996 43.2472 73.3025 45.1669 71.6164 47.046L66.1719 45.2615C67.3311 44.0245 67.7819 42.7977 67.5243 41.581C67.2784 40.3576 66.2129 39.2017 64.3278 38.1135C62.6301 37.1333 60.8328 36.5351 58.936 36.3188C57.0509 36.1093 55.1307 36.2377 53.1754 36.7041C51.2435 37.1705 49.3467 37.9343 47.485 38.9956C45.6351 40.0635 44.3003 41.1586 43.4807 42.2806C42.6845 43.4027 42.4737 44.5112 42.8484 45.6062C43.2231 46.7012 44.2593 47.7388 45.957 48.7189C47.8421 49.8072 49.8443 50.4223 51.9636 50.5642C54.0828 50.7062 56.2079 50.4459 58.3389 49.7835L61.43 52.9266C58.175 53.9 54.8439 54.2481 51.4367 53.9709C48.0412 53.687 44.8857 52.7036 41.9703 51.0205Z" fill="#2F7EB8"/>
<path d="M4.60449 35.0926V27.0009L8.6954 27.9117V36.0935L4.60449 35.0926Z" fill="white"/>
<path d="M86.3955 34.7512V27.0009L82.3046 27.9117V36.0935L86.3955 34.7512Z" fill="white"/>
<path d="M74.4408 51.4196C58.4648 60.6426 32.5626 60.6426 16.5866 51.4196C0.610578 42.1967 0.610582 27.2434 16.5866 18.0204C32.5626 8.79747 58.4648 8.79747 74.4408 18.0204C90.4168 27.2434 90.4168 42.1967 74.4408 51.4196Z" fill="white"/>
<path d="M74.4417 43.2379C58.4658 52.4608 32.5635 52.4608 16.5876 43.2379C0.611555 34.0149 0.611559 19.0616 16.5876 9.83865C32.5635 0.615709 58.4658 0.615709 74.4417 9.83865C90.4177 19.0616 90.4177 34.0149 74.4417 43.2379Z" fill="white"/>
<path fill-rule="evenodd" clip-rule="evenodd" d="M16.9773 43.0129C32.738 52.1116 58.2913 52.1116 74.052 43.0129C89.8128 33.9142 89.8128 19.1623 74.052 10.0636C58.2913 0.96495 32.738 0.96495 16.9773 10.0636C1.21651 19.1623 1.21651 33.9142 16.9773 43.0129ZM16.5876 43.2379C32.5635 52.4608 58.4658 52.4608 74.4417 43.2379C90.4177 34.0149 90.4177 19.0616 74.4417 9.83865C58.4658 0.615709 32.5635 0.615709 16.5876 9.83865C0.611559 19.0616 0.611555 34.0149 16.5876 43.2379Z" fill="#2F7EB8"/>
<path d="M17.5499 27.702C15.7 26.634 14.3535 25.4849 13.5104 24.2547C12.6791 23.0313 12.3806 21.7977 12.6147 20.554C12.8723 19.3103 13.6978 18.1375 15.0911 17.0357L20.1492 19.1852C19.0252 20.2667 18.633 21.3786 18.9725 22.521C19.3238 23.67 20.2605 24.684 21.7826 25.5627C22.6841 26.0831 23.6735 26.4921 24.7507 26.7895C25.8279 27.0869 26.8817 27.2221 27.912 27.1951C28.9541 27.1748 29.8673 26.9382 30.6518 26.4853C31.0031 26.2825 31.2665 26.0629 31.4422 25.8263C31.6295 25.583 31.7232 25.3261 31.7232 25.0557C31.7349 24.7921 31.6529 24.5015 31.4773 24.1838C31.3251 23.8661 31.085 23.5315 30.7572 23.18L26.1557 18.293C25.7576 17.8739 25.3654 17.3974 24.979 16.8634C24.616 16.3294 24.3819 15.7548 24.2765 15.1397C24.1945 14.5246 24.3409 13.8926 24.7156 13.2437C25.1137 12.5948 25.8689 11.9493 26.9812 11.3072C28.6087 10.3676 30.3825 9.81673 32.3027 9.6545C34.2464 9.49228 36.19 9.6545 38.1336 10.1412C40.0889 10.6346 41.9155 11.3781 43.6132 12.3718C45.3344 13.3789 46.5814 14.4435 47.3541 15.5656C48.1386 16.6809 48.4372 17.8198 48.2498 18.9824C48.0625 20.145 47.3775 21.284 46.195 22.3993L40.8559 20.2295C41.5584 19.6077 41.9506 18.9621 42.0326 18.293C42.1379 17.6238 41.9682 16.9715 41.5232 16.3361C41.09 15.7075 40.4519 15.1363 39.6089 14.6226C38.7776 14.1292 37.8643 13.7507 36.8691 13.4871C35.8973 13.2234 34.943 13.1052 34.0063 13.1322C33.0814 13.166 32.291 13.3722 31.6353 13.7507C31.0148 14.1089 30.6928 14.5111 30.6694 14.9572C30.6577 15.3966 30.8099 15.8427 31.126 16.2956C31.4656 16.7485 31.8461 17.1844 32.2676 17.6035L35.5343 20.9494C35.9909 21.4023 36.4651 21.9329 36.9569 22.5412C37.4487 23.1496 37.7999 23.8052 38.0107 24.5082C38.2214 25.2112 38.1453 25.9311 37.7824 26.6678C37.4311 27.4114 36.6232 28.1481 35.3587 28.8781C34.0473 29.6352 32.6189 30.1421 31.0733 30.399C29.5512 30.6559 27.9998 30.7066 26.4192 30.5511C24.8385 30.3956 23.2871 30.0678 21.765 29.5676C20.2546 29.0742 18.8496 28.4523 17.5499 27.702Z" fill="#2F7EB8"/>
<path d="M41.9703 41.7999C39.4412 40.3399 37.8254 38.7717 37.1229 37.0954C36.4321 35.4123 36.5902 33.7191 37.5971 32.0157C38.6158 30.3191 40.4306 28.7171 43.0416 27.2098C45.6526 25.7025 48.4276 24.6548 51.3664 24.0667C54.317 23.4854 57.2441 23.3975 60.1479 23.8031C63.0633 24.2019 65.7855 25.1313 68.3146 26.5913C71.23 28.2744 72.9278 30.0994 73.4078 32.0664C73.8996 34.0266 73.3025 35.9463 71.6164 37.8254L66.1719 36.0409C67.3311 34.8039 67.7819 33.5771 67.5243 32.3604C67.2784 31.137 66.2129 29.9811 64.3278 28.8929C62.6301 27.9128 60.8328 27.3146 58.936 27.0983C57.0509 26.8887 55.1307 27.0172 53.1754 27.4835C51.2435 27.9499 49.3467 28.7138 47.485 29.775C45.6351 30.843 44.3003 31.938 43.4807 33.06C42.6845 34.1821 42.4737 35.2906 42.8484 36.3856C43.2231 37.4807 44.2593 38.5182 45.957 39.4983C47.8421 40.5866 49.8443 41.2017 51.9636 41.3436C54.0828 41.4856 56.2079 41.2253 58.3389 40.5629L61.43 43.706C58.175 44.6794 54.8439 45.0275 51.4367 44.7504C48.0412 44.4665 44.8857 43.483 41.9703 41.7999Z" fill="#2F7EB8"/>
</svg>
