<svg width="21" height="20" viewBox="0 0 21 20" fill="none" xmlns="http://www.w3.org/2000/svg">
<path d="M20.0621 4.18302C21.1297 8.03301 20.2436 11.5171 18.0328 14.735C17.6396 15.3065 17.071 15.6846 16.3696 15.8207C15.1962 16.0475 14.2616 15.5819 13.4603 14.7834C12.8283 14.1513 12.0964 13.9426 11.2224 14.0968C10.6872 14.1905 10.1669 14.3266 9.68902 14.5717C9.3502 14.7441 9.19304 14.7321 9.02359 14.3511C8.32804 12.7876 7.59915 11.2361 6.8702 9.6876C6.73707 9.40638 6.74933 9.18867 6.89741 8.91334C8.23116 6.41819 9.94884 4.23172 12.1356 2.43539C13.2607 1.51306 14.4763 0.759888 16.0096 0.759888C17.818 0.768959 19.5085 2.18119 20.0621 4.18326L20.0621 4.18302ZM15.9005 5.84334C16.575 5.8404 17.1585 5.26865 17.1767 4.59445C17.1948 3.86556 16.6444 3.30921 15.9064 3.30921C15.1775 3.30921 14.6575 3.81428 14.6484 4.53413C14.6364 5.27187 15.1868 5.84654 15.9005 5.84334ZM16.1062 9.12179C16.1092 9.67834 16.6204 10.1772 17.1889 10.1682C17.7575 10.1591 18.2564 9.64794 18.2383 9.09166C18.2201 8.56233 17.709 8.06634 17.1857 8.06634C16.6174 8.06634 16.1033 8.56821 16.1062 9.12179ZM10.6503 6.92013C10.6714 7.50389 11.11 7.90918 11.712 7.90302C12.3168 7.8969 12.7554 7.42812 12.7311 6.81738C12.7069 6.2427 12.2562 5.82539 11.6695 5.83744C11.0556 5.84945 10.6293 6.30303 10.6503 6.92013Z" fill="black"/>
<path d="M9.15676 17.995C9.15971 17.8709 9.09939 17.6018 8.97827 17.3448C7.62023 14.4143 6.26539 11.4837 4.91671 8.5471C4.75342 8.19013 4.59308 7.9604 4.17282 8.23867C3.85532 8.44731 3.30491 8.31418 3.15069 8.68636C3.00555 9.04014 3.26862 9.45742 3.36228 9.84161C4.08213 12.7599 4.80782 15.6755 5.5458 18.591C5.77553 19.5013 6.65278 20.1033 7.52364 19.9853C8.50334 19.849 9.15676 19.1201 9.15676 17.995Z" fill="black"/>
<path d="M2.58469 7.28291C3.0716 7.23755 3.63725 7.11055 4.13002 6.78986C4.8557 6.31815 5.11291 5.5711 4.79833 4.75145C4.10572 2.96122 2.93234 1.51537 1.4686 0.296605C1.19033 0.0636914 0.836563 -0.151083 0.500897 0.142392C0.201541 0.40252 0.313337 0.756306 0.473683 1.07702C0.95153 2.03563 0.8971 3.05486 0.782115 4.07108C0.70047 4.78183 0.773043 5.46835 0.978744 6.13962C1.20553 6.87466 1.77119 7.27676 2.58469 7.28291Z" fill="black"/>
</svg>
