<svg width="21" height="20" viewBox="0 0 21 20" fill="none" xmlns="http://www.w3.org/2000/svg">
<path d="M0.313477 17.3333V19.3333C0.313477 19.5101 0.383717 19.6797 0.508717 19.8047C0.633717 19.9297 0.803364 20 0.980151 20H19.647C19.8238 20 19.9935 19.9297 20.1185 19.8047C20.2435 19.6797 20.3137 19.5101 20.3137 19.3333V17.3333H0.313477Z" fill="black"/>
<path d="M9.64675 12.6666V8.8334C9.2841 8.94679 8.90655 9.00512 8.52681 9.00676C7.91564 9.00512 7.31476 8.84932 6.78005 8.55335C6.17604 8.22983 5.68213 7.73353 5.36159 7.12788C5.0409 6.52224 4.90818 5.83487 4.98003 5.1533C5.00339 4.95315 5.11619 4.77413 5.28673 4.66671C5.85222 4.26895 6.51756 4.0371 7.20774 3.99706C7.89792 3.95688 8.58574 4.11046 9.19348 4.44008C9.63573 4.68398 10.0183 5.02328 10.3134 5.43338C10.6093 5.0258 10.9917 4.68873 11.4334 4.44678C12.0405 4.11612 12.7278 3.96152 13.4181 4.00034C14.1082 4.03933 14.774 4.26998 15.3401 4.66671C15.5014 4.77698 15.6062 4.95243 15.6269 5.14679C15.7019 5.82463 15.5739 6.50959 15.2594 7.11481C14.945 7.72019 14.458 8.21841 13.8602 8.54683C13.3254 8.84267 12.7246 8.99861 12.1134 9.00009C11.7286 8.99861 11.3464 8.93789 10.9801 8.82003V12.6669C14.0334 12.8336 16.4133 14.1936 16.9002 16.0003H18.9803V8.66689C18.9803 6.36834 18.0671 4.16397 16.4418 2.53843C14.8165 0.913116 12.6121 0 10.3134 0C8.01468 0 5.81046 0.913116 4.18492 2.53843C2.5596 4.16375 1.64648 6.36819 1.64648 8.66689V16.0003H3.7398C4.21989 14.2202 6.59325 12.8669 9.64654 12.6669L9.64675 12.6666Z" fill="black"/>
<path d="M8.55354 5.61315C7.85266 5.24321 7.0144 5.24321 6.31348 5.61315C6.33565 6.35689 6.75234 7.03252 7.40679 7.38639C8.10767 7.75634 8.94593 7.75634 9.64685 7.38639C9.62468 6.64265 9.20799 5.96702 8.55354 5.61315Z" fill="black"/>
<path d="M14.3138 5.61315C13.613 5.24321 12.7747 5.24321 12.0738 5.61315C11.4193 5.96703 11.0026 6.64261 10.9805 7.38639C11.6814 7.75634 12.5196 7.75634 13.2205 7.38639C13.875 7.03252 14.2917 6.35693 14.3138 5.61315Z" fill="black"/>
<path d="M5.18018 15.9999H15.447C14.847 14.9599 12.9069 13.9999 10.3136 13.9999C7.72024 13.9999 5.78018 14.9599 5.18018 15.9999Z" fill="black"/>
</svg>
