<svg width="18" height="20" viewBox="0 0 18 20" fill="none" xmlns="http://www.w3.org/2000/svg">
<path d="M0.72863 18.5454C1.20747 19.4544 2.21293 19.9998 3.26615 19.9998L15.1404 20C16.1938 20 17.1992 19.4545 17.6779 18.5455C18.1567 17.6365 18.1088 16.5909 17.4863 15.7274L13.5124 10.1817V7.68163C13.5124 7.18168 13.0815 6.77259 12.5549 6.77259C12.0283 6.77259 11.5974 7.18168 11.5974 7.68163L11.5972 9.54521H6.80922L6.80938 1.81808H11.597V4.09075C11.597 4.5907 12.0279 4.99979 12.5545 4.99979C13.0811 4.99979 13.512 4.5907 13.512 4.09075L13.5122 1.81808H15.4274C15.954 1.81808 16.3849 1.40899 16.3849 0.909038C16.3849 0.40909 15.954 0 15.4274 0H2.97904C2.45243 0 2.02152 0.40909 2.02152 0.909038C2.02152 1.40899 2.45243 1.81808 2.97904 1.81808H4.89425V10.1818L0.872427 15.7271C0.297716 16.5908 0.202013 17.6362 0.72863 18.5453V18.5454Z" fill="white"/>
</svg>
