<svg width="20" height="20" viewBox="0 0 20 20" fill="none" xmlns="http://www.w3.org/2000/svg">
<path d="M19.5623 12.9352C19.8469 12.0071 20 11.0214 20 10C20 8.599 19.7119 7.26529 19.1917 6.05488C19.0525 5.89975 18.9008 5.75788 18.7364 5.62928C18.1111 5.13405 17.3002 4.88643 16.3035 4.88643C15.4059 4.88643 14.6568 5.08762 14.0564 5.49C13.4621 5.89238 13.0133 6.45881 12.7099 7.18929C12.4128 7.91357 12.2611 8.76476 12.2549 9.74286C12.2549 10.721 12.4035 11.5752 12.7006 12.3057C13.004 13.03 13.4559 13.5933 14.0564 13.9957C14.6568 14.3981 15.4059 14.5993 16.3035 14.5993C17.3002 14.5993 18.1111 14.3517 18.7364 13.8564C19.0609 13.5994 19.3362 13.2923 19.5623 12.9352Z" fill="white"/>
<path d="M17.4918 16.6238C17.1143 16.6794 16.7182 16.7071 16.3035 16.7071C14.9664 16.7071 13.8211 16.4162 12.8678 15.8343C11.9144 15.2462 11.1809 14.429 10.6671 13.3829C10.1594 12.3367 9.90564 11.1233 9.90564 9.74286C9.90564 8.36238 10.1594 7.14905 10.6671 6.10286C11.1809 5.05667 11.9144 4.24262 12.8678 3.66071C13.8211 3.07262 14.9664 2.77857 16.3035 2.77857C16.5213 2.77857 16.734 2.7863 16.9416 2.80175C15.1431 1.06699 12.6961 0 10 0C7.30569 0 4.86025 1.06554 3.06209 2.79822C3.12833 2.79704 3.19502 2.79668 3.26214 2.79714C4.17833 2.80333 4.99548 2.96119 5.71357 3.27071C6.43167 3.57405 7.03214 4.01667 7.515 4.59857C7.99786 5.18048 8.33833 5.8831 8.53643 6.70643L6.13143 7.12429C6.03238 6.65381 5.84048 6.25452 5.55571 5.92643C5.27714 5.59214 4.93357 5.33833 4.525 5.165C4.12262 4.99167 3.69238 4.89881 3.23429 4.88643C2.78857 4.88024 2.37381 4.94833 1.99 5.09071C1.61238 5.2269 1.30595 5.425 1.07071 5.685C0.841667 5.945 0.727143 6.24833 0.727143 6.595C0.727143 6.9231 0.826191 7.19238 1.02429 7.40286C1.22238 7.60714 1.4669 7.77119 1.75786 7.895C2.055 8.01262 2.35524 8.11167 2.65857 8.19214L5.05429 8.86071C5.38238 8.94738 5.75071 9.065 6.15929 9.21357C6.56786 9.36214 6.96095 9.56952 7.33857 9.83571C7.71619 10.1019 8.02571 10.4517 8.26714 10.885C8.51476 11.3183 8.63857 11.8693 8.63857 12.5379C8.63857 13.2312 8.4931 13.841 8.20214 14.3671C7.91738 14.8871 7.53048 15.3205 7.04143 15.6671C6.55238 16.0138 5.99214 16.2738 5.36071 16.4471C4.73548 16.6205 4.07929 16.7071 3.39214 16.7071C3.10014 16.7071 2.8167 16.692 2.5418 16.6616C4.37301 18.7104 7.0359 20 10 20C12.9823 20 15.6597 18.6945 17.4918 16.6238Z" fill="white"/>
<path d="M0.357057 12.6578C0.124311 11.8115 0 10.9203 0 10C0 9.86136 0.00282139 9.72338 0.00840989 9.58611C0.134288 9.65846 0.262437 9.72309 0.392857 9.78C0.739524 9.92238 1.06143 10.0369 1.35857 10.1236L4.81286 11.145C5.06048 11.2193 5.27714 11.309 5.46286 11.4143C5.65476 11.5133 5.80952 11.6248 5.92714 11.7486C6.05095 11.8724 6.14381 12.0148 6.20571 12.1757C6.26762 12.3305 6.29857 12.5007 6.29857 12.6864C6.29857 13.1012 6.16548 13.451 5.89929 13.7357C5.63929 14.0205 5.29881 14.2371 4.87786 14.3857C4.45691 14.5343 4.0081 14.6086 3.53143 14.6086C2.72667 14.6086 2.01476 14.3919 1.39571 13.9586C0.929466 13.6289 0.583248 13.1953 0.357057 12.6578Z" fill="white"/>
</svg>
