<svg width="21" height="20" viewBox="0 0 21 20" fill="none" xmlns="http://www.w3.org/2000/svg">
<path d="M20.5874 11.5V8.33333L17.5318 7.88889C17.3652 7.38889 17.1985 6.88889 16.9207 6.44445L18.8096 3.94444L16.5318 1.66667L14.0318 3.55556C13.5874 3.33333 13.0874 3.16667 12.5874 3L12.1985 0H9.03185L8.5874 3.05556C8.0874 3.22222 7.5874 3.38889 7.14296 3.61111L4.64296 1.72222L2.36518 3.94444L4.25407 6.44445C4.03185 6.88889 3.80962 7.38889 3.64296 7.88889L0.587402 8.33333V11.5L3.64296 11.9444C3.80962 12.4444 3.97629 12.9444 4.25407 13.3889L2.36518 15.8889L4.64296 18.1667L7.14296 16.2778C7.5874 16.5 8.0874 16.7778 8.5874 16.8889L9.03185 20H12.1985L12.643 16.8889C13.143 16.7222 13.643 16.5 14.0874 16.2778L16.5874 18.1111L18.8652 15.8333L16.9763 13.3333C17.1985 12.8889 17.4207 12.3889 17.5874 11.8889L20.5874 11.5ZM13.3652 11.6111C13.3652 12.8333 12.3652 13.8333 11.143 13.8333V15H10.0318V13.8333C8.80963 13.8333 7.80962 12.7778 7.80962 11.6667H8.92074C8.92074 12.2222 9.42074 12.7222 10.0318 12.7222V10.5C8.80963 10.5 7.80962 9.5 7.80962 8.27778C7.80962 7.05556 8.80963 6.05556 10.0318 6.05556V5H11.143V6.05556C12.3652 6.05556 13.3652 7.22222 13.3652 8.33333H12.2541C12.2541 7.77778 11.7541 7.16667 11.143 7.16667V9.38889C12.3652 9.38889 13.3652 10.3889 13.3652 11.6111Z" fill="black"/>
<path d="M11.1431 12.7228C11.7542 12.7228 12.2542 12.2228 12.2542 11.6117C12.2542 11.0006 11.7542 10.5006 11.1431 10.5006V12.7228Z" fill="black"/>
<path d="M8.9209 8.27835C8.9209 8.88946 9.4209 9.38946 10.032 9.38946V7.16724C9.4209 7.16724 8.9209 7.66724 8.9209 8.27835Z" fill="black"/>
</svg>
