<svg width="20" height="21" viewBox="0 0 20 21" fill="none" xmlns="http://www.w3.org/2000/svg">
<path fill-rule="evenodd" clip-rule="evenodd" d="M10.9554 18.9315L11.4322 18.9366H11.4583H11.4609H11.4608C11.6617 18.938 11.8552 18.8643 12.0012 18.7312C12.1472 18.5979 12.2341 18.4152 12.244 18.2215V18.2013H12.2454L12.2531 17.5364C12.2484 17.381 12.3581 17.2441 12.5152 17.2098C13.3019 17.0399 14.0551 16.7482 14.7454 16.3459C14.8795 16.2678 15.0516 16.2893 15.1609 16.3978L15.6499 16.8799H15.6497C15.7937 17.0209 15.9896 17.1012 16.1945 17.1031C16.3996 17.1051 16.597 17.0286 16.7438 16.8904L17.7333 15.956C17.7377 15.951 17.7425 15.9462 17.7474 15.9415L17.7506 15.9383H17.7508C17.894 15.8017 17.9767 15.6167 17.9816 15.4223C17.9863 15.228 17.9127 15.0393 17.7763 14.8963C17.7721 14.8928 17.7682 14.8891 17.7641 14.8853L17.2752 14.4026H17.2753C17.1644 14.2952 17.1451 14.128 17.2287 13.9996C17.6599 13.3418 17.9785 12.6213 18.1723 11.8658C18.2097 11.7197 18.3461 11.6174 18.502 11.6185L19.2004 11.6262C19.4053 11.6274 19.6025 11.5508 19.7493 11.4126C19.8959 11.2744 19.9804 11.0859 19.9842 10.888L19.9997 9.55478C19.9997 9.54646 19.9985 9.53815 19.9985 9.52953H20V9.52702L19.9998 9.52717C20.0011 9.33317 19.925 9.14607 19.7869 9.00508C19.6489 8.86424 19.4599 8.78018 19.2592 8.77077H19.2383V8.76967L18.5499 8.7623V8.76214C18.3885 8.76701 18.2461 8.66052 18.2105 8.50839C18.0345 7.74885 17.7324 7.02179 17.3162 6.35508C17.2355 6.22553 17.2578 6.05929 17.3701 5.95375L17.8695 5.48151V5.48167C18.0153 5.34256 18.0984 5.15342 18.1006 4.95552C18.1025 4.75744 18.0234 4.56673 17.8804 4.42495L16.915 3.47141C16.9096 3.46686 16.9047 3.46247 16.8995 3.45777L16.8963 3.45463V3.45447C16.755 3.31599 16.5636 3.23601 16.3622 3.23146C16.161 3.22675 15.9656 3.29795 15.8177 3.42985L15.8063 3.4413L15.3066 3.91353L15.3068 3.91337C15.1952 4.02018 15.0223 4.03837 14.8896 3.95744C14.2086 3.54106 13.4628 3.23352 12.6804 3.04642C12.529 3.01035 12.423 2.87877 12.4243 2.72805L12.4317 2.08081V2.05556V2.0529C12.4332 1.85905 12.357 1.67195 12.219 1.53112C12.081 1.39013 11.892 1.30622 11.6914 1.29681H11.6703L11.6702 1.29509L10.9568 1.2874H10.957C11.1164 1.66239 11.1983 2.06373 11.198 2.46915V5.27709C12.9063 5.38687 14.4387 6.331 15.2617 7.78106C16.0848 9.23112 16.0848 10.9867 15.2617 12.4367C14.4387 13.8868 12.9063 14.8309 11.198 14.9407V17.7485C11.198 18.1544 11.1155 18.5562 10.9553 18.9315L10.9554 18.9315ZM2.64291 13.8992C2.57276 14.0352 2.51576 14.1772 2.47306 14.3236C2.26488 15.032 2.39446 15.7931 2.82641 16.3999C3.25854 17.0066 3.94799 17.3959 4.70733 17.4618C5.46683 17.5276 6.21701 17.2634 6.75419 16.7406C6.88557 16.6131 7.0991 16.6128 7.23097 16.7397C7.36299 16.8666 7.36348 17.0728 7.23211 17.2002C6.74153 17.678 6.104 17.9897 5.41484 18.0886C5.53679 18.9239 6.09036 19.642 6.88395 19.9945C7.67754 20.3469 8.60216 20.2852 9.33809 19.831C10.0742 19.3767 10.5204 18.5921 10.5224 17.7485V2.46898C10.519 1.62617 10.0722 0.84278 9.33663 0.389378C8.60104 -0.0641856 7.67721 -0.125493 6.88428 0.226429C6.09136 0.578359 5.53776 1.29524 5.41484 2.12973L5.45397 2.13554C5.62432 2.16204 5.79222 2.20172 5.95606 2.25426C6.13258 2.31056 6.22839 2.49437 6.17009 2.66486C6.11179 2.83518 5.92147 2.92771 5.74494 2.87141C5.61584 2.83 5.4835 2.79879 5.34921 2.77809C5.21345 2.75739 5.07624 2.7472 4.93869 2.74751C4.1365 2.74829 3.38091 3.11152 2.89686 3.72927C2.41264 4.34705 2.25592 5.14798 2.47304 5.89387C2.51575 6.04003 2.57258 6.18212 2.6429 6.31808C2.83061 6.28781 3.02044 6.27056 3.21076 6.26632H3.30332C3.39604 6.26178 3.48649 6.29393 3.55371 6.35556C3.62111 6.4172 3.65911 6.50283 3.65911 6.59238C3.65911 6.68193 3.62111 6.76756 3.55371 6.82919C3.48649 6.89083 3.39604 6.92313 3.30332 6.91843C2.12324 6.91843 1.03267 7.52649 0.442574 8.51355C-0.147525 9.50066 -0.147525 10.7169 0.442574 11.704C1.03267 12.6911 2.12329 13.2991 3.30332 13.2991C3.48292 13.3084 3.6237 13.4516 3.6237 13.6252C3.6237 13.7988 3.48292 13.9421 3.30332 13.9512C3.08215 13.9512 2.86113 13.9335 2.64288 13.8984L2.64291 13.8992ZM8.65531 13.3405C8.65531 13.344 8.65953 13.3664 8.65531 13.3405V13.3405ZM9.32547 13.2668C9.35178 13.4448 9.22366 13.6098 9.03919 13.6352C8.85472 13.6606 8.68389 13.5369 8.65758 13.3587C8.65547 13.3446 8.65498 13.3401 8.65498 13.3401L8.65222 13.3239C8.62153 13.1466 8.74559 12.9787 8.92925 12.9491C9.11291 12.9195 9.28667 13.0393 9.31736 13.2167C9.32255 13.2461 9.31362 13.1958 9.32093 13.2416C9.32953 13.2946 9.32093 13.2312 9.32564 13.2668L9.32547 13.2668ZM8.17384 16.2313C8.10839 16.2918 8.02054 16.3244 7.92977 16.3218C7.83916 16.3189 7.75358 16.2812 7.6922 16.2167C7.63082 16.1522 7.59883 16.0666 7.60354 15.9792C7.60825 15.8917 7.64917 15.8099 7.71705 15.7518C7.97443 15.5315 8.19253 15.2718 8.36268 14.9832C8.51013 14.7203 8.60188 14.4318 8.63241 14.1344C8.6605 13.963 8.82272 13.843 9.00135 13.8614C9.17998 13.8797 9.31232 14.0299 9.30241 14.2032C9.26214 14.5856 9.14344 14.9565 8.95329 15.2943C8.74819 15.646 8.48466 15.9625 8.17288 16.2313L8.17384 16.2313ZM6.80541 3.71001C6.68232 3.57561 6.69515 3.37016 6.83447 3.25111C6.97364 3.13208 7.18653 3.14462 7.30979 3.27903C7.81189 3.81164 8.2081 4.4291 8.47881 5.10015C8.72823 5.73843 8.83508 6.42037 8.79222 7.10117C8.77825 7.27792 8.62074 7.41139 8.43757 7.40166C8.2544 7.39194 8.11296 7.24248 8.11913 7.06542C8.15631 6.47527 8.06392 5.88399 7.84794 5.3307C7.60631 4.73332 7.25296 4.18397 6.80541 3.71001ZM5.04596 7.26429C5.14242 7.41845 5.0911 7.61904 4.93148 7.71219C4.77185 7.80519 4.56416 7.75578 4.46771 7.60146C4.45813 7.58594 4.46138 7.59049 4.41835 7.5196C4.37531 7.44871 4.37954 7.45686 4.36801 7.43805H4.36817C4.2808 7.28231 4.33829 7.08768 4.49743 6.9997C4.65657 6.91172 4.85939 6.96253 4.95421 7.11403C4.99708 7.18617 4.98588 7.16908 4.99919 7.19072C5.01251 7.21237 5.00406 7.19794 5.0458 7.26491L5.04596 7.26429ZM9.38721 9.64749C9.57021 9.64341 9.72318 9.78111 9.73179 9.9577C9.7404 10.1343 9.60156 10.2852 9.41888 10.2977C9.03613 10.3169 8.65239 10.2994 8.27322 10.246C8.11831 11.0834 7.7104 11.8579 7.10097 12.4719C6.53456 12.9903 5.82607 13.3409 5.05946 13.4818C4.87791 13.5206 4.69831 13.4099 4.65821 13.2345C4.6181 13.0592 4.73274 12.8856 4.91429 12.8468C5.55718 12.7306 6.15198 12.4391 6.62859 12.0064C7.1432 11.4803 7.48632 10.8198 7.61494 10.1068C7.39377 10.045 7.17749 9.96788 6.96785 9.87582C6.2022 9.53063 5.53349 9.01326 5.01743 8.3671C4.91107 8.22579 4.93883 8.02865 5.08043 7.92012C5.22203 7.81159 5.42713 7.8301 5.54536 7.96231C5.9947 8.52704 6.57732 8.97968 7.2449 9.28237C7.91831 9.56827 8.65312 9.69341 9.38726 9.64684L9.38721 9.64749Z" fill="white"/>
</svg>
