<svg width="20" height="20" viewBox="0 0 20 20" fill="none" xmlns="http://www.w3.org/2000/svg">
<path d="M14.7752 0.0999756L10.3799 2.27812L12.5579 6.67169L13.6781 6.11701L12.3907 3.52019C13.7007 4.00151 14.8338 4.86912 15.64 6.00819C16.4464 7.1473 16.8879 8.5043 16.9063 9.89962V9.99965H18.1563V9.88399C18.1351 8.25928 17.6285 6.67792 16.7011 5.34364C15.774 4.00924 14.4686 2.98285 12.9533 2.39649L15.3283 1.21835L14.7752 0.0999756Z" fill="black"/>
<path d="M5.2185 19.9L9.61207 17.7219L7.43561 13.3283L6.31536 13.883L7.6075 16.4893C6.34929 16.031 5.25218 15.2151 4.45111 14.142C3.65004 13.0689 3.17975 11.7852 3.09814 10.4485V10.3187L1.84814 10.3749C1.84814 10.4266 1.84814 10.478 1.85596 10.5312V10.5313C1.94957 12.0828 2.48724 13.5746 3.40464 14.8292C4.32217 16.0838 5.58085 17.0484 7.03106 17.6079L4.66696 18.7798L5.2185 19.9Z" fill="black"/>
<path d="M0 0H9.375V9.375H0V0Z" fill="black"/>
<path d="M20 15.3125C20 17.9014 17.9014 20 15.3125 20C12.7236 20 10.625 17.9014 10.625 15.3125C10.625 12.7236 12.7236 10.625 15.3125 10.625C17.9014 10.625 20 12.7236 20 15.3125Z" fill="black"/>
</svg>
