<svg width="72" height="90" viewBox="0 0 72 90" fill="none" xmlns="http://www.w3.org/2000/svg">
<path d="M59.261 10.194C59.261 4.573 54.688 0 49.067 0C43.446 0 38.874 4.573 38.874 10.194V20.388H49.067C54.688 20.389 59.261 15.815 59.261 10.194Z" fill="white"/>
<path d="M32.4329 20.389V10.194C32.4329 4.573 27.8599 0 22.2389 0C16.6179 0 12.0449 4.573 12.0449 10.194C12.0449 15.815 16.6179 20.388 22.2389 20.388L32.4329 20.389Z" fill="white"/>
<path d="M33.51 29.7109H0V50.1149H33.51V29.7109Z" fill="white"/>
<path d="M71.3059 29.7109H37.7959V50.1149H71.3059V29.7109Z" fill="white"/>
<path d="M0 90H33.51V89.769V54.401H0V90Z" fill="white"/>
<path d="M37.7959 89.769V90H71.3059V54.401H37.7959V89.769Z" fill="white"/>
</svg>
