<svg width="25" height="10" viewBox="0 0 25 10" fill="none" xmlns="http://www.w3.org/2000/svg">
<path d="M7.16898 7.88912L4.87762 4.42245L7.14922 0.936035H5.48009L3.9591 3.3064L2.45786 0.936035H0.72947L3.00107 4.39282L0.709717 7.88912H2.3986L3.91959 5.50887L5.45046 7.88912H7.16898Z" fill="white"/>
<path d="M10.0871 2.66406C8.75377 2.66406 7.99327 3.39493 7.855 4.27394H9.19821C9.27722 4.00727 9.53401 3.78011 10.0278 3.78011C10.5118 3.78011 10.8673 4.02702 10.8673 4.5011V4.73814H9.7513C8.44759 4.73814 7.65747 5.3406 7.65747 6.38752C7.65747 7.41468 8.44759 8.00727 9.43525 8.00727C10.097 8.00727 10.6303 7.75048 10.9464 7.33567V7.88875H12.2797V4.55048C12.2797 3.30604 11.4007 2.66406 10.0871 2.66406ZM9.83031 6.89122C9.38586 6.89122 9.09944 6.67394 9.09944 6.31838C9.09944 5.95295 9.41549 5.73567 9.85994 5.73567H10.8673V5.96283C10.8673 6.55542 10.3834 6.89122 9.83031 6.89122Z" fill="white"/>
<path d="M16.2751 2.8715C15.564 2.8715 14.9812 3.12829 14.6059 3.65175C14.7047 2.69372 15.0899 2.21965 16.0578 2.0715L18.0035 1.78508V0.530762L15.9195 0.876441C13.9047 1.21224 13.2825 2.55545 13.2825 4.79743C13.2825 6.81224 14.2602 8.0073 15.9886 8.0073C17.5393 8.0073 18.4973 6.82212 18.4973 5.39989C18.4973 3.86903 17.6084 2.8715 16.2751 2.8715ZM15.9195 6.80236C15.1689 6.80236 14.7541 6.19989 14.7541 5.39002C14.7541 4.60977 15.1886 4.04681 15.9294 4.04681C16.6504 4.04681 17.0553 4.62952 17.0553 5.39989C17.0553 6.17026 16.6602 6.80236 15.9195 6.80236Z" fill="white"/>
<path d="M22.3429 2.66406C21.5923 2.66406 21.1084 2.98999 20.8516 3.37517V2.78258H19.4689V9.77517H20.9108V7.39492C21.1676 7.75048 21.6516 8.00727 22.3034 8.00727C23.5578 8.00727 24.5553 7.01962 24.5553 5.3406C24.5553 3.63196 23.5578 2.66406 22.3429 2.66406ZM21.9973 6.76283C21.3257 6.76283 20.8812 6.21962 20.8812 5.36036V5.32085C20.8812 4.46159 21.3257 3.90851 21.9973 3.90851C22.6689 3.90851 23.1034 4.47147 23.1034 5.3406C23.1034 6.20974 22.6689 6.76283 21.9973 6.76283Z" fill="white"/>
</svg>
