<svg width="22" height="22" viewBox="0 0 22 22" fill="none" xmlns="http://www.w3.org/2000/svg">
<g clip-path="url(#clip0_1093_20260)">
<path d="M4.88883 11.6111V6.72223H3.0555C2.56927 6.72223 2.10296 6.91538 1.75914 7.2592C1.41532 7.60302 1.22217 8.06933 1.22217 8.55556V19.5556C1.22308 19.6691 1.25558 19.7801 1.31602 19.8761C1.37646 19.9722 1.46247 20.0495 1.56439 20.0995C1.66258 20.1441 1.77085 20.162 1.87818 20.1512C1.98551 20.1405 2.0881 20.1016 2.1755 20.0383L5.32272 17.7222H13.5361C13.7677 17.7291 13.9982 17.6883 14.2134 17.6024C14.4287 17.5165 14.624 17.3874 14.7872 17.223C14.9505 17.0586 15.0783 16.8624 15.1627 16.6465C15.247 16.4307 15.2862 16.1999 15.2777 15.9683V15.2778H8.5555C7.58304 15.2778 6.65041 14.8915 5.96278 14.2038C5.27514 13.5162 4.88883 12.5836 4.88883 11.6111Z" fill="black"/>
<path d="M18.9444 2.44446H8.5555C8.06927 2.44446 7.60296 2.63761 7.25914 2.98143C6.91532 3.32525 6.72217 3.79156 6.72217 4.27779V11.6111C6.72217 12.0974 6.91532 12.5637 7.25914 12.9075C7.60296 13.2513 8.06927 13.4445 8.5555 13.4445H16.8361L19.7572 15.7117C19.844 15.7759 19.9463 15.8159 20.0537 15.8277C20.161 15.8395 20.2696 15.8227 20.3683 15.7789C20.4723 15.7294 20.5602 15.6515 20.6218 15.5541C20.6834 15.4568 20.7163 15.3441 20.7166 15.2289V4.27779C20.7169 3.80197 20.5321 3.34468 20.2014 3.00257C19.8707 2.66045 19.42 2.46032 18.9444 2.44446Z" fill="black"/>
</g>
<defs>
<clipPath id="clip0_1093_20260">
<rect width="22" height="22" fill="white"/>
</clipPath>
</defs>
</svg>
