<svg width="15" height="20" viewBox="0 0 15 20" fill="none" xmlns="http://www.w3.org/2000/svg">
<path d="M14.5873 5.86205V5.34481C14.5864 4.84203 14.3863 4.36022 14.0308 4.00475C13.6754 3.6493 13.1935 3.44916 12.6908 3.44826H11.8287V2.06894H12.5804C12.7466 2.06802 12.9057 2.00167 13.0231 1.88406C13.1407 1.7666 13.2071 1.60758 13.208 1.44134V0H1.48383V1.44134C1.48475 1.6076 1.5511 1.76662 1.66871 1.88406C1.78617 2.00167 1.94519 2.06802 2.11143 2.06894H2.86312V3.44826H2.00105C1.49827 3.44918 1.01645 3.6493 0.660985 4.00475C0.305537 4.3602 0.105399 4.84203 0.104492 5.34481V5.86205C0.104492 6.47797 0.433155 7.04723 0.966562 7.35514C1.49996 7.66317 2.1573 7.66317 2.6907 7.35514C3.2241 7.04725 3.55277 6.47797 3.55277 5.86205V5.51722C3.55277 5.3268 3.39837 5.1724 3.20794 5.1724C3.01752 5.1724 2.86312 5.3268 2.86312 5.51722V5.86205C2.86312 6.23166 2.66592 6.57311 2.34587 6.75797C2.02583 6.9427 1.63143 6.9427 1.31139 6.75797C0.991346 6.57309 0.794148 6.23167 0.794148 5.86205V5.34481C0.794148 5.02477 0.921305 4.71781 1.1476 4.49137C1.37405 4.26508 1.681 4.13792 2.00104 4.13792H4.24242V17.931H3.48041C3.31662 17.931 3.1596 17.996 3.04384 18.1118C2.92808 18.2275 2.86311 18.3845 2.86311 18.5483V20H11.8286V18.5483C11.8286 18.3845 11.7637 18.2275 11.6479 18.1118C11.5321 17.996 11.3751 17.931 11.2113 17.931H10.4493V4.13792H12.6907C13.0108 4.13792 13.3177 4.26508 13.5442 4.49137C13.7704 4.71782 13.8976 5.02477 13.8976 5.34481V5.86205C13.8976 6.23166 13.7004 6.57311 13.3804 6.75797C13.0603 6.9427 12.6659 6.9427 12.3459 6.75797C12.0258 6.57309 11.8286 6.23167 11.8286 5.86205V5.51722C11.8286 5.3268 11.6742 5.1724 11.4838 5.1724C11.2934 5.1724 11.139 5.3268 11.139 5.51722V5.86205C11.139 6.47797 11.4676 7.04723 12.001 7.35514C12.5344 7.66317 13.1918 7.66317 13.7252 7.35514C14.2586 7.04725 14.5873 6.47797 14.5873 5.86205H14.5873ZM5.96661 17.931H5.27696V4.13791H5.96661V17.931ZM7.69075 17.931H7.0011V4.13791H7.69075V17.931ZM9.41489 17.931H8.72524V4.13791H9.41489V17.931Z" fill="black"/>
</svg>
