<svg width="24" height="24" viewBox="0 0 24 24" fill="none" xmlns="http://www.w3.org/2000/svg">
<path d="M12.0006 0C5.3726 0 0 5.37204 0 12C0 18.6274 5.3726 24 12.0006 24C18.6276 24 24.0007 18.6274 24.0007 12C24.0007 5.37204 18.6276 0 12.0006 0ZM12.0006 22.524C6.19726 22.524 1.47605 17.8027 1.47605 12C1.47605 6.19726 6.19726 1.47605 12.0006 1.47605C17.8035 1.47605 22.5247 6.19726 22.5247 12C22.5247 17.8027 17.8035 22.524 12.0006 22.524Z" fill="black"/>
<path d="M12.9106 8.58057H11.0918V18.5836H12.9106V8.58057Z" fill="black"/>
<path d="M12.0007 4.63306C11.319 4.63306 10.8643 5.14982 10.8643 5.7699C10.8643 6.3898 11.2981 6.88594 11.9595 6.88594C12.6829 6.88594 13.1171 6.3898 13.1171 5.7699C13.1171 5.1292 12.6621 4.63306 12.0007 4.63306Z" fill="black"/>
</svg>
