<svg width="21" height="20" viewBox="0 0 21 20" fill="none" xmlns="http://www.w3.org/2000/svg">
<path d="M3.91943 3.75024H16.4193V16.2501H3.91943V3.75024Z" fill="black"/>
<path d="M4.61816 1.8252H5.88893V3.09596H4.61816V1.8252Z" fill="black"/>
<path d="M5.00342 0.00671387H5.50369V1.54806H5.00342V0.00671387Z" fill="black"/>
<path d="M6.69141 1.82202H7.96217V3.09279H6.69141V1.82202Z" fill="black"/>
<path d="M7.07715 0.00317383H7.57742V1.54452H7.07715V0.00317383Z" fill="black"/>
<path d="M8.66943 1.82202H9.9402V3.09279H8.66943V1.82202Z" fill="black"/>
<path d="M9.05469 0.00317383H9.55496V1.54452H9.05469V0.00317383Z" fill="black"/>
<path d="M10.5518 1.81836H11.8225V3.08912H10.5518V1.81836Z" fill="black"/>
<path d="M10.9375 0H11.4379V1.54134H10.9375V0Z" fill="black"/>
<path d="M12.4341 1.82202H13.7048V3.09279H12.4341V1.82202Z" fill="black"/>
<path d="M12.8198 0.00317383H13.3202V1.54452H12.8198V0.00317383Z" fill="black"/>
<path d="M14.2524 1.82202H15.5232V3.09279H14.2524V1.82202Z" fill="black"/>
<path d="M14.6377 0.00317383H15.1381V1.54452H14.6377V0.00317383Z" fill="black"/>
<path d="M4.61816 16.9037H5.88893V18.1745H4.61816V16.9037Z" fill="black"/>
<path d="M5.00342 18.4523H5.50369V19.9936H5.00342V18.4523Z" fill="black"/>
<path d="M6.69141 16.9072H7.96217V18.178H6.69141V16.9072Z" fill="black"/>
<path d="M7.07715 18.4554H7.57742V19.9968H7.07715V18.4554Z" fill="black"/>
<path d="M6.69141 16.9072H7.96217V18.178H6.69141V16.9072Z" fill="black"/>
<path d="M7.07715 18.4554H7.57742V19.9968H7.07715V18.4554Z" fill="black"/>
<path d="M8.66943 16.9072H9.9402V18.178H8.66943V16.9072Z" fill="black"/>
<path d="M9.05469 18.4554H9.55496V19.9968H9.05469V18.4554Z" fill="black"/>
<path d="M10.5518 16.9109H11.8225V18.1817H10.5518V16.9109Z" fill="black"/>
<path d="M10.9375 18.4586H11.4379V20H10.9375V18.4586Z" fill="black"/>
<path d="M12.4341 16.9072H13.7048V18.178H12.4341V16.9072Z" fill="black"/>
<path d="M12.8198 18.4554H13.3202V19.9968H12.8198V18.4554Z" fill="black"/>
<path d="M14.2524 16.9072H15.5232V18.178H14.2524V16.9072Z" fill="black"/>
<path d="M14.6377 18.4554H15.1381V19.9968H14.6377V18.4554Z" fill="black"/>
<path d="M16.9639 14.2466H18.2348V15.5173H16.9639V14.2466Z" fill="black"/>
<path d="M18.5117 14.6317H20.0531V15.1316H18.5117V14.6317Z" fill="black"/>
<path d="M16.9673 12.173H18.238V13.4434H16.9673V12.173Z" fill="black"/>
<path d="M18.5156 12.5581H20.057V13.058H18.5156V12.5581Z" fill="black"/>
<path d="M16.9673 10.1954H18.238V11.4662H16.9673V10.1954Z" fill="black"/>
<path d="M18.5156 10.5801H20.057V11.0804H18.5156V10.5801Z" fill="black"/>
<path d="M16.9707 8.31274H18.2415V9.58351H16.9707V8.31274Z" fill="black"/>
<path d="M18.5181 8.69788H20.0594V9.19815H18.5181V8.69788Z" fill="black"/>
<path d="M16.9673 6.43054H18.238V7.70131H16.9673V6.43054Z" fill="black"/>
<path d="M18.5156 6.81567H20.057V7.31595H18.5156V6.81567Z" fill="black"/>
<path d="M16.9673 4.61255H18.238V5.88331H16.9673V4.61255Z" fill="black"/>
<path d="M18.5156 4.99719H20.057V5.49747H18.5156V4.99719Z" fill="black"/>
<path d="M2.10303 14.2466H3.37379V15.5173H2.10303V14.2466Z" fill="black"/>
<path d="M0.284668 14.6317H1.82601V15.1316H0.284668V14.6317Z" fill="black"/>
<path d="M2.1001 12.173H3.37086V13.4434H2.1001V12.173Z" fill="black"/>
<path d="M0.28125 12.5581H1.82259V13.058H0.28125V12.5581Z" fill="black"/>
<path d="M2.1001 10.1954H3.37086V11.4662H2.1001V10.1954Z" fill="black"/>
<path d="M0.28125 10.5801H1.82259V11.0804H0.28125V10.5801Z" fill="black"/>
<path d="M2.09668 8.31274H3.36744V9.58351H2.09668V8.31274Z" fill="black"/>
<path d="M0.27832 8.69788H1.81966V9.19815H0.27832V8.69788Z" fill="black"/>
<path d="M2.1001 6.43054H3.37086V7.70131H2.1001V6.43054Z" fill="black"/>
<path d="M0.28125 6.81567H1.82259V7.31595H0.28125V6.81567Z" fill="black"/>
<path d="M2.1001 4.61255H3.37086V5.88331H2.1001V4.61255Z" fill="black"/>
<path d="M0.28125 4.99719H1.82259V5.49747H0.28125V4.99719Z" fill="black"/>
</svg>
