<svg width="16" height="20" viewBox="0 0 16 20" fill="none" xmlns="http://www.w3.org/2000/svg">
<path d="M7.82568 0C4.75807 0 2.22876 2.24771 1.80837 5.21753C1.80386 5.21783 1.80022 5.21812 1.79309 5.21753L1.78304 5.38218C1.75669 5.61365 1.73908 5.84789 1.73908 6.08692V6.95661C0.778418 6.95661 0 7.73924 0 8.69569V18.2609C0 19.2174 0.778716 20 1.73908 20H13.9131C14.874 20 15.6522 19.2174 15.6522 18.2609V8.69569C15.6522 7.73924 14.8737 6.95661 13.9131 6.95661V6.08692C13.9131 5.84759 13.8955 5.61381 13.8691 5.38218L13.8591 5.21753C13.8519 5.21812 13.8483 5.21783 13.8438 5.21753C13.4235 2.24771 10.8931 0 7.82568 0ZM7.82568 2.60877C8.06574 2.60877 8.30085 2.63381 8.52707 2.68025C9.65924 2.91303 10.5906 3.6977 11.0304 4.737C11.1178 4.94401 11.1864 5.16063 11.2326 5.38599C11.2792 5.61294 11.3041 5.84703 11.3041 6.08737V6.95706H4.34767V6.08737C4.34767 5.84731 4.3829 5.6074 4.42919 5.38073C4.4947 5.05958 4.61509 4.76085 4.76213 4.47873C4.80682 4.3943 4.84685 4.30753 4.8981 4.22732C4.95094 4.14346 5.01194 4.0666 5.07119 3.98798C5.14223 3.89467 5.21531 3.80339 5.29552 3.71794C5.35201 3.65767 5.41155 3.60089 5.47226 3.54485C5.57198 3.45255 5.67636 3.36549 5.78656 3.28499C5.84625 3.24131 5.90593 3.1972 5.96824 3.15746C6.08951 3.08016 6.21776 3.01392 6.34879 2.95205C6.4111 2.92235 6.47137 2.88945 6.53571 2.86368C6.67721 2.80662 6.82556 2.76585 6.97566 2.72771C7.03826 2.7117 7.09824 2.68928 7.16258 2.6769C7.37775 2.63512 7.59831 2.60877 7.82568 2.60877Z" fill="black"/>
</svg>
