<svg width="95" height="72" viewBox="0 0 95 72" fill="none" xmlns="http://www.w3.org/2000/svg">
<path d="M0 71.076V0.331543H31.7828V6.5722H7.46796V64.881H31.7864V71.076H0Z" fill="white"/>
<path d="M95 71.076V0.331543H63.2172V6.5722H87.532V64.881H63.2136V71.076H95Z" fill="white"/>
<path d="M33.4157 52.0781C31.1195 52.0781 28.919 51.7774 26.8142 51.176C24.7093 50.5473 23.0145 49.7409 21.7297 48.7568L23.9849 43.7544C25.215 44.6291 26.6638 45.3535 28.3313 45.9276C30.0261 46.4743 31.7346 46.7476 33.4567 46.7476C34.7689 46.7476 35.8213 46.6246 36.614 46.3786C37.4341 46.1052 38.0355 45.7362 38.4182 45.2715C38.8009 44.8068 38.9922 44.2738 38.9922 43.6724C38.9922 42.907 38.6915 42.3056 38.0901 41.8682C37.4888 41.4035 36.696 41.0345 35.7119 40.7611C34.7279 40.4604 33.6344 40.1871 32.4317 39.941C31.2562 39.6677 30.0671 39.3397 28.8644 38.957C27.6889 38.5743 26.6092 38.0822 25.6251 37.4808C24.641 36.8794 23.8346 36.0867 23.2059 35.1026C22.6045 34.1185 22.3038 32.8611 22.3038 31.3303C22.3038 29.6902 22.7412 28.2004 23.6159 26.8609C24.518 25.4941 25.8574 24.4144 27.6342 23.6216C29.4384 22.8016 31.6936 22.3915 34.3998 22.3915C36.204 22.3915 37.9808 22.6102 39.7303 23.0476C41.4798 23.4576 43.0242 24.0864 44.3637 24.9338L42.3135 29.9772C40.9741 29.2118 39.6346 28.6514 38.2952 28.296C36.9557 27.9133 35.6436 27.722 34.3588 27.722C33.074 27.722 32.0216 27.8723 31.2016 28.173C30.3815 28.4737 29.7938 28.8701 29.4384 29.3621C29.083 29.8268 28.9054 30.3736 28.9054 31.0023C28.9054 31.7403 29.206 32.3417 29.8074 32.8064C30.4088 33.2438 31.2016 33.5992 32.1856 33.8725C33.1697 34.1459 34.2495 34.4192 35.4249 34.6926C36.6277 34.966 37.8168 35.2803 38.9922 35.6357C40.195 35.991 41.2884 36.4694 42.2725 37.0708C43.2566 37.6722 44.0493 38.4649 44.6507 39.449C45.2794 40.4331 45.5938 41.6769 45.5938 43.1803C45.5938 44.7931 45.1427 46.2693 44.2407 47.6087C43.3386 48.9482 41.9855 50.0279 40.1813 50.848C38.4045 51.6681 36.1493 52.0781 33.4157 52.0781Z" fill="white"/>
<path d="M63.8689 52.0781C61.6547 52.0781 59.5908 51.7227 57.6773 51.012C55.7912 50.2739 54.151 49.2352 52.7569 47.8957C51.3628 46.5563 50.2694 44.9845 49.4766 43.1803C48.7112 41.3762 48.3285 39.3943 48.3285 37.2348C48.3285 35.0753 48.7112 33.0935 49.4766 31.2893C50.2694 29.4852 51.3628 27.9134 52.7569 26.5739C54.1784 25.2345 55.8322 24.2094 57.7183 23.4986C59.6045 22.7606 61.6683 22.3915 63.9099 22.3915C66.3974 22.3915 68.639 22.8289 70.6345 23.7037C72.6573 24.5511 74.3521 25.8085 75.7189 27.476L71.4545 31.4123C70.4704 30.2916 69.377 29.4578 68.1742 28.9111C66.9715 28.3371 65.6594 28.05 64.2379 28.05C62.8985 28.05 61.6683 28.2687 60.5476 28.7061C59.4268 29.1435 58.4564 29.7722 57.6363 30.5922C56.8163 31.4123 56.1739 32.3827 55.7092 33.5035C55.2718 34.6243 55.0531 35.868 55.0531 37.2348C55.0531 38.6016 55.2718 39.8454 55.7092 40.9661C56.1739 42.0869 56.8163 43.0573 57.6363 43.8774C58.4564 44.6975 59.4268 45.3262 60.5476 45.7636C61.6683 46.2009 62.8984 46.4196 64.2379 46.4196C65.6594 46.4196 66.9715 46.1463 68.1742 45.5995C69.377 45.0255 70.4704 44.1644 71.4545 43.0163L75.7189 46.9527C74.3521 48.6201 72.6573 49.8912 70.6344 50.766C68.6389 51.6407 66.3838 52.0781 63.8689 52.0781Z" fill="white"/>
</svg>
