<svg width="16" height="20" viewBox="0 0 16 20" fill="none" xmlns="http://www.w3.org/2000/svg">
<path d="M5 11.3335V13.2179C5.00062 13.5008 5.11068 13.7727 5.30723 13.9763C5.50378 14.1799 5.77148 14.2995 6.05437 14.3102C6.33711 14.3209 6.61318 14.2217 6.82445 14.0334L10.1999 11.0157C10.4882 10.7573 10.653 10.3883 10.653 10.0011C10.653 9.61392 10.4883 9.24514 10.1999 8.98677L6.82445 5.96673C6.61318 5.77839 6.33711 5.67918 6.05437 5.68988C5.77148 5.70057 5.50378 5.82024 5.30723 6.02377C5.11068 6.22745 5.00062 6.49933 5 6.78222V8.66667H0V2.66667C0 1.95952 0.280877 1.28119 0.781111 0.781111C1.28119 0.280913 1.95933 0 2.66667 0H12.6667C13.374 0 14.0521 0.280877 14.5522 0.781111C15.0524 1.28119 15.3333 1.95948 15.3333 2.66667V17.3333C15.3333 18.0405 15.0525 18.7188 14.5522 19.2189C14.0521 19.7191 13.374 20 12.6667 20H2.66667C1.95937 20 1.28119 19.7191 0.781111 19.2189C0.280912 18.7188 0 18.0405 0 17.3333V11.3333L5 11.3335Z" fill="white"/>
</svg>
