<svg width="18" height="20" viewBox="0 0 18 20" fill="none" xmlns="http://www.w3.org/2000/svg">
<path d="M8.05718 16.175V14.1649L4.06029 10.4996C3.4518 9.91262 4.34247 9.04969 4.98403 9.60778L8.05706 12.4267V6.89881C8.05706 6.55445 8.35247 6.27649 8.71846 6.27649C9.08446 6.27649 9.37986 6.55444 9.37986 6.89881V10.421L12.6977 7.37804C12.9601 7.13742 13.3766 7.14365 13.6324 7.38846C13.8881 7.6353 13.8815 8.02945 13.6213 8.26788L9.37993 12.159V16.0875C15.1204 18.2551 19.609 13.7933 16.8643 8.32344C19.6947 2.68549 14.8382 -1.88384 8.84612 0.779383C2.85412 -1.88391 -2.00215 2.68568 0.828315 8.32344C-1.87661 13.7103 2.44203 18.1181 8.05918 16.1746L8.05718 16.175Z" fill="white"/>
<path d="M8.05713 16.1749V19.3776C8.05713 19.722 8.35253 20 8.71853 20C9.08452 20 9.37993 19.722 9.37993 19.3776V16.0878C9.20354 16.0214 9.02501 15.9488 8.84647 15.8679C8.58197 15.9861 8.31963 16.0857 8.05729 16.175L8.05713 16.1749Z" fill="white"/>
</svg>
