<svg width="27" height="30" viewBox="0 0 27 30" fill="none" xmlns="http://www.w3.org/2000/svg">
<path d="M17.5304 14.4669C18.0632 12.9196 19.4838 12.1049 20.8062 12.3358C20.3172 11.1593 19.5166 10.2018 18.5304 9.6182C19.8008 5.67857 16.9021 1.14603 13.2164 1.86042C10.9651 -1.62649 6.32324 0.112297 6.04466 4.38953C1.68979 2.0275 -1.68719 8.56031 1.53123 12.1929C-2.53682 17.0325 2.19518 25.1978 7.61308 21.6286C8.27703 22.118 9.04471 22.4221 9.86702 22.4827V18.9016L5.83707 14.9679C5.43819 14.5667 5.96552 13.8947 6.37812 14.2838L9.86702 17.6885V10.5539C9.86702 10.3016 10.0502 10.098 10.2768 10.098C10.5035 10.098 10.6865 10.3018 10.6865 10.5539V14.9741L14.1754 11.5694C14.3448 11.4023 14.6044 11.4235 14.7545 11.612C14.9047 11.8005 14.8857 12.0893 14.7162 12.2564L10.6863 16.1902V22.4649C12.014 22.2946 13.1834 21.489 13.9785 20.3096C14.0877 20.3796 14.1944 20.4434 14.3063 20.5011C14.3882 20.3035 14.4812 20.109 14.5931 19.9205C13.2133 17.4917 14.951 14.0627 17.53 14.4671L17.5304 14.4669Z" fill="black"/>
<path d="M9.8667 22.4863V29.5509C9.87489 30.1497 10.6782 30.1497 10.6864 29.5509V22.4646C10.4186 22.4981 10.1371 22.5102 9.8667 22.4858V22.4863Z" fill="black"/>
<path d="M24.9944 18.504C25.6994 16.3487 24.0873 13.8255 22.0683 14.23C20.8278 12.3088 18.2707 13.2662 18.1176 15.6222C15.7244 14.3152 13.8556 17.9296 15.6314 19.9207C13.3856 22.5685 16.0057 27.0949 18.9809 25.1191C19.3005 25.3502 19.6558 25.5082 20.0383 25.5691V23.7117L17.88 21.605C17.4811 21.2038 18.0084 20.5318 18.421 20.9209L20.0384 22.4985V19.0209C20.0466 18.4221 20.8499 18.4221 20.8581 19.0209V21.003L22.4755 19.4254C22.8853 19.0363 23.4155 19.708 23.0166 20.1095L20.861 22.2162V25.5449C21.5139 25.402 22.0904 24.9855 22.4892 24.3928C24.3116 25.5754 26.5847 23.8669 26.5382 21.4653C26.5382 20.1641 25.9099 19.0424 24.9945 18.5012L24.9944 18.504Z" fill="black"/>
<path d="M20.041 25.5686V29.4841C20.0492 30.0829 20.8525 30.0829 20.8607 29.4841V25.5444C20.5956 25.6053 20.3088 25.6174 20.041 25.5688V25.5686Z" fill="black"/>
</svg>
