<svg width="27" height="30" viewBox="0 0 27 30" fill="none" xmlns="http://www.w3.org/2000/svg">
<path d="M12.0232 5.8938C11.9374 5.8714 11.8489 5.8668 11.7602 5.87664C11.0206 4.40342 5.43941 2.77474 4.0545 2.38672C5.68413 2.74017 11.1307 3.8114 11.8128 5.67698C12.891 2.07659 4.62814 1.53965 0 0C3.16873 6.93109 9.33333 5.19939 11.3764 5.99787C9.88755 8.31505 9.82555 10.2112 10.5774 11.9052C8.50633 9.9222 4.3628 8.25795 0.817448 10.314C5.09853 11.6108 4.51504 13.4038 10.5571 12.365C7.78671 11.7838 5.6973 10.848 4.61851 10.6701C6.36161 10.8756 9.80906 12.0136 10.7747 12.3124C11.5034 13.6885 12.7574 14.9383 14.1924 16.1844C11.9475 15.0742 9.10389 14.9489 5.40089 16.7561C9.71395 17.8583 11.7193 18.9888 14.9254 16.979C13.8098 16.9867 9.23979 16.6038 9.32709 16.5454C9.26624 16.4962 13.7563 16.8434 15.0494 16.9143C16.1396 17.8271 17.2907 18.751 18.3686 19.7342C16.1763 18.4202 13.4206 18.3714 9.46194 20.0893C13.6863 21.3545 15.4784 22.3188 18.8314 20.4341C17.717 20.3992 13.1823 19.8426 13.2738 19.7875C13.2153 19.735 17.9217 20.2829 19.0589 20.3831C20.0143 21.312 20.8832 22.2999 21.5619 23.3839C19.2967 21.787 16.437 21.601 12.197 23.4407C16.4213 24.7059 18.2135 25.6701 21.5664 23.7853C20.4521 23.7506 15.9177 23.1939 16.0088 23.1389C15.9506 23.0864 20.5974 23.6271 21.7717 23.7324C23.0389 25.9299 22.7173 33.0962 23.8275 28.4806C23.993 26.154 23.2082 24.2022 21.9521 22.4752C22.5412 21.5837 24.1214 19.0138 24.1538 19.073C24.2705 19.0546 22.5744 21.896 22.0303 22.5346C26.1456 21.7794 25.8889 20.2202 26.5389 17.1352C22.4101 18.2968 20.9865 19.8096 21.3721 21.7304C20.5397 20.7291 19.5623 19.8016 18.5432 18.9147C19.0902 18.0971 20.7581 15.3815 20.7913 15.4426C20.908 15.424 19.2116 18.2656 18.6675 18.904C22.783 18.149 22.5261 16.5896 23.1761 13.5046C18.7216 14.7579 17.4158 16.4196 18.1334 18.5616C17.1798 17.7486 16.2036 16.9668 15.2862 16.1906C15.9249 15.2251 17.7921 12.222 17.815 12.2847C17.9267 12.2552 15.9737 15.4668 15.3826 16.2019C19.3244 15.0512 19.2868 13.385 20.2942 9.99515C15.9634 11.7151 14.5307 13.623 14.9299 15.8869C13.5058 14.6604 12.2573 13.4388 11.5131 12.1185C12.3159 11.475 15.2883 8.91386 15.2924 8.97997C15.4124 8.9785 12.5131 11.5221 11.7057 12.0706C15.9729 11.9186 16.4309 10.3527 18.4418 7.42114C13.5367 8.02382 11.5576 9.50979 11.3362 11.7833C10.5387 10.1608 10.5231 8.38125 11.8785 6.2595C12.1622 6.2258 16.6141 4.78837 19.7926 4.45462C17.8747 4.82752 13.344 6.10382 12.0983 6.29341C18.248 7.71702 21.3172 5.5635 25.0745 3.15969C18.03 3.0877 14.2941 1.52222 12.0223 5.89248L12.0232 5.8938Z" fill="black"/>
</svg>
