<svg width="15" height="20" viewBox="0 0 15 20" fill="none" xmlns="http://www.w3.org/2000/svg">
<path d="M10.6385 9.0708C9.6012 8.82975 8.15178 8.77793 6.19352 8.77793H6.19286C4.02115 8.77793 2.25278 7.39081 2.23249 5.68023C2.24312 4.51787 2.77935 3.45749 3.67294 2.8382C4.92269 1.97171 6.09683 1.95261 8.31438 2.78288C8.87621 2.99336 9.95484 3.18739 10.108 2.60746C10.3976 1.50987 9.63839 0.958541 9.07673 0.74803C5.39513 -0.630965 3.73316 0.152645 2.43522 1.05236C0.97117 2.06754 0.0882159 3.77161 0.0603179 5.62534C0.0593211 5.66488 0.0593211 5.70392 0.0603179 5.74362C0.0880602 7.16246 0.748071 8.48064 1.92672 9.46477C3.07445 10.4228 4.58983 10.9506 6.19307 10.9506C7.77688 10.9506 9.27282 10.9506 10.2535 11.1785C11.1971 11.398 11.1971 11.6845 11.1971 11.9146C11.1971 12.1083 11.1487 12.1485 11.1386 12.1661C11.0555 12.3077 10.8721 12.3753 10.0987 12.4552C9.41359 12.5261 8.51303 12.512 7.55931 12.4974L6.19312 12.4836C6.07201 12.4836 5.83944 12.4685 5.7308 12.505C3.69531 12.8109 3.06518 14.3423 3.06518 15.6439C3.06518 17.416 3.87069 18.0743 6.63565 18.8039C6.90211 18.8744 6.97471 18.8734 7.23733 18.9127C7.90348 18.9795 8.08508 19.6025 7.35561 20C8.3801 19.9279 8.72461 19.5003 8.76914 18.88C8.81499 18.2395 8.6703 17.9072 8.15049 17.4984C7.6488 17.1037 7.278 17.0047 6.27996 16.7038C5.5419 16.4812 5.23753 16.1888 5.23753 15.6444C5.23753 15.38 5.23853 14.6867 6.55257 14.6585C6.88331 14.661 7.20893 14.6658 7.52636 14.6706C7.9322 14.6769 8.3229 14.6831 8.69718 14.6831C10.4352 14.6831 11.812 14.5535 12.6635 13.7152C12.9858 13.3976 13.3702 12.8276 13.3702 11.9156C13.3696 10.8923 12.8071 9.57564 10.6385 9.07092L10.6385 9.0708Z" fill="black"/>
<path d="M4.5249 4.20947C4.5249 6.1611 6.71604 7.74308 9.41938 7.74308C12.1224 7.74308 14.3139 6.1611 14.3139 4.20947H4.5249Z" fill="black"/>
</svg>
