<svg width="29" height="29" viewBox="0 0 29 29" fill="none" xmlns="http://www.w3.org/2000/svg">
<path d="M23.5021 12.4241C23.5021 8.17205 20.5538 4.61228 16.576 3.67218V2.72849C16.576 1.58059 15.6504 0.651367 14.5001 0.651367C13.3497 0.651367 12.4242 1.58059 12.4242 2.72849V3.67218C8.44637 4.61228 5.49801 8.17321 5.49801 12.4241V20.0403L2.72852 22.8073V24.1921H26.2716V22.8073L23.5021 20.0403V12.4241ZM14.5001 28.3487C14.6946 28.3487 14.8734 28.3366 15.0559 28.2931C15.9525 28.1143 16.7028 27.4908 17.0472 26.6571C17.1861 26.3284 17.2707 25.9671 17.2707 25.578H11.7294C11.7294 27.1018 12.9764 28.3487 14.5001 28.3487Z" fill="white"/>
</svg>
