<svg width="20" height="20" viewBox="0 0 20 20" fill="none" xmlns="http://www.w3.org/2000/svg">
<path d="M11.978 0.316531C11.5652 0.111143 11.1305 0 10.6848 0C9.24555 0 7.94303 1.14055 7.00615 2.97741C7.29761 3.01384 7.59998 3.05895 7.90168 3.11692C8.59741 1.79716 9.54295 1.00058 10.6841 1.00058C12.4553 1.00058 13.7396 2.91974 14.3723 5.73906C14.7732 5.98754 15.1565 6.24485 15.5253 6.5093C14.9403 3.47391 13.619 1.13351 11.9781 0.316452L11.978 0.316531ZM18.459 3.93648C17.6082 3.49672 16.4593 3.33085 15.135 3.41458C15.2486 3.6784 15.3573 3.95109 15.4566 4.23458C16.3584 4.1887 17.1382 4.30201 17.745 4.60195C17.8061 4.63218 17.8623 4.66566 17.9199 4.69961C18.2605 4.9005 18.5377 5.16326 18.7383 5.49945C19.3736 6.56389 19.0033 7.91682 17.9267 9.31174C16.7684 8.00996 15.1721 6.73611 13.2661 5.67167C12.8342 5.43047 12.4022 5.20508 11.9695 5.00155C12.4966 4.81383 13.0115 4.65603 13.5068 4.53449C13.4222 4.28771 13.3323 4.05381 13.2357 3.8329C13.2146 3.78438 13.1901 3.74315 13.1683 3.69603C12.7638 3.78578 12.3488 3.89444 11.929 4.02294C11.8087 3.70378 11.5786 3.42136 11.2508 3.2383C10.5094 2.82426 9.56143 3.06996 9.13348 3.78719C9.10944 3.82749 9.08765 3.87136 9.06778 3.91275C5.67855 2.95914 2.75285 3.29458 1.73393 5.00199C0.954066 6.30874 1.4516 8.15072 2.87045 10.0016C2.2148 10.8569 1.75874 11.71 1.53219 12.5096C1.02121 12.642 0.562619 12.9629 0.277247 13.4409C-0.293496 14.3972 0.0452332 15.6199 1.03368 16.1721C1.70218 16.5455 2.49676 16.5173 3.11751 16.1637C3.9422 16.5275 5.01146 16.6687 6.22665 16.5926C6.11273 16.3283 6.00874 16.0499 5.90907 15.7659C5.1092 15.8055 4.40067 15.7197 3.82861 15.4877C3.83871 15.4719 3.8472 15.4564 3.85697 15.4404C4.42772 14.4842 4.08899 13.2615 3.10054 12.7093C2.89432 12.5941 2.67414 12.5236 2.45272 12.4829C2.62705 11.9078 2.96657 11.3007 3.43927 10.6891C4.59758 11.991 6.19397 13.2649 8.09989 14.3293C8.5349 14.5724 8.97188 14.7919 9.40755 14.9966C8.87701 15.186 8.35754 15.3443 7.8594 15.4665C7.944 15.7132 8.03389 15.9471 8.13051 16.168C8.15166 16.2166 8.17618 16.2578 8.19797 16.3049C8.9969 16.1279 9.82799 15.8704 10.6758 15.5426C12.1622 16.1183 13.6077 16.4661 14.8979 16.575C14.9841 16.9798 15.2362 17.35 15.6353 17.573C16.3767 17.9871 17.3246 17.7414 17.7526 17.0242C17.8928 16.7892 17.9648 16.5305 17.9654 16.2772C18.7063 16.0112 19.2826 15.5852 19.6325 14.999C20.4131 13.6908 19.9113 11.8481 18.4889 9.9954C19.9085 8.14521 20.4141 6.30541 19.6344 4.99898C19.3668 4.55069 18.9638 4.1976 18.4597 3.937L18.459 3.93648ZM12.7496 6.53707C14.6363 7.59084 16.2251 8.79897 17.338 10.0016C17.0403 10.3227 16.708 10.6435 16.3452 10.9621C16.3232 11.4171 16.2888 11.8631 16.2369 12.2996C16.8718 11.7731 17.4327 11.2289 17.9215 10.6794C19.0025 12.0782 19.3739 13.4316 18.7371 14.4987C18.4928 14.9082 18.1339 15.2072 17.6855 15.4173C17.5594 15.2416 17.3889 15.0893 17.1848 14.9753C16.4434 14.5613 15.4954 14.807 15.0675 15.5242C15.0266 15.5927 15 15.6605 14.9715 15.7321C14.055 15.6329 13.037 15.3816 11.9608 14.9973C12.3963 14.7929 12.83 14.5706 13.2646 14.3278C13.4884 14.2027 13.7062 14.0766 13.9212 13.946C14.0095 13.5227 14.0792 13.0772 14.1377 12.615C13.6939 12.9037 13.2327 13.1902 12.7469 13.4615C12.0515 13.8498 11.3593 14.192 10.6794 14.4891C10.0002 14.1924 9.30958 13.8502 8.61644 13.4631C6.72988 12.4093 5.13685 11.2078 4.02432 10.0052C4.32459 9.68128 4.65466 9.35962 5.02113 9.03799C5.04308 8.58041 5.08122 8.1326 5.13345 7.69391C4.49589 8.22204 3.93491 8.76922 3.44477 9.32089C2.36383 7.92208 1.99244 6.56871 2.62918 5.50161C3.53977 3.9757 6.01537 3.89213 8.96257 4.85459C8.98693 4.96216 9.01416 5.0716 9.06224 5.17174C8.74193 5.32954 8.42114 5.49385 8.10164 5.67225C7.88021 5.79595 7.66179 5.91825 7.44903 6.04722C7.36058 6.47055 7.2912 6.91607 7.23256 7.37829C7.67433 7.09121 8.13609 6.80849 8.61921 6.53861C9.02588 6.31152 9.4348 6.099 9.83778 5.90262C10.3268 6.11529 10.8785 6.06429 11.3092 5.79566C11.7867 6.02197 12.2669 6.26736 12.7497 6.53709L12.7496 6.53707ZM14.7666 8.4212C14.8028 8.93445 14.8133 9.45913 14.8133 9.99842C14.8133 11.8928 14.5879 13.6509 14.1641 15.1008C14.4257 15.1527 14.6861 15.193 14.9305 15.2223C14.9824 15.2285 15.0306 15.2291 15.0816 15.2346C15.5666 13.7114 15.8477 11.9194 15.8477 9.99925C15.8477 9.75542 15.8507 9.51406 15.8421 9.27457C15.5077 8.98827 15.1508 8.70195 14.7666 8.4214L14.7666 8.4212ZM7.20177 4.89938C6.94011 4.84745 6.67971 4.80715 6.4352 4.77785C6.38328 4.77165 6.33505 4.77088 6.2841 4.76561C5.79909 6.28874 5.51802 8.0808 5.51802 10.0009C5.51802 10.2447 5.51498 10.4861 5.52363 10.7256C5.85803 11.0119 6.21489 11.2982 6.59911 11.5788C6.5629 11.0655 6.55233 10.5408 6.55233 10.0015C6.55233 8.10719 6.77777 6.34906 7.20175 4.89918L7.20177 4.89938ZM16.9266 15.4081C17.421 15.6842 17.5902 16.2955 17.3049 16.7737C17.0196 17.2518 16.3876 17.4156 15.8933 17.1397C15.3991 16.8636 15.2298 16.2523 15.515 15.7741C15.8004 15.2959 16.4323 15.1322 16.9266 15.4081ZM14.3597 17.0225C14.0683 16.9861 13.7659 16.941 13.4642 16.883C12.7683 18.2028 11.8228 18.9992 10.6818 18.9992C8.91055 18.9992 7.62632 17.08 6.99355 14.2607C6.59265 14.0124 6.20938 13.7549 5.84054 13.4905C6.57265 17.2893 8.46258 19.9996 10.6812 20C12.1204 20 13.423 18.8594 14.3598 17.0226L14.3597 17.0225ZM2.58389 13.5745C3.07821 13.8506 3.24742 14.4619 2.9622 14.94C2.67683 15.4182 2.04488 15.582 1.55056 15.3059C1.0564 15.0299 0.887029 14.4185 1.17225 13.9403C1.45762 13.4621 2.08956 13.2984 2.58372 13.5745L2.58389 13.5745Z" fill="white"/>
</svg>
