<svg width="19" height="20" viewBox="0 0 19 20" fill="none" xmlns="http://www.w3.org/2000/svg">
<path d="M13.528 4.82279C13.4054 4.77129 13.3221 4.65058 13.3142 4.51265C13.2821 3.87675 12.9788 3.28913 12.4873 2.91154C11.996 2.53396 11.3685 2.40623 10.7772 2.56313C10.6564 2.59423 10.5291 2.55436 10.4445 2.45933C9.8654 1.79885 9.04637 1.42416 8.18867 1.42702C7.08703 1.42941 6.07018 2.04426 5.51983 3.04037C5.45583 3.15645 5.33516 3.22533 5.20715 3.21896L5.15965 3.21609C5.14346 3.2129 5.12666 3.2129 5.10924 3.2129C4.57309 3.21593 4.05911 3.43693 3.67628 3.82888C3.29349 4.22082 3.07201 4.75293 3.05872 5.31246C3.05688 5.4059 3.01992 5.49488 2.95607 5.56025C2.4772 6.04883 2.16422 6.6871 2.06431 7.37819C1.96441 8.06944 2.08309 8.77564 2.40234 9.39003C2.47016 9.51982 2.45427 9.67992 2.36232 9.79249C2.14878 10.0478 2.0307 10.3748 2.02979 10.7136C2.0304 11.0428 2.13961 11.3617 2.33895 11.6166C2.53844 11.8716 2.81582 12.047 3.1247 12.1135C3.28402 12.1473 3.39843 12.2937 3.39843 12.4635V14.2854H4.4249V9.9993C4.42551 9.75581 4.46599 9.51423 4.54466 9.28494H4.4249C4.4249 8.90608 4.28071 8.54266 4.02409 8.27463C3.76732 8.00675 3.41919 7.85622 3.05627 7.85622V7.14186C3.47495 7.1425 3.88355 7.2766 4.22723 7.52647C4.57077 7.77634 4.83287 8.13 4.97845 8.5398C5.36552 8.10433 5.90869 7.85655 6.47785 7.85622C6.78732 7.85558 7.08732 7.74556 7.32914 7.54401C7.57094 7.34246 7.7402 7.06135 7.80922 6.74642C7.33919 6.65377 6.91488 6.39274 6.60951 6.00846C6.30402 5.62433 6.13644 5.14086 6.13569 4.64163H6.82001C6.82062 4.96469 6.92602 5.27786 7.11909 5.53029C7.31217 5.78271 7.58145 5.9594 7.88314 6.03144C7.96013 5.6081 8.15748 5.21855 8.44936 4.91382C8.74127 4.6091 9.11444 4.40307 9.51999 4.32274C9.45095 4.00782 9.2817 3.72668 9.03991 3.52515C8.79811 3.3236 8.49813 3.21357 8.18862 3.21294V2.49858C8.67804 2.49922 9.15108 2.68227 9.52273 3.01475C9.89421 3.34738 10.1397 3.80757 10.2148 4.3124C10.6984 4.39085 11.1393 4.64709 11.4579 5.03488C11.7764 5.42283 11.9517 5.91668 11.9524 6.42755C11.9524 6.80641 12.0966 7.16983 12.3532 7.43786C12.6099 7.70574 12.9581 7.85627 13.321 7.85627V8.57063C12.9008 8.57015 12.4908 8.43493 12.1465 8.18347C11.8022 7.93201 11.5401 7.57626 11.3958 7.16439C11.0747 7.21764 10.7823 7.38826 10.5709 7.64594C10.3593 7.90362 10.2426 8.23131 10.2416 8.57061H9.55726C9.55787 8.06435 9.73017 7.57451 10.0436 7.18814C10.3571 6.80178 10.7915 6.54363 11.2697 6.45974C11.2681 6.44858 11.2681 6.43821 11.2681 6.42753C11.2681 5.91711 11.0072 5.44543 10.5837 5.19018C10.1603 4.93505 9.63852 4.93505 9.2151 5.19018C8.79168 5.44547 8.53078 5.91715 8.53078 6.42753C8.53017 6.99567 8.31373 7.54054 7.92894 7.94234C7.54401 8.344 7.02208 8.56995 6.47783 8.57061C6.1149 8.57061 5.76677 8.72113 5.51001 8.98902C5.2534 9.25706 5.1092 9.62047 5.1092 9.99932V14.2855H6.13567V11.1287C6.13567 10.9868 6.21633 10.8583 6.34097 10.8015C6.88721 10.5522 7.35216 10.1427 7.67981 9.62285C7.73113 9.54169 7.81178 9.48588 7.90328 9.46818C7.99493 9.45048 8.08932 9.47264 8.16494 9.52925C8.60395 9.848 9.13139 10.007 9.66554 9.98179C10.1997 9.95643 10.7111 9.74818 11.1206 9.38924C11.2279 9.29245 11.3812 9.27491 11.5062 9.34491C12.0866 9.67339 12.7711 9.73701 13.3981 9.52111C14.025 9.30505 14.5387 8.82859 14.818 8.20399C15.097 7.5794 15.1169 6.86235 14.8726 6.22196C14.6285 5.58173 14.142 5.07498 13.528 4.82161L13.528 4.82279Z" fill="black"/>
<path d="M15.8189 5.01954C15.1077 3.27079 13.8396 1.83235 12.229 0.947692C10.6184 0.0630304 8.76434 -0.213283 6.9809 0.165245C5.19757 0.54379 3.59415 1.55408 2.44251 3.02521C1.29078 4.49618 0.661446 6.33759 0.661133 8.23717V20H8.18862V18.2141C8.18862 18.0169 8.34183 17.8569 8.53078 17.8569H14.0053C14.6403 17.8561 15.2492 17.5925 15.6981 17.1237C16.1471 16.6551 16.3996 16.0195 16.4004 15.3567V11.4277C16.4004 11.2305 16.5536 11.0705 16.7426 11.0705H18.2785L15.8189 5.01954ZM12.6369 10.3564C12.207 10.3561 11.7821 10.2622 11.3891 10.0807C10.91 10.4431 10.3423 10.6564 9.75191 10.6955C9.16136 10.7348 8.57254 10.5983 8.05332 10.3022C7.7191 10.7415 7.29858 11.1009 6.82018 11.3565V14.6425C6.82018 14.7372 6.78413 14.8281 6.71998 14.8951C6.65582 14.9621 6.56875 14.9997 6.47802 14.9997H3.05644C2.86749 14.9997 2.71428 14.8398 2.71428 14.6425V12.7345C2.31452 12.5857 1.96873 12.3118 1.7237 11.95C1.47869 11.5883 1.34672 11.1565 1.34564 10.7136C1.34717 10.2885 1.47075 9.87372 1.70048 9.52274C1.46693 9.00102 1.3458 8.43206 1.34564 7.85613C1.3429 6.84884 1.71392 5.87968 2.381 5.15193C2.43263 4.4457 2.73217 3.78412 3.22235 3.29444C3.71252 2.80475 4.35867 2.52126 5.03685 2.49844C5.6489 1.51299 6.65219 0.865945 7.77044 0.735646C8.88858 0.605212 10.0038 1.00529 10.8091 1.82551C11.5389 1.69412 12.2885 1.87797 12.8858 2.33483C13.4831 2.79181 13.8769 3.48258 13.9768 4.24862C14.8192 4.67454 15.4303 5.47739 15.6375 6.43027C15.8447 7.38318 15.6254 8.38279 15.0416 9.14658C14.4578 9.91038 13.5729 10.3556 12.6369 10.3564Z" fill="black"/>
</svg>
