<svg width="17" height="16" viewBox="0 0 17 16" fill="none" xmlns="http://www.w3.org/2000/svg">
<path d="M12.7016 10.8493C13.6891 9.68033 14.2312 8.20091 14.2312 6.70317C14.2312 3.01369 11.0365 0 7.10591 0C3.17539 0 0 3.01375 0 6.70317C0 10.3927 3.19468 13.4063 7.10591 13.4063C8.67421 13.4063 10.2425 12.8949 11.5011 11.9635L15.7802 16L17 14.8493L12.7016 10.8493ZM7.10598 11.8173C4.14357 11.8173 1.7233 9.53421 1.7233 6.7397C1.7233 3.94519 4.14357 1.66209 7.10598 1.66209C10.0684 1.66209 12.4887 3.94519 12.4887 6.7397C12.4887 9.53421 10.0684 11.8173 7.10598 11.8173Z" fill="black"/>
</svg>
