<svg width="20" height="20" viewBox="0 0 20 20" fill="none" xmlns="http://www.w3.org/2000/svg">
<path fill-rule="evenodd" clip-rule="evenodd" d="M16.1616 2.02011C15.9306 1.84723 15.5845 1.84723 15.3535 2.04901L14.4009 2.88577C14.1991 3.08801 13.7951 3.11691 13.5352 3.00118L12.4096 2.53955C12.1501 2.45303 11.8902 2.13552 11.8902 1.84722L11.8326 0.577042C11.8037 0.288746 11.5727 0.0288621 11.2839 0H8.71562C8.42701 0.0288923 8.19634 0.288766 8.16712 0.577042L8.10933 1.84722C8.0806 2.13551 7.84993 2.453 7.59005 2.53955L6.4645 3.00118C6.20462 3.11691 5.82932 3.08802 5.59867 2.88577L4.64617 2.04901C4.44423 1.84723 4.06912 1.84723 3.8381 2.02011C3.8381 2.02011 3.28992 2.42414 2.85702 2.85704C2.42413 3.28993 2.02009 3.83843 2.02009 3.83843C1.84674 4.0691 1.84674 4.41547 2.04898 4.64649L2.88575 5.5987C3.08768 5.80094 3.11689 6.20496 3.00117 6.46452L2.53953 7.59006C2.45301 7.84994 2.13549 8.10982 1.84675 8.10982L0.577047 8.16745C0.288278 8.19634 0.0284202 8.42701 0 8.71563V11.2844C0.0284214 11.5727 0.288298 11.8036 0.577047 11.8325L1.84675 11.8902C2.13552 11.9191 2.45302 12.15 2.53953 12.4099L3.00117 13.5355C3.11689 13.795 3.08768 14.1702 2.88575 14.4013L2.04898 15.3535C1.84674 15.5557 1.84674 15.9309 2.02009 16.1616C2.02009 16.1616 2.42413 16.7102 2.85702 17.143C3.28996 17.5759 3.8381 17.9799 3.8381 17.9799C4.06908 18.1529 4.41547 18.1529 4.64617 17.951L5.59867 17.1142C5.8006 16.912 6.20462 16.8831 6.4645 16.9985L7.59005 17.4605C7.84993 17.547 8.10933 17.8645 8.10933 18.1529L8.16712 19.423C8.19585 19.7113 8.42699 19.9711 8.71562 20H11.2839C11.5727 19.9711 11.8037 19.7112 11.8326 19.423L11.8902 18.1529C11.9191 17.8645 12.1501 17.547 12.4096 17.4605L13.5352 16.9985C13.7951 16.8831 14.1702 16.912 14.4009 17.1142L15.3535 17.951C15.5553 18.1529 15.9306 18.1529 16.1616 17.9799C16.1616 17.9799 16.7102 17.5758 17.143 17.143C17.5759 16.7102 17.9799 16.1616 17.9799 16.1616C18.153 15.9309 18.153 15.5845 17.951 15.3535L17.1138 14.4013C16.912 14.199 16.8831 13.795 16.9985 13.5355L17.4601 12.4099C17.547 12.1501 17.8642 11.8902 18.1529 11.8902L19.4226 11.8325C19.7112 11.8036 19.9711 11.5727 20 11.2844V8.71563C19.9711 8.42702 19.7112 8.19635 19.4226 8.16745L18.1529 8.10982C17.8642 8.08062 17.547 7.84995 17.4601 7.59006L16.9985 6.46452C16.8831 6.20496 16.912 5.82984 17.1138 5.5987L17.951 4.64649C18.153 4.44424 18.153 4.06912 17.9799 3.83843C17.9799 3.83843 17.5759 3.28993 17.143 2.85704C16.7102 2.4241 16.1616 2.02011 16.1616 2.02011ZM12.987 12.958C11.342 14.603 8.68699 14.603 7.04207 12.958C5.39675 11.313 5.39675 8.658 7.04207 7.0131C8.68707 5.36812 11.3421 5.36812 12.987 7.0131C14.632 8.65808 14.632 11.3131 12.987 12.958Z" fill="black"/>
</svg>
