<svg width="21" height="20" viewBox="0 0 21 20" fill="none" xmlns="http://www.w3.org/2000/svg">
<path d="M15.0246 14.7181L12.3913 13.0544C12.469 12.8415 12.5133 12.6122 12.5133 12.3721C12.5133 11.3815 11.7923 10.5611 10.8467 10.4022V7.66675H10.18V10.402C9.23432 10.561 8.51333 11.3813 8.51333 12.372C8.51333 12.6287 8.56333 12.8733 8.65172 13.0989L6.00635 14.7156L6.35397 15.2847L8.99458 13.671C9.36124 14.0997 9.90528 14.372 10.5136 14.372C11.1386 14.372 11.6964 14.085 12.063 13.636L14.6687 15.282L15.0246 14.7181ZM10.9134 12.7257H10.1134V11.9257H10.9134V12.7257Z" fill="black"/>
<path d="M8.84652 4.33333C8.11021 4.33333 7.51318 4.93036 7.51318 5.66667V7H13.5132V5.66667C13.5132 4.93036 12.9162 4.33333 12.1799 4.33333H11.5132V3.72933C12.1099 3.38306 12.5132 2.73825 12.5132 2C12.5132 0.897029 11.6162 0 10.5132 0C9.41021 0 8.51318 0.897029 8.51318 2C8.51318 2.7384 8.91646 3.38305 9.51318 3.72933V4.33333H8.84652ZM10.8465 4.33333H10.1799V3.96994C10.2885 3.98824 10.3995 4 10.5132 4C10.6269 4 10.7379 3.98839 10.8465 3.96994V4.33333ZM9.17985 2C9.17985 1.9744 9.1858 1.95059 9.18759 1.9253C9.21289 1.92664 9.23789 1.93006 9.26318 1.93006C9.7532 1.93006 10.1998 1.72679 10.5132 1.40343C10.8266 1.7268 11.2731 1.93006 11.7631 1.93006C11.7884 1.93006 11.8134 1.92679 11.8387 1.92545C11.8405 1.9506 11.8465 1.97441 11.8465 2C11.8465 2.73528 11.2484 3.33333 10.5131 3.33333C9.77787 3.33333 9.17985 2.73528 9.17985 2Z" fill="black"/>
<path d="M19.1799 17.3333H18.5132V16.7293C19.1099 16.3831 19.5132 15.7382 19.5132 15C19.5132 13.897 18.6162 13 17.5132 13C16.4102 13 15.5132 13.897 15.5132 15C15.5132 15.7384 15.9165 16.383 16.5132 16.7293V17.3333H15.8465C15.1102 17.3333 14.5132 17.9304 14.5132 18.6667V20H20.5132V18.6667C20.5132 17.9304 19.9162 17.3333 19.1799 17.3333ZM17.8465 17.3333H17.1799V16.9699C17.2885 16.9882 17.3995 17 17.5132 17C17.6269 17 17.7379 16.9884 17.8465 16.9699V17.3333ZM17.5132 16.3333C16.7779 16.3333 16.1799 15.7353 16.1799 15C16.1799 14.9744 16.1858 14.9506 16.1876 14.9253C16.2129 14.9263 16.2379 14.9299 16.2632 14.9299C16.7532 14.9299 17.1998 14.7266 17.5132 14.4033C17.8266 14.7266 18.2731 14.9299 18.7631 14.9299C18.7884 14.9299 18.8134 14.9266 18.8387 14.9253C18.8405 14.9506 18.8465 14.9744 18.8465 15C18.8465 15.7353 18.2485 16.3333 17.5132 16.3333Z" fill="black"/>
<path d="M5.17985 17.3333H4.51318V16.7293C5.10991 16.3831 5.51318 15.7382 5.51318 15C5.51318 13.897 4.61616 13 3.51318 13C2.41021 13 1.51318 13.897 1.51318 15C1.51318 15.7384 1.91646 16.383 2.51318 16.7293V17.3333H1.84652C1.11021 17.3333 0.513184 17.9304 0.513184 18.6667V20H6.51318V18.6667C6.51318 17.9304 5.91616 17.3333 5.17985 17.3333ZM3.84652 17.3333H3.17985V16.9699C3.28848 16.9882 3.39949 17 3.51318 17C3.62688 17 3.73788 16.9884 3.84652 16.9699V17.3333ZM3.51318 16.3333C2.77791 16.3333 2.17985 15.7353 2.17985 15C2.17985 14.9744 2.1858 14.9506 2.18759 14.9253C2.21289 14.9266 2.23789 14.9301 2.26318 14.9301C2.7532 14.9301 3.19979 14.7268 3.51317 14.4034C3.82656 14.7268 4.27313 14.9301 4.76315 14.9301C4.78844 14.9301 4.81344 14.9268 4.83874 14.9254C4.84053 14.9506 4.84648 14.9744 4.84648 15C4.84648 15.7353 4.24846 16.3333 3.51318 16.3333Z" fill="black"/>
</svg>
