<svg width="16" height="13" viewBox="0 0 16 13" fill="none" xmlns="http://www.w3.org/2000/svg">
<path fill-rule="evenodd" clip-rule="evenodd" d="M2.00798 5.65995C6.03438 3.89868 8.72583 2.7603 10.0608 2.20185C13.8934 0.612416 14.6901 0.333191 15.2068 0.333191C15.3145 0.333191 15.5729 0.35467 15.7451 0.483543C15.8743 0.590937 15.9174 0.741289 15.9389 0.848683C15.9604 0.956077 15.982 1.19234 15.9604 1.38565C15.7451 3.55502 14.8623 8.8603 14.3886 11.2874C14.1949 12.3184 13.8073 12.6621 13.4412 12.705C12.6446 12.7694 12.0202 12.168 11.245 11.674C10.0393 10.8793 9.35025 10.3853 8.16601 9.61206C6.80952 8.70995 7.69231 8.21593 8.46745 7.42121C8.66123 7.20642 12.2139 4.00608 12.2785 3.70537C12.2785 3.66241 12.3001 3.53354 12.2139 3.4691C12.1278 3.40467 12.0202 3.42615 11.934 3.44763C11.8048 3.4691 9.867 4.75783 6.09898 7.29234C5.53916 7.67896 5.04393 7.85079 4.59177 7.85079C4.09654 7.85079 3.14915 7.57157 2.43861 7.3353C1.57735 7.05607 0.888335 6.90572 0.95293 6.43319C1.01752 6.17544 1.36203 5.91769 2.00798 5.65995Z" fill="white"/>
</svg>
