<svg width="17" height="11" viewBox="0 0 17 11" fill="none" xmlns="http://www.w3.org/2000/svg">
<path fill-rule="evenodd" clip-rule="evenodd" d="M2.75443 0.658203H1.01525C0.518334 0.658203 0.418945 0.892094 0.418945 1.14993C0.418945 1.61051 1.00857 3.89472 3.16433 6.91578C4.60151 8.97892 6.62635 10.0973 8.46891 10.0973C9.57443 10.0973 9.71119 9.84891 9.71119 9.42107V7.86173C9.71119 7.36493 9.81592 7.26577 10.166 7.26577C10.4239 7.26577 10.8661 7.39474 11.898 8.38947C13.0772 9.56842 13.2716 10.0973 13.9349 10.0973H15.6741C16.171 10.0973 16.4195 9.84891 16.2761 9.35872C16.1193 8.87017 15.5563 8.1613 14.8092 7.32107C14.4038 6.84211 13.7958 6.32633 13.6115 6.0684C13.3536 5.73684 13.4273 5.58944 13.6115 5.29474C13.6115 5.29474 15.7305 2.31049 15.9516 1.29738C16.0621 0.928907 15.9516 0.658203 15.4256 0.658203H13.6864C13.2443 0.658203 13.0404 0.892094 12.9298 1.14993C12.9298 1.14993 12.0454 3.30523 10.7925 4.70524C10.3871 5.11048 10.2028 5.23945 9.9817 5.23945C9.87116 5.23945 9.71115 5.11048 9.71115 4.74211V1.29738C9.71115 0.855232 9.58282 0.658203 9.21425 0.658203H6.48123C6.20492 0.658203 6.03869 0.863379 6.03869 1.05787C6.03869 1.47697 6.66515 1.57365 6.72973 2.75259V5.31317C6.72973 5.87455 6.62828 5.97634 6.40721 5.97634C5.81761 5.97634 4.38342 3.81141 3.53281 1.33419C3.36613 0.852699 3.19891 0.658203 2.75443 0.658203Z" fill="white"/>
</svg>
