<svg width="12" height="15" viewBox="0 0 12 15" fill="none" xmlns="http://www.w3.org/2000/svg">
<path d="M11.2053 5.33953C10.9128 5.33953 10.6803 5.57204 10.6803 5.86455V7.0496C10.6803 9.70468 8.52026 11.8647 5.86518 11.8647C3.2101 11.8647 1.05003 9.70468 1.05003 7.0496V5.85705C1.05003 5.56454 0.817525 5.33203 0.525016 5.33203C0.232507 5.33203 0 5.56454 0 5.85705V7.0421C0 10.0947 2.34757 12.6073 5.34017 12.8773V14.4748C5.34017 14.7673 5.57268 14.9998 5.86518 14.9998C6.15769 14.9998 6.3902 14.7673 6.3902 14.4748V12.8773C9.37529 12.6148 11.7304 10.0947 11.7304 7.0421V5.85705C11.7229 5.57204 11.4904 5.33953 11.2053 5.33953Z" fill="#292D32"/>
<path d="M5.86391 0C4.03388 0 2.54883 1.48504 2.54883 3.3151V7.15521C2.54883 8.98527 4.03388 10.4703 5.86391 10.4703C7.69397 10.4703 9.17901 8.98527 9.17901 7.15521V3.3151C9.17901 1.48504 7.69397 0 5.86391 0Z" fill="#292D32"/>
</svg>
