<svg width="20" height="20" viewBox="0 0 20 20" fill="none" xmlns="http://www.w3.org/2000/svg">
<path fill-rule="evenodd" clip-rule="evenodd" d="M10 20C15.5227 20 20 15.5227 20 10C20 4.47727 15.5227 0 10 0C4.47727 0 0 4.47727 0 10C0 15.5227 4.47727 20 10 20ZM10.381 3.07702H9.61899C9.40458 3.07702 9.23073 3.25215 9.23073 3.46898V10.3771C9.23073 10.5936 9.40828 10.7692 9.61577 10.7692H14.9996C15.2123 10.7692 15.3847 10.6046 15.3847 10.381V9.61896C15.3847 9.40455 15.2094 9.23071 15.0069 9.23071H10.7694V3.46196C10.7694 3.24949 10.6048 3.07709 10.3812 3.07709L10.381 3.07702Z" fill="black"/>
</svg>
