<svg style="display:none">
    <symbol id="coins" viewBox="0 0 20 20" xmlns="http://www.w3.org/2000/svg">
        <path d="M19.5623 12.9352C19.8469 12.0071 20 11.0214 20 10C20 8.599 19.7119 7.26529 19.1917 6.05488C19.0525 5.89975 18.9008 5.75788 18.7364 5.62928C18.1111 5.13405 17.3002 4.88643 16.3035 4.88643C15.4059 4.88643 14.6568 5.08762 14.0564 5.49C13.4621 5.89238 13.0133 6.45881 12.7099 7.18929C12.4128 7.91357 12.2611 8.76476 12.2549 9.74286C12.2549 10.721 12.4035 11.5752 12.7006 12.3057C13.004 13.03 13.4559 13.5933 14.0564 13.9957C14.6568 14.3981 15.4059 14.5993 16.3035 14.5993C17.3002 14.5993 18.1111 14.3517 18.7364 13.8564C19.0609 13.5994 19.3362 13.2923 19.5623 12.9352Z" fill="currentColor"/>
        <path d="M17.4918 16.6238C17.1143 16.6794 16.7182 16.7071 16.3035 16.7071C14.9664 16.7071 13.8211 16.4162 12.8678 15.8343C11.9144 15.2462 11.1809 14.429 10.6671 13.3829C10.1594 12.3367 9.90564 11.1233 9.90564 9.74286C9.90564 8.36238 10.1594 7.14905 10.6671 6.10286C11.1809 5.05667 11.9144 4.24262 12.8678 3.66071C13.8211 3.07262 14.9664 2.77857 16.3035 2.77857C16.5213 2.77857 16.734 2.7863 16.9416 2.80175C15.1431 1.06699 12.6961 0 10 0C7.30569 0 4.86025 1.06554 3.06209 2.79822C3.12833 2.79704 3.19502 2.79668 3.26214 2.79714C4.17833 2.80333 4.99548 2.96119 5.71357 3.27071C6.43167 3.57405 7.03214 4.01667 7.515 4.59857C7.99786 5.18048 8.33833 5.8831 8.53643 6.70643L6.13143 7.12429C6.03238 6.65381 5.84048 6.25452 5.55571 5.92643C5.27714 5.59214 4.93357 5.33833 4.525 5.165C4.12262 4.99167 3.69238 4.89881 3.23429 4.88643C2.78857 4.88024 2.37381 4.94833 1.99 5.09071C1.61238 5.2269 1.30595 5.425 1.07071 5.685C0.841667 5.945 0.727143 6.24833 0.727143 6.595C0.727143 6.9231 0.826191 7.19238 1.02429 7.40286C1.22238 7.60714 1.4669 7.77119 1.75786 7.895C2.055 8.01262 2.35524 8.11167 2.65857 8.19214L5.05429 8.86071C5.38238 8.94738 5.75071 9.065 6.15929 9.21357C6.56786 9.36214 6.96095 9.56952 7.33857 9.83571C7.71619 10.1019 8.02571 10.4517 8.26714 10.885C8.51476 11.3183 8.63857 11.8693 8.63857 12.5379C8.63857 13.2312 8.4931 13.841 8.20214 14.3671C7.91738 14.8871 7.53048 15.3205 7.04143 15.6671C6.55238 16.0138 5.99214 16.2738 5.36071 16.4471C4.73548 16.6205 4.07929 16.7071 3.39214 16.7071C3.10014 16.7071 2.8167 16.692 2.5418 16.6616C4.37301 18.7104 7.0359 20 10 20C12.9823 20 15.6597 18.6945 17.4918 16.6238Z" fill="currentColor"/>
        <path d="M0.357057 12.6578C0.124311 11.8115 0 10.9203 0 10C0 9.86136 0.00282139 9.72338 0.00840989 9.58611C0.134288 9.65846 0.262437 9.72309 0.392857 9.78C0.739524 9.92238 1.06143 10.0369 1.35857 10.1236L4.81286 11.145C5.06048 11.2193 5.27714 11.309 5.46286 11.4143C5.65476 11.5133 5.80952 11.6248 5.92714 11.7486C6.05095 11.8724 6.14381 12.0148 6.20571 12.1757C6.26762 12.3305 6.29857 12.5007 6.29857 12.6864C6.29857 13.1012 6.16548 13.451 5.89929 13.7357C5.63929 14.0205 5.29881 14.2371 4.87786 14.3857C4.45691 14.5343 4.0081 14.6086 3.53143 14.6086C2.72667 14.6086 2.01476 14.3919 1.39571 13.9586C0.929466 13.6289 0.583248 13.1953 0.357057 12.6578Z" fill="currentColor"/>
    </symbol>

    <symbol id="beginner" viewBox="0 0 27 30" xmlns="http://www.w3.org/2000/svg">
        <path d="M17.7281 11.538C11.4871 16.7278 5.90905 21.64 4.34839 30C10.414 25.813 18.4384 24.8206 22.6906 19.758C27.0787 14.5353 26.3003 7.31193 26.5389 0C21.4332 2.39894 16.3758 3.72863 11.2008 4.90471C1.29762 7.15576 -2.89191 17.8154 2.13106 27.723C7.69604 17.7696 11.733 13.4374 17.7289 11.5384L17.7281 11.538Z" fill="currentColor"/>
    </symbol>

    <symbol id="advanced" viewBox="0 0 27 30" xmlns="http://www.w3.org/2000/svg">
        <path d="M12.0232 5.8938C11.9374 5.8714 11.8489 5.8668 11.7602 5.87664C11.0206 4.40342 5.43941 2.77474 4.0545 2.38672C5.68413 2.74017 11.1307 3.8114 11.8128 5.67698C12.891 2.07659 4.62814 1.53965 0 0C3.16873 6.93109 9.33333 5.19939 11.3764 5.99787C9.88755 8.31505 9.82555 10.2112 10.5774 11.9052C8.50633 9.9222 4.3628 8.25795 0.817448 10.314C5.09853 11.6108 4.51504 13.4038 10.5571 12.365C7.78671 11.7838 5.6973 10.848 4.61851 10.6701C6.36161 10.8756 9.80906 12.0136 10.7747 12.3124C11.5034 13.6885 12.7574 14.9383 14.1924 16.1844C11.9475 15.0742 9.10389 14.9489 5.40089 16.7561C9.71395 17.8583 11.7193 18.9888 14.9254 16.979C13.8098 16.9867 9.23979 16.6038 9.32709 16.5454C9.26624 16.4962 13.7563 16.8434 15.0494 16.9143C16.1396 17.8271 17.2907 18.751 18.3686 19.7342C16.1763 18.4202 13.4206 18.3714 9.46194 20.0893C13.6863 21.3545 15.4784 22.3188 18.8314 20.4341C17.717 20.3992 13.1823 19.8426 13.2738 19.7875C13.2153 19.735 17.9217 20.2829 19.0589 20.3831C20.0143 21.312 20.8832 22.2999 21.5619 23.3839C19.2967 21.787 16.437 21.601 12.197 23.4407C16.4213 24.7059 18.2135 25.6701 21.5664 23.7853C20.4521 23.7506 15.9177 23.1939 16.0088 23.1389C15.9506 23.0864 20.5974 23.6271 21.7717 23.7324C23.0389 25.9299 22.7173 33.0962 23.8275 28.4806C23.993 26.154 23.2082 24.2022 21.9521 22.4752C22.5412 21.5837 24.1214 19.0138 24.1538 19.073C24.2705 19.0546 22.5744 21.896 22.0303 22.5346C26.1456 21.7794 25.8889 20.2202 26.5389 17.1352C22.4101 18.2968 20.9865 19.8096 21.3721 21.7304C20.5397 20.7291 19.5623 19.8016 18.5432 18.9147C19.0902 18.0971 20.7581 15.3815 20.7913 15.4426C20.908 15.424 19.2116 18.2656 18.6675 18.904C22.783 18.149 22.5261 16.5896 23.1761 13.5046C18.7216 14.7579 17.4158 16.4196 18.1334 18.5616C17.1798 17.7486 16.2036 16.9668 15.2862 16.1906C15.9249 15.2251 17.7921 12.222 17.815 12.2847C17.9267 12.2552 15.9737 15.4668 15.3826 16.2019C19.3244 15.0512 19.2868 13.385 20.2942 9.99515C15.9634 11.7151 14.5307 13.623 14.9299 15.8869C13.5058 14.6604 12.2573 13.4388 11.5131 12.1185C12.3159 11.475 15.2883 8.91386 15.2924 8.97997C15.4124 8.9785 12.5131 11.5221 11.7057 12.0706C15.9729 11.9186 16.4309 10.3527 18.4418 7.42114C13.5367 8.02382 11.5576 9.50979 11.3362 11.7833C10.5387 10.1608 10.5231 8.38125 11.8785 6.2595C12.1622 6.2258 16.6141 4.78837 19.7926 4.45462C17.8747 4.82752 13.344 6.10382 12.0983 6.29341C18.248 7.71702 21.3172 5.5635 25.0745 3.15969C18.03 3.0877 14.2941 1.52222 12.0223 5.89248L12.0232 5.8938Z" fill="currentColor"/>
    </symbol>

    <symbol id="experienced" viewBox="0 0 18 20" xmlns="http://www.w3.org/2000/svg">
        <path d="M8.05718 16.175V14.1649L4.06029 10.4996C3.4518 9.91262 4.34247 9.04969 4.98403 9.60778L8.05706 12.4267V6.89881C8.05706 6.55445 8.35247 6.27649 8.71846 6.27649C9.08446 6.27649 9.37986 6.55444 9.37986 6.89881V10.421L12.6977 7.37804C12.9601 7.13742 13.3766 7.14365 13.6324 7.38846C13.8881 7.6353 13.8815 8.02945 13.6213 8.26788L9.37993 12.159V16.0875C15.1204 18.2551 19.609 13.7933 16.8643 8.32344C19.6947 2.68549 14.8382 -1.88384 8.84612 0.779383C2.85412 -1.88391 -2.00215 2.68568 0.828315 8.32344C-1.87661 13.7103 2.44203 18.1181 8.05918 16.1746L8.05718 16.175Z" fill="currentColor"/>
        <path d="M8.05713 16.1749V19.3776C8.05713 19.722 8.35253 20 8.71853 20C9.08452 20 9.37993 19.722 9.37993 19.3776V16.0878C9.20354 16.0214 9.02501 15.9488 8.84647 15.8679C8.58197 15.9861 8.31963 16.0857 8.05729 16.175L8.05713 16.1749Z" fill="currentColor"/>
    </symbol>

    <symbol id="professional" viewBox="0 0 27 30" xmlns="http://www.w3.org/2000/svg">
        <path d="M17.5304 14.4669C18.0632 12.9196 19.4838 12.1049 20.8062 12.3358C20.3172 11.1593 19.5166 10.2018 18.5304 9.6182C19.8008 5.67857 16.9021 1.14603 13.2164 1.86042C10.9651 -1.62649 6.32324 0.112297 6.04466 4.38953C1.68979 2.0275 -1.68719 8.56031 1.53123 12.1929C-2.53682 17.0325 2.19518 25.1978 7.61308 21.6286C8.27703 22.118 9.04471 22.4221 9.86702 22.4827V18.9016L5.83707 14.9679C5.43819 14.5667 5.96552 13.8947 6.37812 14.2838L9.86702 17.6885V10.5539C9.86702 10.3016 10.0502 10.098 10.2768 10.098C10.5035 10.098 10.6865 10.3018 10.6865 10.5539V14.9741L14.1754 11.5694C14.3448 11.4023 14.6044 11.4235 14.7545 11.612C14.9047 11.8005 14.8857 12.0893 14.7162 12.2564L10.6863 16.1902V22.4649C12.014 22.2946 13.1834 21.489 13.9785 20.3096C14.0877 20.3796 14.1944 20.4434 14.3063 20.5011C14.3882 20.3035 14.4812 20.109 14.5931 19.9205C13.2133 17.4917 14.951 14.0627 17.53 14.4671L17.5304 14.4669Z" fill="currentColor"/>
        <path d="M9.8667 22.4863V29.5509C9.87489 30.1497 10.6782 30.1497 10.6864 29.5509V22.4646C10.4186 22.4981 10.1371 22.5102 9.8667 22.4858V22.4863Z" fill="currentColor"/>
        <path d="M24.9944 18.504C25.6994 16.3487 24.0873 13.8255 22.0683 14.23C20.8278 12.3088 18.2707 13.2662 18.1176 15.6222C15.7244 14.3152 13.8556 17.9296 15.6314 19.9207C13.3856 22.5685 16.0057 27.0949 18.9809 25.1191C19.3005 25.3502 19.6558 25.5082 20.0383 25.5691V23.7117L17.88 21.605C17.4811 21.2038 18.0084 20.5318 18.421 20.9209L20.0384 22.4985V19.0209C20.0466 18.4221 20.8499 18.4221 20.8581 19.0209V21.003L22.4755 19.4254C22.8853 19.0363 23.4155 19.708 23.0166 20.1095L20.861 22.2162V25.5449C21.5139 25.402 22.0904 24.9855 22.4892 24.3928C24.3116 25.5754 26.5847 23.8669 26.5382 21.4653C26.5382 20.1641 25.9099 19.0424 24.9945 18.5012L24.9944 18.504Z" fill="currentColor"/>
        <path d="M20.041 25.5686V29.4841C20.0492 30.0829 20.8525 30.0829 20.8607 29.4841V25.5444C20.5956 25.6053 20.3088 25.6174 20.041 25.5688V25.5686Z" fill="currentColor"/>
    </symbol>

    <symbol id="logout" viewBox="0 0 16 20" xmlns="http://www.w3.org/2000/svg">
        <path d="M5 11.3335V13.2179C5.00062 13.5008 5.11068 13.7727 5.30723 13.9763C5.50378 14.1799 5.77148 14.2995 6.05437 14.3102C6.33711 14.3209 6.61318 14.2217 6.82445 14.0334L10.1999 11.0157C10.4882 10.7573 10.653 10.3883 10.653 10.0011C10.653 9.61392 10.4883 9.24514 10.1999 8.98677L6.82445 5.96673C6.61318 5.77839 6.33711 5.67918 6.05437 5.68988C5.77148 5.70057 5.50378 5.82024 5.30723 6.02377C5.11068 6.22745 5.00062 6.49933 5 6.78222V8.66667H0V2.66667C0 1.95952 0.280877 1.28119 0.781111 0.781111C1.28119 0.280913 1.95933 0 2.66667 0H12.6667C13.374 0 14.0521 0.280877 14.5522 0.781111C15.0524 1.28119 15.3333 1.95948 15.3333 2.66667V17.3333C15.3333 18.0405 15.0525 18.7188 14.5522 19.2189C14.0521 19.7191 13.374 20 12.6667 20H2.66667C1.95937 20 1.28119 19.7191 0.781111 19.2189C0.280912 18.7188 0 18.0405 0 17.3333V11.3333L5 11.3335Z" fill="currentColor"/>
    </symbol>

    <symbol id="notifications" viewBox="0 0 29 29" xmlns="http://www.w3.org/2000/svg">
        <path d="M23.5021 12.4241C23.5021 8.17205 20.5538 4.61228 16.576 3.67218V2.72849C16.576 1.58059 15.6504 0.651367 14.5001 0.651367C13.3497 0.651367 12.4242 1.58059 12.4242 2.72849V3.67218C8.44637 4.61228 5.49801 8.17321 5.49801 12.4241V20.0403L2.72852 22.8073V24.1921H26.2716V22.8073L23.5021 20.0403V12.4241ZM14.5001 28.3487C14.6946 28.3487 14.8734 28.3366 15.0559 28.2931C15.9525 28.1143 16.7028 27.4908 17.0472 26.6571C17.1861 26.3284 17.2707 25.9671 17.2707 25.578H11.7294C11.7294 27.1018 12.9764 28.3487 14.5001 28.3487Z" fill="currentColor"/>
    </symbol>

    <symbol id="star" viewBox="0 0 20 19" xmlns="http://www.w3.org/2000/svg">
        <path d="M10 0L12.2451 6.90983H19.5106L13.6327 11.1803L15.8779 18.0902L10 13.8197L4.12215 18.0902L6.36729 11.1803L0.489435 6.90983H7.75486L10 0Z" fill="currentColor"/>
    </symbol>

    <symbol id="vk" viewBox="0 0 17 11" xmlns="http://www.w3.org/2000/svg">
        <path fill-rule="evenodd" clip-rule="evenodd" d="M2.75443 0.658203H1.01525C0.518334 0.658203 0.418945 0.892094 0.418945 1.14993C0.418945 1.61051 1.00857 3.89472 3.16433 6.91578C4.60151 8.97892 6.62635 10.0973 8.46891 10.0973C9.57443 10.0973 9.71119 9.84891 9.71119 9.42107V7.86173C9.71119 7.36493 9.81592 7.26577 10.166 7.26577C10.4239 7.26577 10.8661 7.39474 11.898 8.38947C13.0772 9.56842 13.2716 10.0973 13.9349 10.0973H15.6741C16.171 10.0973 16.4195 9.84891 16.2761 9.35872C16.1193 8.87017 15.5563 8.1613 14.8092 7.32107C14.4038 6.84211 13.7958 6.32633 13.6115 6.0684C13.3536 5.73684 13.4273 5.58944 13.6115 5.29474C13.6115 5.29474 15.7305 2.31049 15.9516 1.29738C16.0621 0.928907 15.9516 0.658203 15.4256 0.658203H13.6864C13.2443 0.658203 13.0404 0.892094 12.9298 1.14993C12.9298 1.14993 12.0454 3.30523 10.7925 4.70524C10.3871 5.11048 10.2028 5.23945 9.9817 5.23945C9.87116 5.23945 9.71115 5.11048 9.71115 4.74211V1.29738C9.71115 0.855232 9.58282 0.658203 9.21425 0.658203H6.48123C6.20492 0.658203 6.03869 0.863379 6.03869 1.05787C6.03869 1.47697 6.66515 1.57365 6.72973 2.75259V5.31317C6.72973 5.87455 6.62828 5.97634 6.40721 5.97634C5.81761 5.97634 4.38342 3.81141 3.53281 1.33419C3.36613 0.852699 3.19891 0.658203 2.75443 0.658203Z" fill="currentColor"/>
    </symbol>

    <symbol id="habr" viewBox="0 0 25 10" xmlns="http://www.w3.org/2000/svg">
        <path d="M7.16898 7.88912L4.87762 4.42245L7.14922 0.936035H5.48009L3.9591 3.3064L2.45786 0.936035H0.72947L3.00107 4.39282L0.709717 7.88912H2.3986L3.91959 5.50887L5.45046 7.88912H7.16898Z" fill="currentColor"/>
        <path d="M10.0871 2.66406C8.75377 2.66406 7.99327 3.39493 7.855 4.27394H9.19821C9.27722 4.00727 9.53401 3.78011 10.0278 3.78011C10.5118 3.78011 10.8673 4.02702 10.8673 4.5011V4.73814H9.7513C8.44759 4.73814 7.65747 5.3406 7.65747 6.38752C7.65747 7.41468 8.44759 8.00727 9.43525 8.00727C10.097 8.00727 10.6303 7.75048 10.9464 7.33567V7.88875H12.2797V4.55048C12.2797 3.30604 11.4007 2.66406 10.0871 2.66406ZM9.83031 6.89122C9.38586 6.89122 9.09944 6.67394 9.09944 6.31838C9.09944 5.95295 9.41549 5.73567 9.85994 5.73567H10.8673V5.96283C10.8673 6.55542 10.3834 6.89122 9.83031 6.89122Z" fill="currentColor"/>
        <path d="M16.2751 2.8715C15.564 2.8715 14.9812 3.12829 14.6059 3.65175C14.7047 2.69372 15.0899 2.21965 16.0578 2.0715L18.0035 1.78508V0.530762L15.9195 0.876441C13.9047 1.21224 13.2825 2.55545 13.2825 4.79743C13.2825 6.81224 14.2602 8.0073 15.9886 8.0073C17.5393 8.0073 18.4973 6.82212 18.4973 5.39989C18.4973 3.86903 17.6084 2.8715 16.2751 2.8715ZM15.9195 6.80236C15.1689 6.80236 14.7541 6.19989 14.7541 5.39002C14.7541 4.60977 15.1886 4.04681 15.9294 4.04681C16.6504 4.04681 17.0553 4.62952 17.0553 5.39989C17.0553 6.17026 16.6602 6.80236 15.9195 6.80236Z" fill="currentColor"/>
        <path d="M22.3429 2.66406C21.5923 2.66406 21.1084 2.98999 20.8516 3.37517V2.78258H19.4689V9.77517H20.9108V7.39492C21.1676 7.75048 21.6516 8.00727 22.3034 8.00727C23.5578 8.00727 24.5553 7.01962 24.5553 5.3406C24.5553 3.63196 23.5578 2.66406 22.3429 2.66406ZM21.9973 6.76283C21.3257 6.76283 20.8812 6.21962 20.8812 5.36036V5.32085C20.8812 4.46159 21.3257 3.90851 21.9973 3.90851C22.6689 3.90851 23.1034 4.47147 23.1034 5.3406C23.1034 6.20974 22.6689 6.76283 21.9973 6.76283Z" fill="currentColor"/>
    </symbol>

    <symbol id="telegram" viewBox="0 0 16 13" xmlns="http://www.w3.org/2000/svg">
        <path fill-rule="evenodd" clip-rule="evenodd" d="M2.00798 5.65995C6.03438 3.89868 8.72583 2.7603 10.0608 2.20185C13.8934 0.612416 14.6901 0.333191 15.2068 0.333191C15.3145 0.333191 15.5729 0.35467 15.7451 0.483543C15.8743 0.590937 15.9174 0.741289 15.9389 0.848683C15.9604 0.956077 15.982 1.19234 15.9604 1.38565C15.7451 3.55502 14.8623 8.8603 14.3886 11.2874C14.1949 12.3184 13.8073 12.6621 13.4412 12.705C12.6446 12.7694 12.0202 12.168 11.245 11.674C10.0393 10.8793 9.35025 10.3853 8.16601 9.61206C6.80952 8.70995 7.69231 8.21593 8.46745 7.42121C8.66123 7.20642 12.2139 4.00608 12.2785 3.70537C12.2785 3.66241 12.3001 3.53354 12.2139 3.4691C12.1278 3.40467 12.0202 3.42615 11.934 3.44763C11.8048 3.4691 9.867 4.75783 6.09898 7.29234C5.53916 7.67896 5.04393 7.85079 4.59177 7.85079C4.09654 7.85079 3.14915 7.57157 2.43861 7.3353C1.57735 7.05607 0.888335 6.90572 0.95293 6.43319C1.01752 6.17544 1.36203 5.91769 2.00798 5.65995Z" fill="currentColor"/>
    </symbol>

    <symbol id="arrowRight" viewBox="0 0 12 23" xmlns="http://www.w3.org/2000/svg">
        <path d="M1 1L10.3432 10.8103C10.711 11.1966 10.711 11.8034 10.3432 12.1897L1 22" stroke="currentColor" stroke-width="2" stroke-linecap="round"/>
    </symbol>

    <symbol id="search" viewBox="0 0 17 16" xmlns="http://www.w3.org/2000/svg">
        <path d="M12.7016 10.8493C13.6891 9.68033 14.2312 8.20091 14.2312 6.70317C14.2312 3.01369 11.0365 0 7.10591 0C3.17539 0 0 3.01375 0 6.70317C0 10.3927 3.19468 13.4063 7.10591 13.4063C8.67421 13.4063 10.2425 12.8949 11.5011 11.9635L15.7802 16L17 14.8493L12.7016 10.8493ZM7.10598 11.8173C4.14357 11.8173 1.7233 9.53421 1.7233 6.7397C1.7233 3.94519 4.14357 1.66209 7.10598 1.66209C10.0684 1.66209 12.4887 3.94519 12.4887 6.7397C12.4887 9.53421 10.0684 11.8173 7.10598 11.8173Z" fill="currentColor"/>
    </symbol>

    <symbol id="toggleCard" viewBox="0 0 20 20" xmlns="http://www.w3.org/2000/svg">
        <rect width="5.45455" height="5.45455" fill="currentColor"/>
        <rect y="7.27272" width="5.45455" height="5.45455" fill="currentColor"/>
        <rect y="14.5455" width="5.45455" height="5.45455" fill="currentColor"/>
        <rect x="7.27271" width="5.45455" height="5.45455" fill="currentColor"/>
        <rect x="7.27271" y="7.27272" width="5.45455" height="5.45455" fill="currentColor"/>
        <rect x="7.27271" y="14.5455" width="5.45455" height="5.45455" fill="currentColor"/>
        <rect x="14.5454" width="5.45455" height="5.45455" fill="currentColor"/>
        <rect x="14.5454" y="7.27272" width="5.45455" height="5.45455" fill="currentColor"/>
        <rect x="14.5454" y="14.5455" width="5.45455" height="5.45455" fill="currentColor"/>
    </symbol>

    <symbol id="toggleList" viewBox="0 0 20 20" xmlns="http://www.w3.org/2000/svg">
        <rect width="20" height="5" fill="currentColor"/>
        <rect y="7" width="20" height="6" fill="currentColor"/>
        <rect y="15" width="20" height="5" fill="currentColor"/>
    </symbol>

    <symbol id="инженерия/материалы" viewBox="0 0 20 21" xmlns="http://www.w3.org/2000/svg">
        <path fill-rule="evenodd" clip-rule="evenodd" d="M10.9554 18.9315L11.4322 18.9366H11.4583H11.4609H11.4608C11.6617 18.938 11.8552 18.8643 12.0012 18.7312C12.1472 18.5979 12.2341 18.4152 12.244 18.2215V18.2013H12.2454L12.2531 17.5364C12.2484 17.381 12.3581 17.2441 12.5152 17.2098C13.3019 17.0399 14.0551 16.7482 14.7454 16.3459C14.8795 16.2678 15.0516 16.2893 15.1609 16.3978L15.6499 16.8799H15.6497C15.7937 17.0209 15.9896 17.1012 16.1945 17.1031C16.3996 17.1051 16.597 17.0286 16.7438 16.8904L17.7333 15.956C17.7377 15.951 17.7425 15.9462 17.7474 15.9415L17.7506 15.9383H17.7508C17.894 15.8017 17.9767 15.6167 17.9816 15.4223C17.9863 15.228 17.9127 15.0393 17.7763 14.8963C17.7721 14.8928 17.7682 14.8891 17.7641 14.8853L17.2752 14.4026H17.2753C17.1644 14.2952 17.1451 14.128 17.2287 13.9996C17.6599 13.3418 17.9785 12.6213 18.1723 11.8658C18.2097 11.7197 18.3461 11.6174 18.502 11.6185L19.2004 11.6262C19.4053 11.6274 19.6025 11.5508 19.7493 11.4126C19.8959 11.2744 19.9804 11.0859 19.9842 10.888L19.9997 9.55478C19.9997 9.54646 19.9985 9.53815 19.9985 9.52953H20V9.52702L19.9998 9.52717C20.0011 9.33317 19.925 9.14607 19.7869 9.00508C19.6489 8.86424 19.4599 8.78018 19.2592 8.77077H19.2383V8.76967L18.5499 8.7623V8.76214C18.3885 8.76701 18.2461 8.66052 18.2105 8.50839C18.0345 7.74885 17.7324 7.02179 17.3162 6.35508C17.2355 6.22553 17.2578 6.05929 17.3701 5.95375L17.8695 5.48151V5.48167C18.0153 5.34256 18.0984 5.15342 18.1006 4.95552C18.1025 4.75744 18.0234 4.56673 17.8804 4.42495L16.915 3.47141C16.9096 3.46686 16.9047 3.46247 16.8995 3.45777L16.8963 3.45463V3.45447C16.755 3.31599 16.5636 3.23601 16.3622 3.23146C16.161 3.22675 15.9656 3.29795 15.8177 3.42985L15.8063 3.4413L15.3066 3.91353L15.3068 3.91337C15.1952 4.02018 15.0223 4.03837 14.8896 3.95744C14.2086 3.54106 13.4628 3.23352 12.6804 3.04642C12.529 3.01035 12.423 2.87877 12.4243 2.72805L12.4317 2.08081V2.05556V2.0529C12.4332 1.85905 12.357 1.67195 12.219 1.53112C12.081 1.39013 11.892 1.30622 11.6914 1.29681H11.6703L11.6702 1.29509L10.9568 1.2874H10.957C11.1164 1.66239 11.1983 2.06373 11.198 2.46915V5.27709C12.9063 5.38687 14.4387 6.331 15.2617 7.78106C16.0848 9.23112 16.0848 10.9867 15.2617 12.4367C14.4387 13.8868 12.9063 14.8309 11.198 14.9407V17.7485C11.198 18.1544 11.1155 18.5562 10.9553 18.9315L10.9554 18.9315ZM2.64291 13.8992C2.57276 14.0352 2.51576 14.1772 2.47306 14.3236C2.26488 15.032 2.39446 15.7931 2.82641 16.3999C3.25854 17.0066 3.94799 17.3959 4.70733 17.4618C5.46683 17.5276 6.21701 17.2634 6.75419 16.7406C6.88557 16.6131 7.0991 16.6128 7.23097 16.7397C7.36299 16.8666 7.36348 17.0728 7.23211 17.2002C6.74153 17.678 6.104 17.9897 5.41484 18.0886C5.53679 18.9239 6.09036 19.642 6.88395 19.9945C7.67754 20.3469 8.60216 20.2852 9.33809 19.831C10.0742 19.3767 10.5204 18.5921 10.5224 17.7485V2.46898C10.519 1.62617 10.0722 0.84278 9.33663 0.389378C8.60104 -0.0641856 7.67721 -0.125493 6.88428 0.226429C6.09136 0.578359 5.53776 1.29524 5.41484 2.12973L5.45397 2.13554C5.62432 2.16204 5.79222 2.20172 5.95606 2.25426C6.13258 2.31056 6.22839 2.49437 6.17009 2.66486C6.11179 2.83518 5.92147 2.92771 5.74494 2.87141C5.61584 2.83 5.4835 2.79879 5.34921 2.77809C5.21345 2.75739 5.07624 2.7472 4.93869 2.74751C4.1365 2.74829 3.38091 3.11152 2.89686 3.72927C2.41264 4.34705 2.25592 5.14798 2.47304 5.89387C2.51575 6.04003 2.57258 6.18212 2.6429 6.31808C2.83061 6.28781 3.02044 6.27056 3.21076 6.26632H3.30332C3.39604 6.26178 3.48649 6.29393 3.55371 6.35556C3.62111 6.4172 3.65911 6.50283 3.65911 6.59238C3.65911 6.68193 3.62111 6.76756 3.55371 6.82919C3.48649 6.89083 3.39604 6.92313 3.30332 6.91843C2.12324 6.91843 1.03267 7.52649 0.442574 8.51355C-0.147525 9.50066 -0.147525 10.7169 0.442574 11.704C1.03267 12.6911 2.12329 13.2991 3.30332 13.2991C3.48292 13.3084 3.6237 13.4516 3.6237 13.6252C3.6237 13.7988 3.48292 13.9421 3.30332 13.9512C3.08215 13.9512 2.86113 13.9335 2.64288 13.8984L2.64291 13.8992ZM8.65531 13.3405C8.65531 13.344 8.65953 13.3664 8.65531 13.3405V13.3405ZM9.32547 13.2668C9.35178 13.4448 9.22366 13.6098 9.03919 13.6352C8.85472 13.6606 8.68389 13.5369 8.65758 13.3587C8.65547 13.3446 8.65498 13.3401 8.65498 13.3401L8.65222 13.3239C8.62153 13.1466 8.74559 12.9787 8.92925 12.9491C9.11291 12.9195 9.28667 13.0393 9.31736 13.2167C9.32255 13.2461 9.31362 13.1958 9.32093 13.2416C9.32953 13.2946 9.32093 13.2312 9.32564 13.2668L9.32547 13.2668ZM8.17384 16.2313C8.10839 16.2918 8.02054 16.3244 7.92977 16.3218C7.83916 16.3189 7.75358 16.2812 7.6922 16.2167C7.63082 16.1522 7.59883 16.0666 7.60354 15.9792C7.60825 15.8917 7.64917 15.8099 7.71705 15.7518C7.97443 15.5315 8.19253 15.2718 8.36268 14.9832C8.51013 14.7203 8.60188 14.4318 8.63241 14.1344C8.6605 13.963 8.82272 13.843 9.00135 13.8614C9.17998 13.8797 9.31232 14.0299 9.30241 14.2032C9.26214 14.5856 9.14344 14.9565 8.95329 15.2943C8.74819 15.646 8.48466 15.9625 8.17288 16.2313L8.17384 16.2313ZM6.80541 3.71001C6.68232 3.57561 6.69515 3.37016 6.83447 3.25111C6.97364 3.13208 7.18653 3.14462 7.30979 3.27903C7.81189 3.81164 8.2081 4.4291 8.47881 5.10015C8.72823 5.73843 8.83508 6.42037 8.79222 7.10117C8.77825 7.27792 8.62074 7.41139 8.43757 7.40166C8.2544 7.39194 8.11296 7.24248 8.11913 7.06542C8.15631 6.47527 8.06392 5.88399 7.84794 5.3307C7.60631 4.73332 7.25296 4.18397 6.80541 3.71001ZM5.04596 7.26429C5.14242 7.41845 5.0911 7.61904 4.93148 7.71219C4.77185 7.80519 4.56416 7.75578 4.46771 7.60146C4.45813 7.58594 4.46138 7.59049 4.41835 7.5196C4.37531 7.44871 4.37954 7.45686 4.36801 7.43805H4.36817C4.2808 7.28231 4.33829 7.08768 4.49743 6.9997C4.65657 6.91172 4.85939 6.96253 4.95421 7.11403C4.99708 7.18617 4.98588 7.16908 4.99919 7.19072C5.01251 7.21237 5.00406 7.19794 5.0458 7.26491L5.04596 7.26429ZM9.38721 9.64749C9.57021 9.64341 9.72318 9.78111 9.73179 9.9577C9.7404 10.1343 9.60156 10.2852 9.41888 10.2977C9.03613 10.3169 8.65239 10.2994 8.27322 10.246C8.11831 11.0834 7.7104 11.8579 7.10097 12.4719C6.53456 12.9903 5.82607 13.3409 5.05946 13.4818C4.87791 13.5206 4.69831 13.4099 4.65821 13.2345C4.6181 13.0592 4.73274 12.8856 4.91429 12.8468C5.55718 12.7306 6.15198 12.4391 6.62859 12.0064C7.1432 11.4803 7.48632 10.8198 7.61494 10.1068C7.39377 10.045 7.17749 9.96788 6.96785 9.87582C6.2022 9.53063 5.53349 9.01326 5.01743 8.3671C4.91107 8.22579 4.93883 8.02865 5.08043 7.92012C5.22203 7.81159 5.42713 7.8301 5.54536 7.96231C5.9947 8.52704 6.57732 8.97968 7.2449 9.28237C7.91831 9.56827 8.65312 9.69341 9.38726 9.64684L9.38721 9.64749Z" fill="currentColor"/>
    </symbol>

    <symbol id="физика" viewBox="0 0 20 20" xmlns="http://www.w3.org/2000/svg">
        <path d="M11.978 0.316531C11.5652 0.111143 11.1305 0 10.6848 0C9.24555 0 7.94303 1.14055 7.00615 2.97741C7.29761 3.01384 7.59998 3.05895 7.90168 3.11692C8.59741 1.79716 9.54295 1.00058 10.6841 1.00058C12.4553 1.00058 13.7396 2.91974 14.3723 5.73906C14.7732 5.98754 15.1565 6.24485 15.5253 6.5093C14.9403 3.47391 13.619 1.13351 11.9781 0.316452L11.978 0.316531ZM18.459 3.93648C17.6082 3.49672 16.4593 3.33085 15.135 3.41458C15.2486 3.6784 15.3573 3.95109 15.4566 4.23458C16.3584 4.1887 17.1382 4.30201 17.745 4.60195C17.8061 4.63218 17.8623 4.66566 17.9199 4.69961C18.2605 4.9005 18.5377 5.16326 18.7383 5.49945C19.3736 6.56389 19.0033 7.91682 17.9267 9.31174C16.7684 8.00996 15.1721 6.73611 13.2661 5.67167C12.8342 5.43047 12.4022 5.20508 11.9695 5.00155C12.4966 4.81383 13.0115 4.65603 13.5068 4.53449C13.4222 4.28771 13.3323 4.05381 13.2357 3.8329C13.2146 3.78438 13.1901 3.74315 13.1683 3.69603C12.7638 3.78578 12.3488 3.89444 11.929 4.02294C11.8087 3.70378 11.5786 3.42136 11.2508 3.2383C10.5094 2.82426 9.56143 3.06996 9.13348 3.78719C9.10944 3.82749 9.08765 3.87136 9.06778 3.91275C5.67855 2.95914 2.75285 3.29458 1.73393 5.00199C0.954066 6.30874 1.4516 8.15072 2.87045 10.0016C2.2148 10.8569 1.75874 11.71 1.53219 12.5096C1.02121 12.642 0.562619 12.9629 0.277247 13.4409C-0.293496 14.3972 0.0452332 15.6199 1.03368 16.1721C1.70218 16.5455 2.49676 16.5173 3.11751 16.1637C3.9422 16.5275 5.01146 16.6687 6.22665 16.5926C6.11273 16.3283 6.00874 16.0499 5.90907 15.7659C5.1092 15.8055 4.40067 15.7197 3.82861 15.4877C3.83871 15.4719 3.8472 15.4564 3.85697 15.4404C4.42772 14.4842 4.08899 13.2615 3.10054 12.7093C2.89432 12.5941 2.67414 12.5236 2.45272 12.4829C2.62705 11.9078 2.96657 11.3007 3.43927 10.6891C4.59758 11.991 6.19397 13.2649 8.09989 14.3293C8.5349 14.5724 8.97188 14.7919 9.40755 14.9966C8.87701 15.186 8.35754 15.3443 7.8594 15.4665C7.944 15.7132 8.03389 15.9471 8.13051 16.168C8.15166 16.2166 8.17618 16.2578 8.19797 16.3049C8.9969 16.1279 9.82799 15.8704 10.6758 15.5426C12.1622 16.1183 13.6077 16.4661 14.8979 16.575C14.9841 16.9798 15.2362 17.35 15.6353 17.573C16.3767 17.9871 17.3246 17.7414 17.7526 17.0242C17.8928 16.7892 17.9648 16.5305 17.9654 16.2772C18.7063 16.0112 19.2826 15.5852 19.6325 14.999C20.4131 13.6908 19.9113 11.8481 18.4889 9.9954C19.9085 8.14521 20.4141 6.30541 19.6344 4.99898C19.3668 4.55069 18.9638 4.1976 18.4597 3.937L18.459 3.93648ZM12.7496 6.53707C14.6363 7.59084 16.2251 8.79897 17.338 10.0016C17.0403 10.3227 16.708 10.6435 16.3452 10.9621C16.3232 11.4171 16.2888 11.8631 16.2369 12.2996C16.8718 11.7731 17.4327 11.2289 17.9215 10.6794C19.0025 12.0782 19.3739 13.4316 18.7371 14.4987C18.4928 14.9082 18.1339 15.2072 17.6855 15.4173C17.5594 15.2416 17.3889 15.0893 17.1848 14.9753C16.4434 14.5613 15.4954 14.807 15.0675 15.5242C15.0266 15.5927 15 15.6605 14.9715 15.7321C14.055 15.6329 13.037 15.3816 11.9608 14.9973C12.3963 14.7929 12.83 14.5706 13.2646 14.3278C13.4884 14.2027 13.7062 14.0766 13.9212 13.946C14.0095 13.5227 14.0792 13.0772 14.1377 12.615C13.6939 12.9037 13.2327 13.1902 12.7469 13.4615C12.0515 13.8498 11.3593 14.192 10.6794 14.4891C10.0002 14.1924 9.30958 13.8502 8.61644 13.4631C6.72988 12.4093 5.13685 11.2078 4.02432 10.0052C4.32459 9.68128 4.65466 9.35962 5.02113 9.03799C5.04308 8.58041 5.08122 8.1326 5.13345 7.69391C4.49589 8.22204 3.93491 8.76922 3.44477 9.32089C2.36383 7.92208 1.99244 6.56871 2.62918 5.50161C3.53977 3.9757 6.01537 3.89213 8.96257 4.85459C8.98693 4.96216 9.01416 5.0716 9.06224 5.17174C8.74193 5.32954 8.42114 5.49385 8.10164 5.67225C7.88021 5.79595 7.66179 5.91825 7.44903 6.04722C7.36058 6.47055 7.2912 6.91607 7.23256 7.37829C7.67433 7.09121 8.13609 6.80849 8.61921 6.53861C9.02588 6.31152 9.4348 6.099 9.83778 5.90262C10.3268 6.11529 10.8785 6.06429 11.3092 5.79566C11.7867 6.02197 12.2669 6.26736 12.7497 6.53709L12.7496 6.53707ZM14.7666 8.4212C14.8028 8.93445 14.8133 9.45913 14.8133 9.99842C14.8133 11.8928 14.5879 13.6509 14.1641 15.1008C14.4257 15.1527 14.6861 15.193 14.9305 15.2223C14.9824 15.2285 15.0306 15.2291 15.0816 15.2346C15.5666 13.7114 15.8477 11.9194 15.8477 9.99925C15.8477 9.75542 15.8507 9.51406 15.8421 9.27457C15.5077 8.98827 15.1508 8.70195 14.7666 8.4214L14.7666 8.4212ZM7.20177 4.89938C6.94011 4.84745 6.67971 4.80715 6.4352 4.77785C6.38328 4.77165 6.33505 4.77088 6.2841 4.76561C5.79909 6.28874 5.51802 8.0808 5.51802 10.0009C5.51802 10.2447 5.51498 10.4861 5.52363 10.7256C5.85803 11.0119 6.21489 11.2982 6.59911 11.5788C6.5629 11.0655 6.55233 10.5408 6.55233 10.0015C6.55233 8.10719 6.77777 6.34906 7.20175 4.89918L7.20177 4.89938ZM16.9266 15.4081C17.421 15.6842 17.5902 16.2955 17.3049 16.7737C17.0196 17.2518 16.3876 17.4156 15.8933 17.1397C15.3991 16.8636 15.2298 16.2523 15.515 15.7741C15.8004 15.2959 16.4323 15.1322 16.9266 15.4081ZM14.3597 17.0225C14.0683 16.9861 13.7659 16.941 13.4642 16.883C12.7683 18.2028 11.8228 18.9992 10.6818 18.9992C8.91055 18.9992 7.62632 17.08 6.99355 14.2607C6.59265 14.0124 6.20938 13.7549 5.84054 13.4905C6.57265 17.2893 8.46258 19.9996 10.6812 20C12.1204 20 13.423 18.8594 14.3598 17.0226L14.3597 17.0225ZM2.58389 13.5745C3.07821 13.8506 3.24742 14.4619 2.9622 14.94C2.67683 15.4182 2.04488 15.582 1.55056 15.3059C1.0564 15.0299 0.887029 14.4185 1.17225 13.9403C1.45762 13.4621 2.08956 13.2984 2.58372 13.5745L2.58389 13.5745Z" fill="currentColor"/>
    </symbol>

    <symbol id="химия" viewBox="0 0 18 20" xmlns="http://www.w3.org/2000/svg">
        <path d="M0.72863 18.5454C1.20747 19.4544 2.21293 19.9998 3.26615 19.9998L15.1404 20C16.1938 20 17.1992 19.4545 17.6779 18.5455C18.1567 17.6365 18.1088 16.5909 17.4863 15.7274L13.5124 10.1817V7.68163C13.5124 7.18168 13.0815 6.77259 12.5549 6.77259C12.0283 6.77259 11.5974 7.18168 11.5974 7.68163L11.5972 9.54521H6.80922L6.80938 1.81808H11.597V4.09075C11.597 4.5907 12.0279 4.99979 12.5545 4.99979C13.0811 4.99979 13.512 4.5907 13.512 4.09075L13.5122 1.81808H15.4274C15.954 1.81808 16.3849 1.40899 16.3849 0.909038C16.3849 0.40909 15.954 0 15.4274 0H2.97904C2.45243 0 2.02152 0.40909 2.02152 0.909038C2.02152 1.40899 2.45243 1.81808 2.97904 1.81808H4.89425V10.1818L0.872427 15.7271C0.297716 16.5908 0.202013 17.6362 0.72863 18.5453V18.5454Z" fill="currentColor"/>
    </symbol>

    <symbol id="гуманитарные" viewBox="0 0 15 20" xmlns="http://www.w3.org/2000/svg">
        <path d="M14.5873 5.86205V5.34481C14.5864 4.84203 14.3863 4.36022 14.0308 4.00475C13.6754 3.6493 13.1935 3.44916 12.6908 3.44826H11.8287V2.06894H12.5804C12.7466 2.06802 12.9057 2.00167 13.0231 1.88406C13.1407 1.7666 13.2071 1.60758 13.208 1.44134V0H1.48383V1.44134C1.48475 1.6076 1.5511 1.76662 1.66871 1.88406C1.78617 2.00167 1.94519 2.06802 2.11143 2.06894H2.86312V3.44826H2.00105C1.49827 3.44918 1.01645 3.6493 0.660985 4.00475C0.305537 4.3602 0.105399 4.84203 0.104492 5.34481V5.86205C0.104492 6.47797 0.433155 7.04723 0.966562 7.35514C1.49996 7.66317 2.1573 7.66317 2.6907 7.35514C3.2241 7.04725 3.55277 6.47797 3.55277 5.86205V5.51722C3.55277 5.3268 3.39837 5.1724 3.20794 5.1724C3.01752 5.1724 2.86312 5.3268 2.86312 5.51722V5.86205C2.86312 6.23166 2.66592 6.57311 2.34587 6.75797C2.02583 6.9427 1.63143 6.9427 1.31139 6.75797C0.991346 6.57309 0.794148 6.23167 0.794148 5.86205V5.34481C0.794148 5.02477 0.921305 4.71781 1.1476 4.49137C1.37405 4.26508 1.681 4.13792 2.00104 4.13792H4.24242V17.931H3.48041C3.31662 17.931 3.1596 17.996 3.04384 18.1118C2.92808 18.2275 2.86311 18.3845 2.86311 18.5483V20H11.8286V18.5483C11.8286 18.3845 11.7637 18.2275 11.6479 18.1118C11.5321 17.996 11.3751 17.931 11.2113 17.931H10.4493V4.13792H12.6907C13.0108 4.13792 13.3177 4.26508 13.5442 4.49137C13.7704 4.71782 13.8976 5.02477 13.8976 5.34481V5.86205C13.8976 6.23166 13.7004 6.57311 13.3804 6.75797C13.0603 6.9427 12.6659 6.9427 12.3459 6.75797C12.0258 6.57309 11.8286 6.23167 11.8286 5.86205V5.51722C11.8286 5.3268 11.6742 5.1724 11.4838 5.1724C11.2934 5.1724 11.139 5.3268 11.139 5.51722V5.86205C11.139 6.47797 11.4676 7.04723 12.001 7.35514C12.5344 7.66317 13.1918 7.66317 13.7252 7.35514C14.2586 7.04725 14.5873 6.47797 14.5873 5.86205H14.5873ZM5.96661 17.931H5.27696V4.13791H5.96661V17.931ZM7.69075 17.931H7.0011V4.13791H7.69075V17.931ZM9.41489 17.931H8.72524V4.13791H9.41489V17.931Z" fill="currentColor"/>
    </symbol>

    <svg id="мэнэджмент/экономика" viewBox="0 0 21 20" xmlns="http://www.w3.org/2000/svg">
        <path d="M20.5874 11.5V8.33333L17.5318 7.88889C17.3652 7.38889 17.1985 6.88889 16.9207 6.44445L18.8096 3.94444L16.5318 1.66667L14.0318 3.55556C13.5874 3.33333 13.0874 3.16667 12.5874 3L12.1985 0H9.03185L8.5874 3.05556C8.0874 3.22222 7.5874 3.38889 7.14296 3.61111L4.64296 1.72222L2.36518 3.94444L4.25407 6.44445C4.03185 6.88889 3.80962 7.38889 3.64296 7.88889L0.587402 8.33333V11.5L3.64296 11.9444C3.80962 12.4444 3.97629 12.9444 4.25407 13.3889L2.36518 15.8889L4.64296 18.1667L7.14296 16.2778C7.5874 16.5 8.0874 16.7778 8.5874 16.8889L9.03185 20H12.1985L12.643 16.8889C13.143 16.7222 13.643 16.5 14.0874 16.2778L16.5874 18.1111L18.8652 15.8333L16.9763 13.3333C17.1985 12.8889 17.4207 12.3889 17.5874 11.8889L20.5874 11.5ZM13.3652 11.6111C13.3652 12.8333 12.3652 13.8333 11.143 13.8333V15H10.0318V13.8333C8.80963 13.8333 7.80962 12.7778 7.80962 11.6667H8.92074C8.92074 12.2222 9.42074 12.7222 10.0318 12.7222V10.5C8.80963 10.5 7.80962 9.5 7.80962 8.27778C7.80962 7.05556 8.80963 6.05556 10.0318 6.05556V5H11.143V6.05556C12.3652 6.05556 13.3652 7.22222 13.3652 8.33333H12.2541C12.2541 7.77778 11.7541 7.16667 11.143 7.16667V9.38889C12.3652 9.38889 13.3652 10.3889 13.3652 11.6111Z" fill="currentColor"/>
        <path d="M11.1431 12.7228C11.7542 12.7228 12.2542 12.2228 12.2542 11.6117C12.2542 11.0006 11.7542 10.5006 11.1431 10.5006V12.7228Z" fill="currentColor"/>
        <path d="M8.9209 8.27835C8.9209 8.88946 9.4209 9.38946 10.032 9.38946V7.16724C9.4209 7.16724 8.9209 7.66724 8.9209 8.27835Z" fill="currentColor"/>
    </svg>

    <svg id="психология" viewBox="0 0 19 20" xmlns="http://www.w3.org/2000/svg">
        <path d="M13.528 4.82279C13.4054 4.77129 13.3221 4.65058 13.3142 4.51265C13.2821 3.87675 12.9788 3.28913 12.4873 2.91154C11.996 2.53396 11.3685 2.40623 10.7772 2.56313C10.6564 2.59423 10.5291 2.55436 10.4445 2.45933C9.8654 1.79885 9.04637 1.42416 8.18867 1.42702C7.08703 1.42941 6.07018 2.04426 5.51983 3.04037C5.45583 3.15645 5.33516 3.22533 5.20715 3.21896L5.15965 3.21609C5.14346 3.2129 5.12666 3.2129 5.10924 3.2129C4.57309 3.21593 4.05911 3.43693 3.67628 3.82888C3.29349 4.22082 3.07201 4.75293 3.05872 5.31246C3.05688 5.4059 3.01992 5.49488 2.95607 5.56025C2.4772 6.04883 2.16422 6.6871 2.06431 7.37819C1.96441 8.06944 2.08309 8.77564 2.40234 9.39003C2.47016 9.51982 2.45427 9.67992 2.36232 9.79249C2.14878 10.0478 2.0307 10.3748 2.02979 10.7136C2.0304 11.0428 2.13961 11.3617 2.33895 11.6166C2.53844 11.8716 2.81582 12.047 3.1247 12.1135C3.28402 12.1473 3.39843 12.2937 3.39843 12.4635V14.2854H4.4249V9.9993C4.42551 9.75581 4.46599 9.51423 4.54466 9.28494H4.4249C4.4249 8.90608 4.28071 8.54266 4.02409 8.27463C3.76732 8.00675 3.41919 7.85622 3.05627 7.85622V7.14186C3.47495 7.1425 3.88355 7.2766 4.22723 7.52647C4.57077 7.77634 4.83287 8.13 4.97845 8.5398C5.36552 8.10433 5.90869 7.85655 6.47785 7.85622C6.78732 7.85558 7.08732 7.74556 7.32914 7.54401C7.57094 7.34246 7.7402 7.06135 7.80922 6.74642C7.33919 6.65377 6.91488 6.39274 6.60951 6.00846C6.30402 5.62433 6.13644 5.14086 6.13569 4.64163H6.82001C6.82062 4.96469 6.92602 5.27786 7.11909 5.53029C7.31217 5.78271 7.58145 5.9594 7.88314 6.03144C7.96013 5.6081 8.15748 5.21855 8.44936 4.91382C8.74127 4.6091 9.11444 4.40307 9.51999 4.32274C9.45095 4.00782 9.2817 3.72668 9.03991 3.52515C8.79811 3.3236 8.49813 3.21357 8.18862 3.21294V2.49858C8.67804 2.49922 9.15108 2.68227 9.52273 3.01475C9.89421 3.34738 10.1397 3.80757 10.2148 4.3124C10.6984 4.39085 11.1393 4.64709 11.4579 5.03488C11.7764 5.42283 11.9517 5.91668 11.9524 6.42755C11.9524 6.80641 12.0966 7.16983 12.3532 7.43786C12.6099 7.70574 12.9581 7.85627 13.321 7.85627V8.57063C12.9008 8.57015 12.4908 8.43493 12.1465 8.18347C11.8022 7.93201 11.5401 7.57626 11.3958 7.16439C11.0747 7.21764 10.7823 7.38826 10.5709 7.64594C10.3593 7.90362 10.2426 8.23131 10.2416 8.57061H9.55726C9.55787 8.06435 9.73017 7.57451 10.0436 7.18814C10.3571 6.80178 10.7915 6.54363 11.2697 6.45974C11.2681 6.44858 11.2681 6.43821 11.2681 6.42753C11.2681 5.91711 11.0072 5.44543 10.5837 5.19018C10.1603 4.93505 9.63852 4.93505 9.2151 5.19018C8.79168 5.44547 8.53078 5.91715 8.53078 6.42753C8.53017 6.99567 8.31373 7.54054 7.92894 7.94234C7.54401 8.344 7.02208 8.56995 6.47783 8.57061C6.1149 8.57061 5.76677 8.72113 5.51001 8.98902C5.2534 9.25706 5.1092 9.62047 5.1092 9.99932V14.2855H6.13567V11.1287C6.13567 10.9868 6.21633 10.8583 6.34097 10.8015C6.88721 10.5522 7.35216 10.1427 7.67981 9.62285C7.73113 9.54169 7.81178 9.48588 7.90328 9.46818C7.99493 9.45048 8.08932 9.47264 8.16494 9.52925C8.60395 9.848 9.13139 10.007 9.66554 9.98179C10.1997 9.95643 10.7111 9.74818 11.1206 9.38924C11.2279 9.29245 11.3812 9.27491 11.5062 9.34491C12.0866 9.67339 12.7711 9.73701 13.3981 9.52111C14.025 9.30505 14.5387 8.82859 14.818 8.20399C15.097 7.5794 15.1169 6.86235 14.8726 6.22196C14.6285 5.58173 14.142 5.07498 13.528 4.82161L13.528 4.82279Z" fill="currentColor"/>
        <path d="M15.8189 5.01954C15.1077 3.27079 13.8396 1.83235 12.229 0.947692C10.6184 0.0630304 8.76434 -0.213283 6.9809 0.165245C5.19757 0.54379 3.59415 1.55408 2.44251 3.02521C1.29078 4.49618 0.661446 6.33759 0.661133 8.23717V20H8.18862V18.2141C8.18862 18.0169 8.34183 17.8569 8.53078 17.8569H14.0053C14.6403 17.8561 15.2492 17.5925 15.6981 17.1237C16.1471 16.6551 16.3996 16.0195 16.4004 15.3567V11.4277C16.4004 11.2305 16.5536 11.0705 16.7426 11.0705H18.2785L15.8189 5.01954ZM12.6369 10.3564C12.207 10.3561 11.7821 10.2622 11.3891 10.0807C10.91 10.4431 10.3423 10.6564 9.75191 10.6955C9.16136 10.7348 8.57254 10.5983 8.05332 10.3022C7.7191 10.7415 7.29858 11.1009 6.82018 11.3565V14.6425C6.82018 14.7372 6.78413 14.8281 6.71998 14.8951C6.65582 14.9621 6.56875 14.9997 6.47802 14.9997H3.05644C2.86749 14.9997 2.71428 14.8398 2.71428 14.6425V12.7345C2.31452 12.5857 1.96873 12.3118 1.7237 11.95C1.47869 11.5883 1.34672 11.1565 1.34564 10.7136C1.34717 10.2885 1.47075 9.87372 1.70048 9.52274C1.46693 9.00102 1.3458 8.43206 1.34564 7.85613C1.3429 6.84884 1.71392 5.87968 2.381 5.15193C2.43263 4.4457 2.73217 3.78412 3.22235 3.29444C3.71252 2.80475 4.35867 2.52126 5.03685 2.49844C5.6489 1.51299 6.65219 0.865945 7.77044 0.735646C8.88858 0.605212 10.0038 1.00529 10.8091 1.82551C11.5389 1.69412 12.2885 1.87797 12.8858 2.33483C13.4831 2.79181 13.8769 3.48258 13.9768 4.24862C14.8192 4.67454 15.4303 5.47739 15.6375 6.43027C15.8447 7.38318 15.6254 8.38279 15.0416 9.14658C14.4578 9.91038 13.5729 10.3556 12.6369 10.3564Z" fill="currentColor"/>
    </svg>

    <svg id="математика/It" viewBox="0 0 21 20" xmlns="http://www.w3.org/2000/svg">
        <path d="M3.91943 3.75024H16.4193V16.2501H3.91943V3.75024Z" fill="currentColor"/>
        <path d="M4.61816 1.8252H5.88893V3.09596H4.61816V1.8252Z" fill="currentColor"/>
        <path d="M5.00342 0.00671387H5.50369V1.54806H5.00342V0.00671387Z" fill="currentColor"/>
        <path d="M6.69141 1.82202H7.96217V3.09279H6.69141V1.82202Z" fill="currentColor"/>
        <path d="M7.07715 0.00317383H7.57742V1.54452H7.07715V0.00317383Z" fill="currentColor"/>
        <path d="M8.66943 1.82202H9.9402V3.09279H8.66943V1.82202Z" fill="currentColor"/>
        <path d="M9.05469 0.00317383H9.55496V1.54452H9.05469V0.00317383Z" fill="currentColor"/>
        <path d="M10.5518 1.81836H11.8225V3.08912H10.5518V1.81836Z" fill="currentColor"/>
        <path d="M10.9375 0H11.4379V1.54134H10.9375V0Z" fill="currentColor"/>
        <path d="M12.4341 1.82202H13.7048V3.09279H12.4341V1.82202Z" fill="currentColor"/>
        <path d="M12.8198 0.00317383H13.3202V1.54452H12.8198V0.00317383Z" fill="currentColor"/>
        <path d="M14.2524 1.82202H15.5232V3.09279H14.2524V1.82202Z" fill="currentColor"/>
        <path d="M14.6377 0.00317383H15.1381V1.54452H14.6377V0.00317383Z" fill="currentColor"/>
        <path d="M4.61816 16.9037H5.88893V18.1745H4.61816V16.9037Z" fill="currentColor"/>
        <path d="M5.00342 18.4523H5.50369V19.9936H5.00342V18.4523Z" fill="currentColor"/>
        <path d="M6.69141 16.9072H7.96217V18.178H6.69141V16.9072Z" fill="currentColor"/>
        <path d="M7.07715 18.4554H7.57742V19.9968H7.07715V18.4554Z" fill="currentColor"/>
        <path d="M6.69141 16.9072H7.96217V18.178H6.69141V16.9072Z" fill="currentColor"/>
        <path d="M7.07715 18.4554H7.57742V19.9968H7.07715V18.4554Z" fill="currentColor"/>
        <path d="M8.66943 16.9072H9.9402V18.178H8.66943V16.9072Z" fill="currentColor"/>
        <path d="M9.05469 18.4554H9.55496V19.9968H9.05469V18.4554Z" fill="currentColor"/>
        <path d="M10.5518 16.9109H11.8225V18.1817H10.5518V16.9109Z" fill="currentColor"/>
        <path d="M10.9375 18.4586H11.4379V20H10.9375V18.4586Z" fill="currentColor"/>
        <path d="M12.4341 16.9072H13.7048V18.178H12.4341V16.9072Z" fill="currentColor"/>
        <path d="M12.8198 18.4554H13.3202V19.9968H12.8198V18.4554Z" fill="currentColor"/>
        <path d="M14.2524 16.9072H15.5232V18.178H14.2524V16.9072Z" fill="currentColor"/>
        <path d="M14.6377 18.4554H15.1381V19.9968H14.6377V18.4554Z" fill="currentColor"/>
        <path d="M16.9639 14.2466H18.2348V15.5173H16.9639V14.2466Z" fill="currentColor"/>
        <path d="M18.5117 14.6317H20.0531V15.1316H18.5117V14.6317Z" fill="currentColor"/>
        <path d="M16.9673 12.173H18.238V13.4434H16.9673V12.173Z" fill="currentColor"/>
        <path d="M18.5156 12.5581H20.057V13.058H18.5156V12.5581Z" fill="currentColor"/>
        <path d="M16.9673 10.1954H18.238V11.4662H16.9673V10.1954Z" fill="currentColor"/>
        <path d="M18.5156 10.5801H20.057V11.0804H18.5156V10.5801Z" fill="currentColor"/>
        <path d="M16.9707 8.31274H18.2415V9.58351H16.9707V8.31274Z" fill="currentColor"/>
        <path d="M18.5181 8.69788H20.0594V9.19815H18.5181V8.69788Z" fill="currentColor"/>
        <path d="M16.9673 6.43054H18.238V7.70131H16.9673V6.43054Z" fill="currentColor"/>
        <path d="M18.5156 6.81567H20.057V7.31595H18.5156V6.81567Z" fill="currentColor"/>
        <path d="M16.9673 4.61255H18.238V5.88331H16.9673V4.61255Z" fill="currentColor"/>
        <path d="M18.5156 4.99719H20.057V5.49747H18.5156V4.99719Z" fill="currentColor"/>
        <path d="M2.10303 14.2466H3.37379V15.5173H2.10303V14.2466Z" fill="currentColor"/>
        <path d="M0.284668 14.6317H1.82601V15.1316H0.284668V14.6317Z" fill="currentColor"/>
        <path d="M2.1001 12.173H3.37086V13.4434H2.1001V12.173Z" fill="currentColor"/>
        <path d="M0.28125 12.5581H1.82259V13.058H0.28125V12.5581Z" fill="currentColor"/>
        <path d="M2.1001 10.1954H3.37086V11.4662H2.1001V10.1954Z" fill="currentColor"/>
        <path d="M0.28125 10.5801H1.82259V11.0804H0.28125V10.5801Z" fill="currentColor"/>
        <path d="M2.09668 8.31274H3.36744V9.58351H2.09668V8.31274Z" fill="currentColor"/>
        <path d="M0.27832 8.69788H1.81966V9.19815H0.27832V8.69788Z" fill="currentColor"/>
        <path d="M2.1001 6.43054H3.37086V7.70131H2.1001V6.43054Z" fill="currentColor"/>
        <path d="M0.28125 6.81567H1.82259V7.31595H0.28125V6.81567Z" fill="currentColor"/>
        <path d="M2.1001 4.61255H3.37086V5.88331H2.1001V4.61255Z" fill="currentColor"/>
        <path d="M0.28125 4.99719H1.82259V5.49747H0.28125V4.99719Z" fill="currentColor"/>
    </svg>

    <svg id="медицина" viewBox="0 0 15 20" xmlns="http://www.w3.org/2000/svg">
        <path d="M10.6385 9.0708C9.6012 8.82975 8.15178 8.77793 6.19352 8.77793H6.19286C4.02115 8.77793 2.25278 7.39081 2.23249 5.68023C2.24312 4.51787 2.77935 3.45749 3.67294 2.8382C4.92269 1.97171 6.09683 1.95261 8.31438 2.78288C8.87621 2.99336 9.95484 3.18739 10.108 2.60746C10.3976 1.50987 9.63839 0.958541 9.07673 0.74803C5.39513 -0.630965 3.73316 0.152645 2.43522 1.05236C0.97117 2.06754 0.0882159 3.77161 0.0603179 5.62534C0.0593211 5.66488 0.0593211 5.70392 0.0603179 5.74362C0.0880602 7.16246 0.748071 8.48064 1.92672 9.46477C3.07445 10.4228 4.58983 10.9506 6.19307 10.9506C7.77688 10.9506 9.27282 10.9506 10.2535 11.1785C11.1971 11.398 11.1971 11.6845 11.1971 11.9146C11.1971 12.1083 11.1487 12.1485 11.1386 12.1661C11.0555 12.3077 10.8721 12.3753 10.0987 12.4552C9.41359 12.5261 8.51303 12.512 7.55931 12.4974L6.19312 12.4836C6.07201 12.4836 5.83944 12.4685 5.7308 12.505C3.69531 12.8109 3.06518 14.3423 3.06518 15.6439C3.06518 17.416 3.87069 18.0743 6.63565 18.8039C6.90211 18.8744 6.97471 18.8734 7.23733 18.9127C7.90348 18.9795 8.08508 19.6025 7.35561 20C8.3801 19.9279 8.72461 19.5003 8.76914 18.88C8.81499 18.2395 8.6703 17.9072 8.15049 17.4984C7.6488 17.1037 7.278 17.0047 6.27996 16.7038C5.5419 16.4812 5.23753 16.1888 5.23753 15.6444C5.23753 15.38 5.23853 14.6867 6.55257 14.6585C6.88331 14.661 7.20893 14.6658 7.52636 14.6706C7.9322 14.6769 8.3229 14.6831 8.69718 14.6831C10.4352 14.6831 11.812 14.5535 12.6635 13.7152C12.9858 13.3976 13.3702 12.8276 13.3702 11.9156C13.3696 10.8923 12.8071 9.57564 10.6385 9.07092L10.6385 9.0708Z" fill="currentColor"/>
        <path d="M4.5249 4.20947C4.5249 6.1611 6.71604 7.74308 9.41938 7.74308C12.1224 7.74308 14.3139 6.1611 14.3139 4.20947H4.5249Z" fill="currentColor"/>
    </svg>

    <svg id="биология/генетика" viewBox="0 0 21 20" xmlns="http://www.w3.org/2000/svg">
        <path d="M0.313477 17.3333V19.3333C0.313477 19.5101 0.383717 19.6797 0.508717 19.8047C0.633717 19.9297 0.803364 20 0.980151 20H19.647C19.8238 20 19.9935 19.9297 20.1185 19.8047C20.2435 19.6797 20.3137 19.5101 20.3137 19.3333V17.3333H0.313477Z" fill="currentColor"/>
        <path d="M9.64675 12.6666V8.8334C9.2841 8.94679 8.90655 9.00512 8.52681 9.00676C7.91564 9.00512 7.31476 8.84932 6.78005 8.55335C6.17604 8.22983 5.68213 7.73353 5.36159 7.12788C5.0409 6.52224 4.90818 5.83487 4.98003 5.1533C5.00339 4.95315 5.11619 4.77413 5.28673 4.66671C5.85222 4.26895 6.51756 4.0371 7.20774 3.99706C7.89792 3.95688 8.58574 4.11046 9.19348 4.44008C9.63573 4.68398 10.0183 5.02328 10.3134 5.43338C10.6093 5.0258 10.9917 4.68873 11.4334 4.44678C12.0405 4.11612 12.7278 3.96152 13.4181 4.00034C14.1082 4.03933 14.774 4.26998 15.3401 4.66671C15.5014 4.77698 15.6062 4.95243 15.6269 5.14679C15.7019 5.82463 15.5739 6.50959 15.2594 7.11481C14.945 7.72019 14.458 8.21841 13.8602 8.54683C13.3254 8.84267 12.7246 8.99861 12.1134 9.00009C11.7286 8.99861 11.3464 8.93789 10.9801 8.82003V12.6669C14.0334 12.8336 16.4133 14.1936 16.9002 16.0003H18.9803V8.66689C18.9803 6.36834 18.0671 4.16397 16.4418 2.53843C14.8165 0.913116 12.6121 0 10.3134 0C8.01468 0 5.81046 0.913116 4.18492 2.53843C2.5596 4.16375 1.64648 6.36819 1.64648 8.66689V16.0003H3.7398C4.21989 14.2202 6.59325 12.8669 9.64654 12.6669L9.64675 12.6666Z" fill="currentColor"/>
        <path d="M8.55354 5.61315C7.85266 5.24321 7.0144 5.24321 6.31348 5.61315C6.33565 6.35689 6.75234 7.03252 7.40679 7.38639C8.10767 7.75634 8.94593 7.75634 9.64685 7.38639C9.62468 6.64265 9.20799 5.96702 8.55354 5.61315Z" fill="currentColor"/>
        <path d="M14.3138 5.61315C13.613 5.24321 12.7747 5.24321 12.0738 5.61315C11.4193 5.96703 11.0026 6.64261 10.9805 7.38639C11.6814 7.75634 12.5196 7.75634 13.2205 7.38639C13.875 7.03252 14.2917 6.35693 14.3138 5.61315Z" fill="currentColor"/>
        <path d="M5.18018 15.9999H15.447C14.847 14.9599 12.9069 13.9999 10.3136 13.9999C7.72024 13.9999 5.78018 14.9599 5.18018 15.9999Z" fill="currentColor"/>
    </svg>

    <svg id="искусство" viewBox="0 0 21 20" xmlns="http://www.w3.org/2000/svg">
        <path d="M20.0621 4.18302C21.1297 8.03301 20.2436 11.5171 18.0328 14.735C17.6396 15.3065 17.071 15.6846 16.3696 15.8207C15.1962 16.0475 14.2616 15.5819 13.4603 14.7834C12.8283 14.1513 12.0964 13.9426 11.2224 14.0968C10.6872 14.1905 10.1669 14.3266 9.68902 14.5717C9.3502 14.7441 9.19304 14.7321 9.02359 14.3511C8.32804 12.7876 7.59915 11.2361 6.8702 9.6876C6.73707 9.40638 6.74933 9.18867 6.89741 8.91334C8.23116 6.41819 9.94884 4.23172 12.1356 2.43539C13.2607 1.51306 14.4763 0.759888 16.0096 0.759888C17.818 0.768959 19.5085 2.18119 20.0621 4.18326L20.0621 4.18302ZM15.9005 5.84334C16.575 5.8404 17.1585 5.26865 17.1767 4.59445C17.1948 3.86556 16.6444 3.30921 15.9064 3.30921C15.1775 3.30921 14.6575 3.81428 14.6484 4.53413C14.6364 5.27187 15.1868 5.84654 15.9005 5.84334ZM16.1062 9.12179C16.1092 9.67834 16.6204 10.1772 17.1889 10.1682C17.7575 10.1591 18.2564 9.64794 18.2383 9.09166C18.2201 8.56233 17.709 8.06634 17.1857 8.06634C16.6174 8.06634 16.1033 8.56821 16.1062 9.12179ZM10.6503 6.92013C10.6714 7.50389 11.11 7.90918 11.712 7.90302C12.3168 7.8969 12.7554 7.42812 12.7311 6.81738C12.7069 6.2427 12.2562 5.82539 11.6695 5.83744C11.0556 5.84945 10.6293 6.30303 10.6503 6.92013Z" fill="currentColor"/>
        <path d="M9.15676 17.995C9.15971 17.8709 9.09939 17.6018 8.97827 17.3448C7.62023 14.4143 6.26539 11.4837 4.91671 8.5471C4.75342 8.19013 4.59308 7.9604 4.17282 8.23867C3.85532 8.44731 3.30491 8.31418 3.15069 8.68636C3.00555 9.04014 3.26862 9.45742 3.36228 9.84161C4.08213 12.7599 4.80782 15.6755 5.5458 18.591C5.77553 19.5013 6.65278 20.1033 7.52364 19.9853C8.50334 19.849 9.15676 19.1201 9.15676 17.995Z" fill="currentColor"/>
        <path d="M2.58469 7.28291C3.0716 7.23755 3.63725 7.11055 4.13002 6.78986C4.8557 6.31815 5.11291 5.5711 4.79833 4.75145C4.10572 2.96122 2.93234 1.51537 1.4686 0.296605C1.19033 0.0636914 0.836563 -0.151083 0.500897 0.142392C0.201541 0.40252 0.313337 0.756306 0.473683 1.07702C0.95153 2.03563 0.8971 3.05486 0.782115 4.07108C0.70047 4.78183 0.773043 5.46835 0.978744 6.13962C1.20553 6.87466 1.77119 7.27676 2.58469 7.28291Z" fill="currentColor"/>
    </svg>

    <svg id="социология" viewBox="0 0 21 20" xmlns="http://www.w3.org/2000/svg">
        <path d="M15.0246 14.7181L12.3913 13.0544C12.469 12.8415 12.5133 12.6122 12.5133 12.3721C12.5133 11.3815 11.7923 10.5611 10.8467 10.4022V7.66675H10.18V10.402C9.23432 10.561 8.51333 11.3813 8.51333 12.372C8.51333 12.6287 8.56333 12.8733 8.65172 13.0989L6.00635 14.7156L6.35397 15.2847L8.99458 13.671C9.36124 14.0997 9.90528 14.372 10.5136 14.372C11.1386 14.372 11.6964 14.085 12.063 13.636L14.6687 15.282L15.0246 14.7181ZM10.9134 12.7257H10.1134V11.9257H10.9134V12.7257Z" fill="currentColor"/>
        <path d="M8.84652 4.33333C8.11021 4.33333 7.51318 4.93036 7.51318 5.66667V7H13.5132V5.66667C13.5132 4.93036 12.9162 4.33333 12.1799 4.33333H11.5132V3.72933C12.1099 3.38306 12.5132 2.73825 12.5132 2C12.5132 0.897029 11.6162 0 10.5132 0C9.41021 0 8.51318 0.897029 8.51318 2C8.51318 2.7384 8.91646 3.38305 9.51318 3.72933V4.33333H8.84652ZM10.8465 4.33333H10.1799V3.96994C10.2885 3.98824 10.3995 4 10.5132 4C10.6269 4 10.7379 3.98839 10.8465 3.96994V4.33333ZM9.17985 2C9.17985 1.9744 9.1858 1.95059 9.18759 1.9253C9.21289 1.92664 9.23789 1.93006 9.26318 1.93006C9.7532 1.93006 10.1998 1.72679 10.5132 1.40343C10.8266 1.7268 11.2731 1.93006 11.7631 1.93006C11.7884 1.93006 11.8134 1.92679 11.8387 1.92545C11.8405 1.9506 11.8465 1.97441 11.8465 2C11.8465 2.73528 11.2484 3.33333 10.5131 3.33333C9.77787 3.33333 9.17985 2.73528 9.17985 2Z" fill="currentColor"/>
        <path d="M19.1799 17.3333H18.5132V16.7293C19.1099 16.3831 19.5132 15.7382 19.5132 15C19.5132 13.897 18.6162 13 17.5132 13C16.4102 13 15.5132 13.897 15.5132 15C15.5132 15.7384 15.9165 16.383 16.5132 16.7293V17.3333H15.8465C15.1102 17.3333 14.5132 17.9304 14.5132 18.6667V20H20.5132V18.6667C20.5132 17.9304 19.9162 17.3333 19.1799 17.3333ZM17.8465 17.3333H17.1799V16.9699C17.2885 16.9882 17.3995 17 17.5132 17C17.6269 17 17.7379 16.9884 17.8465 16.9699V17.3333ZM17.5132 16.3333C16.7779 16.3333 16.1799 15.7353 16.1799 15C16.1799 14.9744 16.1858 14.9506 16.1876 14.9253C16.2129 14.9263 16.2379 14.9299 16.2632 14.9299C16.7532 14.9299 17.1998 14.7266 17.5132 14.4033C17.8266 14.7266 18.2731 14.9299 18.7631 14.9299C18.7884 14.9299 18.8134 14.9266 18.8387 14.9253C18.8405 14.9506 18.8465 14.9744 18.8465 15C18.8465 15.7353 18.2485 16.3333 17.5132 16.3333Z" fill="currentColor"/>
        <path d="M5.17985 17.3333H4.51318V16.7293C5.10991 16.3831 5.51318 15.7382 5.51318 15C5.51318 13.897 4.61616 13 3.51318 13C2.41021 13 1.51318 13.897 1.51318 15C1.51318 15.7384 1.91646 16.383 2.51318 16.7293V17.3333H1.84652C1.11021 17.3333 0.513184 17.9304 0.513184 18.6667V20H6.51318V18.6667C6.51318 17.9304 5.91616 17.3333 5.17985 17.3333ZM3.84652 17.3333H3.17985V16.9699C3.28848 16.9882 3.39949 17 3.51318 17C3.62688 17 3.73788 16.9884 3.84652 16.9699V17.3333ZM3.51318 16.3333C2.77791 16.3333 2.17985 15.7353 2.17985 15C2.17985 14.9744 2.1858 14.9506 2.18759 14.9253C2.21289 14.9266 2.23789 14.9301 2.26318 14.9301C2.7532 14.9301 3.19979 14.7268 3.51317 14.4034C3.82656 14.7268 4.27313 14.9301 4.76315 14.9301C4.78844 14.9301 4.81344 14.9268 4.83874 14.9254C4.84053 14.9506 4.84648 14.9744 4.84648 15C4.84648 15.7353 4.24846 16.3333 3.51318 16.3333Z" fill="currentColor"/>
    </svg>

    <symbol id="plus" viewBox="0 0 23 23" xmlns="http://www.w3.org/2000/svg">
        <line x1="12" y1="1" x2="12" y2="22" stroke="currentColor" stroke-width="2" stroke-linecap="round"/>
        <line x1="22" y1="12" x2="1" y2="12" stroke="currentColor" stroke-width="2" stroke-linecap="round"/>
    </symbol>

    <symbol id="help" viewBox="0 0 22 22" xmlns="http://www.w3.org/2000/svg">
        <path d="M4.88883 11.6111V6.72223H3.0555C2.56927 6.72223 2.10296 6.91538 1.75914 7.2592C1.41532 7.60302 1.22217 8.06933 1.22217 8.55556V19.5556C1.22308 19.6691 1.25558 19.7801 1.31602 19.8761C1.37646 19.9722 1.46247 20.0495 1.56439 20.0995C1.66258 20.1441 1.77085 20.162 1.87818 20.1512C1.98551 20.1405 2.0881 20.1016 2.1755 20.0383L5.32272 17.7222H13.5361C13.7677 17.7291 13.9982 17.6883 14.2134 17.6024C14.4287 17.5165 14.624 17.3874 14.7872 17.223C14.9505 17.0586 15.0783 16.8624 15.1627 16.6465C15.247 16.4307 15.2862 16.1999 15.2777 15.9683V15.2778H8.5555C7.58304 15.2778 6.65041 14.8915 5.96278 14.2038C5.27514 13.5162 4.88883 12.5836 4.88883 11.6111Z" fill="currentColor"/>
        <path d="M18.9444 2.44446H8.5555C8.06927 2.44446 7.60296 2.63761 7.25914 2.98143C6.91532 3.32525 6.72217 3.79156 6.72217 4.27779V11.6111C6.72217 12.0974 6.91532 12.5637 7.25914 12.9075C7.60296 13.2513 8.06927 13.4445 8.5555 13.4445H16.8361L19.7572 15.7117C19.844 15.7759 19.9463 15.8159 20.0537 15.8277C20.161 15.8395 20.2696 15.8227 20.3683 15.7789C20.4723 15.7294 20.5602 15.6515 20.6218 15.5541C20.6834 15.4568 20.7163 15.3441 20.7166 15.2289V4.27779C20.7169 3.80197 20.5321 3.34468 20.2014 3.00257C19.8707 2.66045 19.42 2.46032 18.9444 2.44446Z" fill="currentColor"/>
    </symbol>

    <symbol id="burger" viewBox="0 0 15 15" xmlns="http://www.w3.org/2000/svg">
        <path d="M1 1H14M1 7.5H14M1 14H14" stroke="currentColor" stroke-width="2" stroke-linecap="round"/>
    </symbol>

    <symbol id="bigMagnifier" viewBox="0 0 153 148" xmlns="http://www.w3.org/2000/svg">
        <circle cx="59.5" cy="59.5" r="58" stroke="currentColor" stroke-width="3"/>
        <line x1="102.061" y1="97.9393" x2="151.061" y2="146.939" stroke="currentColor" stroke-width="3"/>
    </symbol>

    <symbol id="watch" viewBox="0 0 20 20" xmlns="http://www.w3.org/2000/svg">
        <path fill-rule="evenodd" clip-rule="evenodd" d="M10 20C15.5227 20 20 15.5227 20 10C20 4.47727 15.5227 0 10 0C4.47727 0 0 4.47727 0 10C0 15.5227 4.47727 20 10 20ZM10.381 3.07702H9.61899C9.40458 3.07702 9.23073 3.25215 9.23073 3.46898V10.3771C9.23073 10.5936 9.40828 10.7692 9.61577 10.7692H14.9996C15.2123 10.7692 15.3847 10.6046 15.3847 10.381V9.61896C15.3847 9.40455 15.2094 9.23071 15.0069 9.23071H10.7694V3.46196C10.7694 3.24949 10.6048 3.07709 10.3812 3.07709L10.381 3.07702Z" fill="currentColor"/>
    </symbol>

    <symbol id="exchange" viewBox="0 0 20 20" xmlns="http://www.w3.org/2000/svg">
        <path d="M14.7752 0.0999756L10.3799 2.27812L12.5579 6.67169L13.6781 6.11701L12.3907 3.52019C13.7007 4.00151 14.8338 4.86912 15.64 6.00819C16.4464 7.1473 16.8879 8.5043 16.9063 9.89962V9.99965H18.1563V9.88399C18.1351 8.25928 17.6285 6.67792 16.7011 5.34364C15.774 4.00924 14.4686 2.98285 12.9533 2.39649L15.3283 1.21835L14.7752 0.0999756Z" fill="currentColor"/>
        <path d="M5.2185 19.9L9.61207 17.7219L7.43561 13.3283L6.31536 13.883L7.6075 16.4893C6.34929 16.031 5.25218 15.2151 4.45111 14.142C3.65004 13.0689 3.17975 11.7852 3.09814 10.4485V10.3187L1.84814 10.3749C1.84814 10.4266 1.84814 10.478 1.85596 10.5312V10.5313C1.94957 12.0828 2.48724 13.5746 3.40464 14.8292C4.32217 16.0838 5.58085 17.0484 7.03106 17.6079L4.66696 18.7798L5.2185 19.9Z" fill="currentColor"/>
        <path d="M0 0H9.375V9.375H0V0Z" fill="currentColor"/>
        <path d="M20 15.3125C20 17.9014 17.9014 20 15.3125 20C12.7236 20 10.625 17.9014 10.625 15.3125C10.625 12.7236 12.7236 10.625 15.3125 10.625C17.9014 10.625 20 12.7236 20 15.3125Z" fill="currentColor"/>
    </symbol>

    <symbol id="bigPlus" viewBox="0 0 139 139" xmlns="http://www.w3.org/2000/svg">
        <line x1="71.5" y1="6.55671e-08" x2="71.5" y2="139" stroke="currentColor" stroke-width="3"/>
        <line x1="139" y1="71" x2="-1.31134e-07" y2="71" stroke="currentColor" stroke-width="3"/>
    </symbol>

    <symbol id="sett" viewBox="0 0 20 20" xmlns="http://www.w3.org/2000/svg">
        <path fill-rule="evenodd" clip-rule="evenodd" d="M16.1616 2.02011C15.9306 1.84723 15.5845 1.84723 15.3535 2.04901L14.4009 2.88577C14.1991 3.08801 13.7951 3.11691 13.5352 3.00118L12.4096 2.53955C12.1501 2.45303 11.8902 2.13552 11.8902 1.84722L11.8326 0.577042C11.8037 0.288746 11.5727 0.0288621 11.2839 0H8.71562C8.42701 0.0288923 8.19634 0.288766 8.16712 0.577042L8.10933 1.84722C8.0806 2.13551 7.84993 2.453 7.59005 2.53955L6.4645 3.00118C6.20462 3.11691 5.82932 3.08802 5.59867 2.88577L4.64617 2.04901C4.44423 1.84723 4.06912 1.84723 3.8381 2.02011C3.8381 2.02011 3.28992 2.42414 2.85702 2.85704C2.42413 3.28993 2.02009 3.83843 2.02009 3.83843C1.84674 4.0691 1.84674 4.41547 2.04898 4.64649L2.88575 5.5987C3.08768 5.80094 3.11689 6.20496 3.00117 6.46452L2.53953 7.59006C2.45301 7.84994 2.13549 8.10982 1.84675 8.10982L0.577047 8.16745C0.288278 8.19634 0.0284202 8.42701 0 8.71563V11.2844C0.0284214 11.5727 0.288298 11.8036 0.577047 11.8325L1.84675 11.8902C2.13552 11.9191 2.45302 12.15 2.53953 12.4099L3.00117 13.5355C3.11689 13.795 3.08768 14.1702 2.88575 14.4013L2.04898 15.3535C1.84674 15.5557 1.84674 15.9309 2.02009 16.1616C2.02009 16.1616 2.42413 16.7102 2.85702 17.143C3.28996 17.5759 3.8381 17.9799 3.8381 17.9799C4.06908 18.1529 4.41547 18.1529 4.64617 17.951L5.59867 17.1142C5.8006 16.912 6.20462 16.8831 6.4645 16.9985L7.59005 17.4605C7.84993 17.547 8.10933 17.8645 8.10933 18.1529L8.16712 19.423C8.19585 19.7113 8.42699 19.9711 8.71562 20H11.2839C11.5727 19.9711 11.8037 19.7112 11.8326 19.423L11.8902 18.1529C11.9191 17.8645 12.1501 17.547 12.4096 17.4605L13.5352 16.9985C13.7951 16.8831 14.1702 16.912 14.4009 17.1142L15.3535 17.951C15.5553 18.1529 15.9306 18.1529 16.1616 17.9799C16.1616 17.9799 16.7102 17.5758 17.143 17.143C17.5759 16.7102 17.9799 16.1616 17.9799 16.1616C18.153 15.9309 18.153 15.5845 17.951 15.3535L17.1138 14.4013C16.912 14.199 16.8831 13.795 16.9985 13.5355L17.4601 12.4099C17.547 12.1501 17.8642 11.8902 18.1529 11.8902L19.4226 11.8325C19.7112 11.8036 19.9711 11.5727 20 11.2844V8.71563C19.9711 8.42702 19.7112 8.19635 19.4226 8.16745L18.1529 8.10982C17.8642 8.08062 17.547 7.84995 17.4601 7.59006L16.9985 6.46452C16.8831 6.20496 16.912 5.82984 17.1138 5.5987L17.951 4.64649C18.153 4.44424 18.153 4.06912 17.9799 3.83843C17.9799 3.83843 17.5759 3.28993 17.143 2.85704C16.7102 2.4241 16.1616 2.02011 16.1616 2.02011ZM12.987 12.958C11.342 14.603 8.68699 14.603 7.04207 12.958C5.39675 11.313 5.39675 8.658 7.04207 7.0131C8.68707 5.36812 11.3421 5.36812 12.987 7.0131C14.632 8.65808 14.632 11.3131 12.987 12.958Z" fill="currentColor"/>
    </symbol>

    <symbol id="quo" viewBox="0 0 20 18" xmlns="http://www.w3.org/2000/svg">
        <path d="M6.26964 2.16543L5.59952 0C2.34429 0.888429 0 3.37361 0 6.30264V17.3912H8.23675V8.52035H2.74558V6.30264C2.74558 4.41367 4.21011 2.80484 6.26988 2.16543H6.26964Z" fill="currentColor"/>
        <path d="M13.7468 6.30264C13.7468 4.41367 15.2215 2.80484 17.2956 2.16543L16.6208 0C13.343 0.888429 10.9824 3.37361 10.9824 6.30264V17.3912H19.2764V8.52035H13.7471L13.7468 6.30264Z" fill="currentColor"/>
    </symbol>

    <symbol id="voice" viewBox="0 0 12 15" xmlns="http://www.w3.org/2000/svg">
        <path d="M11.2053 5.33953C10.9128 5.33953 10.6803 5.57204 10.6803 5.86455V7.0496C10.6803 9.70468 8.52026 11.8647 5.86518 11.8647C3.2101 11.8647 1.05003 9.70468 1.05003 7.0496V5.85705C1.05003 5.56454 0.817525 5.33203 0.525016 5.33203C0.232507 5.33203 0 5.56454 0 5.85705V7.0421C0 10.0947 2.34757 12.6073 5.34017 12.8773V14.4748C5.34017 14.7673 5.57268 14.9998 5.86518 14.9998C6.15769 14.9998 6.3902 14.7673 6.3902 14.4748V12.8773C9.37529 12.6148 11.7304 10.0947 11.7304 7.0421V5.85705C11.7229 5.57204 11.4904 5.33953 11.2053 5.33953Z" fill="currentColor"/>
        <path d="M5.86391 0C4.03388 0 2.54883 1.48504 2.54883 3.3151V7.15521C2.54883 8.98527 4.03388 10.4703 5.86391 10.4703C7.69397 10.4703 9.17901 8.98527 9.17901 7.15521V3.3151C9.17901 1.48504 7.69397 0 5.86391 0Z" fill="currentColor"/>
    </symbol>

    <symbol id="cross" viewBox="0 0 12 12" xmlns="http://www.w3.org/2000/svg">
        <path d="M1 1.00195L10.998 11" stroke="currentColor" stroke-linecap="round"/>
        <path d="M1 10.998L10.998 1.00005" stroke="currentColor" stroke-linecap="round"/>
    </symbol>

    <symbol id="tick" xmlns="http://www.w3.org/2000/svg" focusable="false" viewBox="0 0 12 12">
        <path stroke="currentColor" stroke-linecap="round" stroke-linejoin="round" stroke-width="2" d="M1 7l3 3 7-7"/>
    </symbol>

    <symbol id="download" viewBox="0 0 20 20" xmlns="http://www.w3.org/2000/svg">
        <path d="M17.2667 5.68L11.5926 10.32V0H8.11974V10.32L2.44571 5.68L0 7.70007L9.83174 15.7401L9.85614 15.7201L9.8807 15.7401L19.7124 7.70007L17.2667 5.68Z" fill="currentColor"/>
        <path d="M19.6879 17.16H0.0244141V20H19.6879" fill="currentColor"/>
    </symbol>

    <symbol id="lock" viewBox="0 0 16 20" xmlns="http://www.w3.org/2000/svg">
        <path d="M7.82568 0C4.75807 0 2.22876 2.24771 1.80837 5.21753C1.80386 5.21783 1.80022 5.21812 1.79309 5.21753L1.78304 5.38218C1.75669 5.61365 1.73908 5.84789 1.73908 6.08692V6.95661C0.778418 6.95661 0 7.73924 0 8.69569V18.2609C0 19.2174 0.778716 20 1.73908 20H13.9131C14.874 20 15.6522 19.2174 15.6522 18.2609V8.69569C15.6522 7.73924 14.8737 6.95661 13.9131 6.95661V6.08692C13.9131 5.84759 13.8955 5.61381 13.8691 5.38218L13.8591 5.21753C13.8519 5.21812 13.8483 5.21783 13.8438 5.21753C13.4235 2.24771 10.8931 0 7.82568 0ZM7.82568 2.60877C8.06574 2.60877 8.30085 2.63381 8.52707 2.68025C9.65924 2.91303 10.5906 3.6977 11.0304 4.737C11.1178 4.94401 11.1864 5.16063 11.2326 5.38599C11.2792 5.61294 11.3041 5.84703 11.3041 6.08737V6.95706H4.34767V6.08737C4.34767 5.84731 4.3829 5.6074 4.42919 5.38073C4.4947 5.05958 4.61509 4.76085 4.76213 4.47873C4.80682 4.3943 4.84685 4.30753 4.8981 4.22732C4.95094 4.14346 5.01194 4.0666 5.07119 3.98798C5.14223 3.89467 5.21531 3.80339 5.29552 3.71794C5.35201 3.65767 5.41155 3.60089 5.47226 3.54485C5.57198 3.45255 5.67636 3.36549 5.78656 3.28499C5.84625 3.24131 5.90593 3.1972 5.96824 3.15746C6.08951 3.08016 6.21776 3.01392 6.34879 2.95205C6.4111 2.92235 6.47137 2.88945 6.53571 2.86368C6.67721 2.80662 6.82556 2.76585 6.97566 2.72771C7.03826 2.7117 7.09824 2.68928 7.16258 2.6769C7.37775 2.63512 7.59831 2.60877 7.82568 2.60877Z" fill="currentColor"/>
    </symbol>

    <symbol id="btn-cross" viewBox="0 0 26 26" xmlns="http://www.w3.org/2000/svg">
        <rect width="26" height="26" fill="#2F7EB8"/>
        <path d="M4 4L22 22" stroke="currentColor" stroke-linecap="round"/>
        <path d="M22 4L4 22" stroke="currentColor" stroke-linecap="round"/>
    </symbol>
    
    <symbol id='refresh' viewBox="0 0 155.724 155.723" xmlns="http://www.w3.org/2000/svg">
        <path d="M42.735,121.521c-12.77-10.273-20.942-26.025-20.942-43.691c0-26.114,17.882-47.992,42.051-54.23V9.154
            C31.854,15.646,7.776,43.927,7.776,77.83c0,20.951,9.199,39.738,23.767,52.578C42.819,140.911,49.827,126.894,42.735,121.521z
            M123.589,24.746c-7.18-6.485-17.693,4.028-10.801,9.236c12.888,10.27,21.143,26.097,21.143,43.848
            c0,26.118-17.885,48-42.052,54.234v14.449c31.99-6.499,56.068-34.776,56.068-68.684
            C147.947,56.602,138.502,37.596,123.589,24.746z M70.037,35.707l22.813-13.661c3.319-1.988,3.326-5.226,0.018-7.228L69.844,0.883
            c-3.312-1.999-5.985-0.49-5.969,3.381l0.124,28.035C64.009,36.168,66.714,37.695,70.037,35.707z M85.883,120.029l-23.027,13.935
            c-3.311,2.002-3.304,5.239,0.019,7.228l22.811,13.662c3.319,1.984,6.03,0.462,6.047-3.412l0.12-28.034
            C91.865,119.54,89.188,118.03,85.883,120.029z" fill="currentColor"/>

    </symbol>

    <symbol id="gift" viewBox="0 0 72 90" xmlns="http://www.w3.org/2000/svg">
        <path d="M59.261 10.194C59.261 4.573 54.688 0 49.067 0C43.446 0 38.874 4.573 38.874 10.194V20.388H49.067C54.688 20.389 59.261 15.815 59.261 10.194Z" fill="currentColor"/>
        <path d="M32.4329 20.389V10.194C32.4329 4.573 27.8599 0 22.2389 0C16.6179 0 12.0449 4.573 12.0449 10.194C12.0449 15.815 16.6179 20.388 22.2389 20.388L32.4329 20.389Z" fill="currentColor"/>
        <path d="M33.51 29.7109H0V50.1149H33.51V29.7109Z" fill="currentColor"/>
        <path d="M71.3059 29.7109H37.7959V50.1149H71.3059V29.7109Z" fill="currentColor"/>
        <path d="M0 90H33.51V89.769V54.401H0V90Z" fill="currentColor"/>
        <path d="M37.7959 89.769V90H71.3059V54.401H37.7959V89.769Z" fill="currentColor"/>
    </symbol>

    <symbol id="achiveCoins" viewBox="0 0 90 90" xmlns="http://www.w3.org/2000/svg">
        <path d="M4.60449 63.8343V55.7426L8.6954 56.6534V64.8352L4.60449 63.8343Z" fill="currentColor"/>
        <path d="M86.3955 63.4929V55.7426L82.3046 56.6534V64.8352L86.3955 63.4929Z" fill="currentColor"/>
        <path d="M74.4408 80.1613C58.4648 89.3843 32.5626 89.3843 16.5866 80.1613C0.610578 70.9384 0.610582 55.9851 16.5866 46.7621C32.5626 37.5392 58.4648 37.5392 74.4408 46.7621C90.4168 55.9851 90.4168 70.9384 74.4408 80.1613Z" fill="currentColor"/>
        <path d="M74.4417 71.9796C58.4658 81.2025 32.5635 81.2025 16.5876 71.9796C0.611555 62.7566 0.611559 47.8033 16.5876 38.5803C32.5635 29.3574 58.4658 29.3574 74.4417 38.5803C90.4177 47.8033 90.4177 62.7566 74.4417 71.9796Z" fill="currentColor"/>
        <path fill-rule="evenodd" clip-rule="evenodd" d="M16.9773 71.7546C32.738 80.8533 58.2913 80.8533 74.052 71.7546C89.8128 62.6559 89.8128 47.904 74.052 38.8053C58.2913 29.7066 32.738 29.7066 16.9773 38.8053C1.21651 47.904 1.21651 62.6559 16.9773 71.7546ZM16.5876 71.9796C32.5635 81.2025 58.4658 81.2025 74.4417 71.9796C90.4177 62.7566 90.4177 47.8033 74.4417 38.5803C58.4658 29.3574 32.5635 29.3574 16.5876 38.5803C0.611559 47.8033 0.611555 62.7566 16.5876 71.9796Z" fill="#2F7EB8"/>
        <path d="M17.5499 56.4437C15.7 55.3757 14.3535 54.2266 13.5104 52.9964C12.6791 51.773 12.3806 50.5394 12.6147 49.2957C12.8723 48.052 13.6978 46.8792 15.0911 45.7774L20.1492 47.9269C19.0252 49.0084 18.633 50.1203 18.9725 51.2627C19.3238 52.4117 20.2605 53.4257 21.7826 54.3044C22.6841 54.8248 23.6735 55.2338 24.7507 55.5312C25.8279 55.8286 26.8817 55.9638 27.912 55.9368C28.9541 55.9165 29.8673 55.6799 30.6518 55.227C31.0031 55.0242 31.2665 54.8046 31.4422 54.568C31.6295 54.3247 31.7232 54.0678 31.7232 53.7974C31.7349 53.5338 31.6529 53.2432 31.4773 52.9255C31.3251 52.6078 31.085 52.2732 30.7572 51.9217L26.1557 47.0347C25.7576 46.6156 25.3654 46.1391 24.979 45.6051C24.616 45.0711 24.3819 44.4965 24.2765 43.8814C24.1945 43.2663 24.3409 42.6343 24.7156 41.9854C25.1137 41.3365 25.8689 40.691 26.9812 40.0489C28.6087 39.1093 30.3825 38.5584 32.3027 38.3962C34.2464 38.234 36.19 38.3962 38.1336 38.8829C40.0889 39.3763 41.9155 40.1198 43.6132 41.1135C45.3344 42.1206 46.5814 43.1852 47.3541 44.3073C48.1386 45.4226 48.4372 46.5615 48.2498 47.7241C48.0625 48.8867 47.3775 50.0257 46.195 51.141L40.8559 48.9712C41.5584 48.3494 41.9506 47.7038 42.0326 47.0347C42.1379 46.3655 41.9682 45.7132 41.5232 45.0778C41.09 44.4492 40.4519 43.878 39.6089 43.3643C38.7776 42.8709 37.8643 42.4924 36.8691 42.2288C35.8973 41.9651 34.943 41.8469 34.0063 41.8739C33.0814 41.9077 32.291 42.1139 31.6353 42.4924C31.0148 42.8506 30.6928 43.2528 30.6694 43.6989C30.6577 44.1383 30.8099 44.5844 31.126 45.0373C31.4656 45.4902 31.8461 45.9261 32.2676 46.3452L35.5343 49.6911C35.9909 50.144 36.4651 50.6746 36.9569 51.2829C37.4487 51.8913 37.7999 52.5469 38.0107 53.2499C38.2214 53.9529 38.1453 54.6728 37.7824 55.4095C37.4311 56.1531 36.6232 56.8898 35.3587 57.6198C34.0473 58.3769 32.6189 58.8838 31.0733 59.1407C29.5512 59.3976 27.9998 59.4483 26.4192 59.2928C24.8385 59.1373 23.2871 58.8095 21.765 58.3093C20.2546 57.8159 18.8496 57.194 17.5499 56.4437Z" fill="#2F7EB8"/>
        <path d="M41.9703 70.5416C39.4412 69.0816 37.8254 67.5134 37.1229 65.8371C36.4321 64.154 36.5902 62.4608 37.5971 60.7574C38.6158 59.0608 40.4306 57.4588 43.0416 55.9515C45.6526 54.4442 48.4276 53.3964 51.3664 52.8084C54.317 52.2271 57.2441 52.1392 60.1479 52.5448C63.0633 52.9436 65.7855 53.873 68.3146 55.333C71.23 57.0161 72.9278 58.8411 73.4078 60.8081C73.8996 62.7683 73.3025 64.688 71.6164 66.5671L66.1719 64.7826C67.3311 63.5456 67.7819 62.3188 67.5243 61.1021C67.2784 59.8787 66.2129 58.7228 64.3278 57.6346C62.6301 56.6545 60.8328 56.0563 58.936 55.84C57.0509 55.6304 55.1307 55.7588 53.1754 56.2252C51.2435 56.6916 49.3467 57.4555 47.485 58.5167C45.6351 59.5847 44.3003 60.6797 43.4807 61.8017C42.6845 62.9238 42.4737 64.0323 42.8484 65.1273C43.2231 66.2223 44.2593 67.2599 45.957 68.24C47.8421 69.3283 49.8443 69.9434 51.9636 70.0853C54.0828 70.2273 56.2079 69.967 58.3389 69.3046L61.43 72.4477C58.175 73.4211 54.8439 73.7692 51.4367 73.492C48.0412 73.2082 44.8857 72.2247 41.9703 70.5416Z" fill="#2F7EB8"/>
        <path d="M4.60449 63.8343V55.7426L8.6954 56.6534V64.8352L4.60449 63.8343Z" fill="currentColor"/>
        <path d="M86.3955 63.4929V55.7426L82.3046 56.6534V64.8352L86.3955 63.4929Z" fill="currentColor"/>
        <path d="M74.4408 80.1613C58.4648 89.3843 32.5626 89.3843 16.5866 80.1613C0.610578 70.9384 0.610582 55.9851 16.5866 46.7621C32.5626 37.5392 58.4648 37.5392 74.4408 46.7621C90.4168 55.9851 90.4168 70.9384 74.4408 80.1613Z" fill="currentColor"/>
        <path d="M74.4417 71.9796C58.4658 81.2025 32.5635 81.2025 16.5876 71.9796C0.611555 62.7566 0.611559 47.8033 16.5876 38.5803C32.5635 29.3574 58.4658 29.3574 74.4417 38.5803C90.4177 47.8033 90.4177 62.7566 74.4417 71.9796Z" fill="currentColor"/>
        <path fill-rule="evenodd" clip-rule="evenodd" d="M16.9773 71.7546C32.738 80.8533 58.2913 80.8533 74.052 71.7546C89.8128 62.6559 89.8128 47.904 74.052 38.8053C58.2913 29.7066 32.738 29.7066 16.9773 38.8053C1.21651 47.904 1.21651 62.6559 16.9773 71.7546ZM16.5876 71.9796C32.5635 81.2025 58.4658 81.2025 74.4417 71.9796C90.4177 62.7566 90.4177 47.8033 74.4417 38.5803C58.4658 29.3574 32.5635 29.3574 16.5876 38.5803C0.611559 47.8033 0.611555 62.7566 16.5876 71.9796Z" fill="#2F7EB8"/>
        <path d="M17.5499 56.4437C15.7 55.3757 14.3535 54.2266 13.5104 52.9964C12.6791 51.773 12.3806 50.5394 12.6147 49.2957C12.8723 48.052 13.6978 46.8792 15.0911 45.7774L20.1492 47.9269C19.0252 49.0084 18.633 50.1203 18.9725 51.2627C19.3238 52.4117 20.2605 53.4257 21.7826 54.3044C22.6841 54.8248 23.6735 55.2338 24.7507 55.5312C25.8279 55.8286 26.8817 55.9638 27.912 55.9368C28.9541 55.9165 29.8673 55.6799 30.6518 55.227C31.0031 55.0242 31.2665 54.8046 31.4422 54.568C31.6295 54.3247 31.7232 54.0678 31.7232 53.7974C31.7349 53.5338 31.6529 53.2432 31.4773 52.9255C31.3251 52.6078 31.085 52.2732 30.7572 51.9217L26.1557 47.0347C25.7576 46.6156 25.3654 46.1391 24.979 45.6051C24.616 45.0711 24.3819 44.4965 24.2765 43.8814C24.1945 43.2663 24.3409 42.6343 24.7156 41.9854C25.1137 41.3365 25.8689 40.691 26.9812 40.0489C28.6087 39.1093 30.3825 38.5584 32.3027 38.3962C34.2464 38.234 36.19 38.3962 38.1336 38.8829C40.0889 39.3763 41.9155 40.1198 43.6132 41.1135C45.3344 42.1206 46.5814 43.1852 47.3541 44.3073C48.1386 45.4226 48.4372 46.5615 48.2498 47.7241C48.0625 48.8867 47.3775 50.0257 46.195 51.141L40.8559 48.9712C41.5584 48.3494 41.9506 47.7038 42.0326 47.0347C42.1379 46.3655 41.9682 45.7132 41.5232 45.0778C41.09 44.4492 40.4519 43.878 39.6089 43.3643C38.7776 42.8709 37.8643 42.4924 36.8691 42.2288C35.8973 41.9651 34.943 41.8469 34.0063 41.8739C33.0814 41.9077 32.291 42.1139 31.6353 42.4924C31.0148 42.8506 30.6928 43.2528 30.6694 43.6989C30.6577 44.1383 30.8099 44.5844 31.126 45.0373C31.4656 45.4902 31.8461 45.9261 32.2676 46.3452L35.5343 49.6911C35.9909 50.144 36.4651 50.6746 36.9569 51.2829C37.4487 51.8913 37.7999 52.5469 38.0107 53.2499C38.2214 53.9529 38.1453 54.6728 37.7824 55.4095C37.4311 56.1531 36.6232 56.8898 35.3587 57.6198C34.0473 58.3769 32.6189 58.8838 31.0733 59.1407C29.5512 59.3976 27.9998 59.4483 26.4192 59.2928C24.8385 59.1373 23.2871 58.8095 21.765 58.3093C20.2546 57.8159 18.8496 57.194 17.5499 56.4437Z" fill="#2F7EB8"/>
        <path d="M41.9703 70.5416C39.4412 69.0816 37.8254 67.5134 37.1229 65.8371C36.4321 64.154 36.5902 62.4608 37.5971 60.7574C38.6158 59.0608 40.4306 57.4588 43.0416 55.9515C45.6526 54.4442 48.4276 53.3964 51.3664 52.8084C54.317 52.2271 57.2441 52.1392 60.1479 52.5448C63.0633 52.9436 65.7855 53.873 68.3146 55.333C71.23 57.0161 72.9278 58.8411 73.4078 60.8081C73.8996 62.7683 73.3025 64.688 71.6164 66.5671L66.1719 64.7826C67.3311 63.5456 67.7819 62.3188 67.5243 61.1021C67.2784 59.8787 66.2129 58.7228 64.3278 57.6346C62.6301 56.6545 60.8328 56.0563 58.936 55.84C57.0509 55.6304 55.1307 55.7588 53.1754 56.2252C51.2435 56.6916 49.3467 57.4555 47.485 58.5167C45.6351 59.5847 44.3003 60.6797 43.4807 61.8017C42.6845 62.9238 42.4737 64.0323 42.8484 65.1273C43.2231 66.2223 44.2593 67.2599 45.957 68.24C47.8421 69.3283 49.8443 69.9434 51.9636 70.0853C54.0828 70.2273 56.2079 69.967 58.3389 69.3046L61.43 72.4477C58.175 73.4211 54.8439 73.7692 51.4367 73.492C48.0412 73.2082 44.8857 72.2247 41.9703 70.5416Z" fill="#2F7EB8"/>
        <path d="M4.60449 54.6138V46.5221L8.6954 47.433V55.6148L4.60449 54.6138Z" fill="currentColor"/>
        <path d="M86.3955 54.2724V46.5221L82.3046 47.433V55.6148L86.3955 54.2724Z" fill="currentColor"/>
        <path d="M74.4408 70.9409C58.4648 80.1638 32.5626 80.1638 16.5866 70.9409C0.610578 61.7179 0.610582 46.7646 16.5866 37.5417C32.5626 28.3187 58.4648 28.3187 74.4408 37.5417C90.4168 46.7646 90.4168 61.7179 74.4408 70.9409Z" fill="currentColor"/>
        <path d="M74.4417 62.7591C58.4658 71.9821 32.5635 71.9821 16.5876 62.7591C0.611555 53.5362 0.611559 38.5828 16.5876 29.3599C32.5635 20.1369 58.4658 20.1369 74.4417 29.3599C90.4177 38.5828 90.4177 53.5362 74.4417 62.7591Z" fill="currentColor"/>
        <path fill-rule="evenodd" clip-rule="evenodd" d="M16.9773 62.5341C32.738 71.6328 58.2913 71.6328 74.052 62.5341C89.8128 53.4354 89.8128 38.6836 74.052 29.5849C58.2913 20.4862 32.738 20.4862 16.9773 29.5849C1.21651 38.6836 1.21651 53.4354 16.9773 62.5341ZM16.5876 62.7591C32.5635 71.9821 58.4658 71.9821 74.4417 62.7591C90.4177 53.5362 90.4177 38.5828 74.4417 29.3599C58.4658 20.1369 32.5635 20.1369 16.5876 29.3599C0.611559 38.5828 0.611555 53.5362 16.5876 62.7591Z" fill="#2F7EB8"/>
        <path d="M17.5499 47.2233C15.7 46.1553 14.3535 45.0062 13.5104 43.776C12.6791 42.5525 12.3806 41.3189 12.6147 40.0752C12.8723 38.8315 13.6978 37.6587 15.0911 36.557L20.1492 38.7064C19.0252 39.7879 18.633 40.8999 18.9725 42.0422C19.3238 43.1913 20.2605 44.2052 21.7826 45.0839C22.6841 45.6044 23.6735 46.0133 24.7507 46.3107C25.8279 46.6081 26.8817 46.7433 27.912 46.7163C28.9541 46.696 29.8673 46.4594 30.6518 46.0066C31.0031 45.8038 31.2665 45.5841 31.4422 45.3475C31.6295 45.1042 31.7232 44.8473 31.7232 44.577C31.7349 44.3133 31.6529 44.0227 31.4773 43.705C31.3251 43.3873 31.085 43.0527 30.7572 42.7012L26.1557 37.8142C25.7576 37.3951 25.3654 36.9186 24.979 36.3846C24.616 35.8506 24.3819 35.2761 24.2765 34.661C24.1945 34.0459 24.3409 33.4139 24.7156 32.765C25.1137 32.1161 25.8689 31.4705 26.9812 30.8284C28.6087 29.8889 30.3825 29.338 32.3027 29.1757C34.2464 29.0135 36.19 29.1757 38.1336 29.6624C40.0889 30.1558 41.9155 30.8994 43.6132 31.893C45.3344 32.9002 46.5814 33.9648 47.3541 35.0868C48.1386 36.2021 48.4372 37.3411 48.2498 38.5037C48.0625 39.6663 47.3775 40.8052 46.195 41.9205L40.8559 39.7508C41.5584 39.1289 41.9506 38.4834 42.0326 37.8142C42.1379 37.145 41.9682 36.4928 41.5232 35.8574C41.09 35.2288 40.4519 34.6576 39.6089 34.1439C38.7776 33.6504 37.8643 33.2719 36.8691 33.0083C35.8973 32.7447 34.943 32.6264 34.0063 32.6534C33.0814 32.6872 32.291 32.8934 31.6353 33.2719C31.0148 33.6302 30.6928 34.0323 30.6694 34.4785C30.6577 34.9178 30.8099 35.3639 31.126 35.8168C31.4656 36.2697 31.8461 36.7057 32.2676 37.1248L35.5343 40.4706C35.9909 40.9235 36.4651 41.4541 36.9569 42.0625C37.4487 42.6708 37.7999 43.3265 38.0107 44.0295C38.2214 44.7324 38.1453 45.4523 37.7824 46.1891C37.4311 46.9326 36.6232 47.6694 35.3587 48.3994C34.0473 49.1564 32.6189 49.6634 31.0733 49.9202C29.5512 50.1771 27.9998 50.2278 26.4192 50.0723C24.8385 49.9169 23.2871 49.589 21.765 49.0888C20.2546 48.5954 18.8496 47.9735 17.5499 47.2233Z" fill="#2F7EB8"/>
        <path d="M41.9703 61.3211C39.4412 59.8611 37.8254 58.2929 37.1229 56.6166C36.4321 54.9335 36.5902 53.2403 37.5971 51.5369C38.6158 49.8403 40.4306 48.2384 43.0416 46.731C45.6526 45.2237 48.4276 44.176 51.3664 43.5879C54.317 43.0066 57.2441 42.9188 60.1479 43.3243C63.0633 43.7231 65.7855 44.6525 68.3146 46.1126C71.23 47.7956 72.9278 49.6207 73.4078 51.5876C73.8996 53.5479 73.3025 55.4675 71.6164 57.3466L66.1719 55.5621C67.3311 54.3252 67.7819 53.0984 67.5243 51.8817C67.2784 50.6582 66.2129 49.5024 64.3278 48.4141C62.6301 47.434 60.8328 46.8358 58.936 46.6195C57.0509 46.41 55.1307 46.5384 53.1754 47.0048C51.2435 47.4712 49.3467 48.235 47.485 49.2962C45.6351 50.3642 44.3003 51.4592 43.4807 52.5813C42.6845 53.7033 42.4737 54.8119 42.8484 55.9069C43.2231 57.0019 44.2593 58.0395 45.957 59.0196C47.8421 60.1078 49.8443 60.7229 51.9636 60.8649C54.0828 61.0068 56.2079 60.7466 58.3389 60.0842L61.43 63.2273C58.175 64.2006 54.8439 64.5487 51.4367 64.2716C48.0412 63.9877 44.8857 63.0042 41.9703 61.3211Z" fill="#2F7EB8"/>
        <path d="M4.60449 44.3132V36.2214L8.6954 37.1323V45.3141L4.60449 44.3132Z" fill="currentColor"/>
        <path d="M86.3955 43.9718V36.2214L82.3046 37.1323V45.3141L86.3955 43.9718Z" fill="currentColor"/>
        <path d="M74.4408 60.6402C58.4648 69.8632 32.5626 69.8632 16.5866 60.6402C0.610578 51.4173 0.610582 36.4639 16.5866 27.241C32.5626 18.0181 58.4648 18.0181 74.4408 27.241C90.4168 36.4639 90.4168 51.4173 74.4408 60.6402Z" fill="currentColor"/>
        <path d="M74.4417 52.4585C58.4658 61.6814 32.5635 61.6814 16.5876 52.4585C0.611555 43.2355 0.611559 28.2822 16.5876 19.0592C32.5635 9.83629 58.4658 9.83629 74.4417 19.0592C90.4177 28.2822 90.4177 43.2355 74.4417 52.4585Z" fill="currentColor"/>
        <path fill-rule="evenodd" clip-rule="evenodd" d="M16.9773 52.2335C32.738 61.3322 58.2913 61.3322 74.052 52.2335C89.8128 43.1348 89.8128 28.3829 74.052 19.2842C58.2913 10.1855 32.738 10.1855 16.9773 19.2842C1.21651 28.3829 1.21651 43.1348 16.9773 52.2335ZM16.5876 52.4585C32.5635 61.6814 58.4658 61.6814 74.4417 52.4585C90.4177 43.2355 90.4177 28.2822 74.4417 19.0592C58.4658 9.83629 32.5635 9.83629 16.5876 19.0592C0.611559 28.2822 0.611555 43.2355 16.5876 52.4585Z" fill="#2F7EB8"/>
        <path d="M17.5499 36.9226C15.7 35.8546 14.3535 34.7055 13.5104 33.4753C12.6791 32.2519 12.3806 31.0183 12.6147 29.7746C12.8723 28.5308 13.6978 27.3581 15.0911 26.2563L20.1492 28.4058C19.0252 29.4873 18.633 30.5992 18.9725 31.7415C19.3238 32.8906 20.2605 33.9045 21.7826 34.7833C22.6841 35.3037 23.6735 35.7127 24.7507 36.0101C25.8279 36.3075 26.8817 36.4427 27.912 36.4156C28.9541 36.3954 29.8673 36.1588 30.6518 35.7059C31.0031 35.5031 31.2665 35.2834 31.4422 35.0469C31.6295 34.8035 31.7232 34.5467 31.7232 34.2763C31.7349 34.0127 31.6529 33.722 31.4773 33.4043C31.3251 33.0867 31.085 32.7521 30.7572 32.4006L26.1557 27.5136C25.7576 27.0945 25.3654 26.6179 24.979 26.0839C24.616 25.55 24.3819 24.9754 24.2765 24.3603C24.1945 23.7452 24.3409 23.1132 24.7156 22.4643C25.1137 21.8154 25.8689 21.1699 26.9812 20.5277C28.6087 19.5882 30.3825 19.0373 32.3027 18.8751C34.2464 18.7129 36.19 18.8751 38.1336 19.3618C40.0889 19.8552 41.9155 20.5987 43.6132 21.5923C45.3344 22.5995 46.5814 23.6641 47.3541 24.7861C48.1386 25.9014 48.4372 27.0404 48.2498 28.203C48.0625 29.3656 47.3775 30.5046 46.195 31.6199L40.8559 29.4501C41.5584 28.8283 41.9506 28.1827 42.0326 27.5136C42.1379 26.8444 41.9682 26.1921 41.5232 25.5567C41.09 24.9281 40.4519 24.3569 39.6089 23.8432C38.7776 23.3498 37.8643 22.9713 36.8691 22.7076C35.8973 22.444 34.943 22.3257 34.0063 22.3528C33.0814 22.3866 32.291 22.5927 31.6353 22.9713C31.0148 23.3295 30.6928 23.7317 30.6694 24.1778C30.6577 24.6172 30.8099 25.0633 31.126 25.5162C31.4656 25.969 31.8461 26.405 32.2676 26.8241L35.5343 30.17C35.9909 30.6229 36.4651 31.1535 36.9569 31.7618C37.4487 32.3702 37.7999 33.0258 38.0107 33.7288C38.2214 34.4318 38.1453 35.1516 37.7824 35.8884C37.4311 36.6319 36.6232 37.3687 35.3587 38.0987C34.0473 38.8558 32.6189 39.3627 31.0733 39.6196C29.5512 39.8764 27.9998 39.9271 26.4192 39.7717C24.8385 39.6162 23.2871 39.2884 21.765 38.7882C20.2546 38.2947 18.8496 37.6729 17.5499 36.9226Z" fill="#2F7EB8"/>
        <path d="M41.9703 51.0205C39.4412 49.5604 37.8254 47.9923 37.1229 46.316C36.4321 44.6329 36.5902 42.9396 37.5971 41.2363C38.6158 39.5397 40.4306 37.9377 43.0416 36.4304C45.6526 34.923 48.4276 33.8753 51.3664 33.2873C54.317 32.706 57.2441 32.6181 60.1479 33.0237C63.0633 33.4225 65.7855 34.3519 68.3146 35.8119C71.23 37.495 72.9278 39.32 73.4078 41.287C73.8996 43.2472 73.3025 45.1669 71.6164 47.046L66.1719 45.2615C67.3311 44.0245 67.7819 42.7977 67.5243 41.581C67.2784 40.3576 66.2129 39.2017 64.3278 38.1135C62.6301 37.1333 60.8328 36.5351 58.936 36.3188C57.0509 36.1093 55.1307 36.2377 53.1754 36.7041C51.2435 37.1705 49.3467 37.9343 47.485 38.9956C45.6351 40.0635 44.3003 41.1586 43.4807 42.2806C42.6845 43.4027 42.4737 44.5112 42.8484 45.6062C43.2231 46.7012 44.2593 47.7388 45.957 48.7189C47.8421 49.8072 49.8443 50.4223 51.9636 50.5642C54.0828 50.7062 56.2079 50.4459 58.3389 49.7835L61.43 52.9266C58.175 53.9 54.8439 54.2481 51.4367 53.9709C48.0412 53.687 44.8857 52.7036 41.9703 51.0205Z" fill="#2F7EB8"/>
        <path d="M4.60449 44.3132V36.2214L8.6954 37.1323V45.3141L4.60449 44.3132Z" fill="currentColor"/>
        <path d="M86.3955 43.9718V36.2214L82.3046 37.1323V45.3141L86.3955 43.9718Z" fill="currentColor"/>
        <path d="M74.4408 60.6402C58.4648 69.8632 32.5626 69.8632 16.5866 60.6402C0.610578 51.4173 0.610582 36.4639 16.5866 27.241C32.5626 18.0181 58.4648 18.0181 74.4408 27.241C90.4168 36.4639 90.4168 51.4173 74.4408 60.6402Z" fill="currentColor"/>
        <path d="M74.4417 52.4585C58.4658 61.6814 32.5635 61.6814 16.5876 52.4585C0.611555 43.2355 0.611559 28.2822 16.5876 19.0592C32.5635 9.83629 58.4658 9.83629 74.4417 19.0592C90.4177 28.2822 90.4177 43.2355 74.4417 52.4585Z" fill="currentColor"/>
        <path fill-rule="evenodd" clip-rule="evenodd" d="M16.9773 52.2335C32.738 61.3322 58.2913 61.3322 74.052 52.2335C89.8128 43.1348 89.8128 28.3829 74.052 19.2842C58.2913 10.1855 32.738 10.1855 16.9773 19.2842C1.21651 28.3829 1.21651 43.1348 16.9773 52.2335ZM16.5876 52.4585C32.5635 61.6814 58.4658 61.6814 74.4417 52.4585C90.4177 43.2355 90.4177 28.2822 74.4417 19.0592C58.4658 9.83629 32.5635 9.83629 16.5876 19.0592C0.611559 28.2822 0.611555 43.2355 16.5876 52.4585Z" fill="#2F7EB8"/>
        <path d="M17.5499 36.9226C15.7 35.8546 14.3535 34.7055 13.5104 33.4753C12.6791 32.2519 12.3806 31.0183 12.6147 29.7746C12.8723 28.5308 13.6978 27.3581 15.0911 26.2563L20.1492 28.4058C19.0252 29.4873 18.633 30.5992 18.9725 31.7415C19.3238 32.8906 20.2605 33.9045 21.7826 34.7833C22.6841 35.3037 23.6735 35.7127 24.7507 36.0101C25.8279 36.3075 26.8817 36.4427 27.912 36.4156C28.9541 36.3954 29.8673 36.1588 30.6518 35.7059C31.0031 35.5031 31.2665 35.2834 31.4422 35.0469C31.6295 34.8035 31.7232 34.5467 31.7232 34.2763C31.7349 34.0127 31.6529 33.722 31.4773 33.4043C31.3251 33.0867 31.085 32.7521 30.7572 32.4006L26.1557 27.5136C25.7576 27.0945 25.3654 26.6179 24.979 26.0839C24.616 25.55 24.3819 24.9754 24.2765 24.3603C24.1945 23.7452 24.3409 23.1132 24.7156 22.4643C25.1137 21.8154 25.8689 21.1699 26.9812 20.5277C28.6087 19.5882 30.3825 19.0373 32.3027 18.8751C34.2464 18.7129 36.19 18.8751 38.1336 19.3618C40.0889 19.8552 41.9155 20.5987 43.6132 21.5923C45.3344 22.5995 46.5814 23.6641 47.3541 24.7861C48.1386 25.9014 48.4372 27.0404 48.2498 28.203C48.0625 29.3656 47.3775 30.5046 46.195 31.6199L40.8559 29.4501C41.5584 28.8283 41.9506 28.1827 42.0326 27.5136C42.1379 26.8444 41.9682 26.1921 41.5232 25.5567C41.09 24.9281 40.4519 24.3569 39.6089 23.8432C38.7776 23.3498 37.8643 22.9713 36.8691 22.7076C35.8973 22.444 34.943 22.3257 34.0063 22.3528C33.0814 22.3866 32.291 22.5927 31.6353 22.9713C31.0148 23.3295 30.6928 23.7317 30.6694 24.1778C30.6577 24.6172 30.8099 25.0633 31.126 25.5162C31.4656 25.969 31.8461 26.405 32.2676 26.8241L35.5343 30.17C35.9909 30.6229 36.4651 31.1535 36.9569 31.7618C37.4487 32.3702 37.7999 33.0258 38.0107 33.7288C38.2214 34.4318 38.1453 35.1516 37.7824 35.8884C37.4311 36.6319 36.6232 37.3687 35.3587 38.0987C34.0473 38.8558 32.6189 39.3627 31.0733 39.6196C29.5512 39.8764 27.9998 39.9271 26.4192 39.7717C24.8385 39.6162 23.2871 39.2884 21.765 38.7882C20.2546 38.2947 18.8496 37.6729 17.5499 36.9226Z" fill="#2F7EB8"/>
        <path d="M41.9703 51.0205C39.4412 49.5604 37.8254 47.9923 37.1229 46.316C36.4321 44.6329 36.5902 42.9396 37.5971 41.2363C38.6158 39.5397 40.4306 37.9377 43.0416 36.4304C45.6526 34.923 48.4276 33.8753 51.3664 33.2873C54.317 32.706 57.2441 32.6181 60.1479 33.0237C63.0633 33.4225 65.7855 34.3519 68.3146 35.8119C71.23 37.495 72.9278 39.32 73.4078 41.287C73.8996 43.2472 73.3025 45.1669 71.6164 47.046L66.1719 45.2615C67.3311 44.0245 67.7819 42.7977 67.5243 41.581C67.2784 40.3576 66.2129 39.2017 64.3278 38.1135C62.6301 37.1333 60.8328 36.5351 58.936 36.3188C57.0509 36.1093 55.1307 36.2377 53.1754 36.7041C51.2435 37.1705 49.3467 37.9343 47.485 38.9956C45.6351 40.0635 44.3003 41.1586 43.4807 42.2806C42.6845 43.4027 42.4737 44.5112 42.8484 45.6062C43.2231 46.7012 44.2593 47.7388 45.957 48.7189C47.8421 49.8072 49.8443 50.4223 51.9636 50.5642C54.0828 50.7062 56.2079 50.4459 58.3389 49.7835L61.43 52.9266C58.175 53.9 54.8439 54.2481 51.4367 53.9709C48.0412 53.687 44.8857 52.7036 41.9703 51.0205Z" fill="#2F7EB8"/>
        <path d="M4.60449 35.0926V27.0009L8.6954 27.9117V36.0935L4.60449 35.0926Z" fill="currentColor"/>
        <path d="M86.3955 34.7512V27.0009L82.3046 27.9117V36.0935L86.3955 34.7512Z" fill="currentColor"/>
        <path d="M74.4408 51.4196C58.4648 60.6426 32.5626 60.6426 16.5866 51.4196C0.610578 42.1967 0.610582 27.2434 16.5866 18.0204C32.5626 8.79747 58.4648 8.79747 74.4408 18.0204C90.4168 27.2434 90.4168 42.1967 74.4408 51.4196Z" fill="currentColor"/>
        <path d="M74.4417 43.2379C58.4658 52.4608 32.5635 52.4608 16.5876 43.2379C0.611555 34.0149 0.611559 19.0616 16.5876 9.83865C32.5635 0.615709 58.4658 0.615709 74.4417 9.83865C90.4177 19.0616 90.4177 34.0149 74.4417 43.2379Z" fill="currentColor"/>
        <path fill-rule="evenodd" clip-rule="evenodd" d="M16.9773 43.0129C32.738 52.1116 58.2913 52.1116 74.052 43.0129C89.8128 33.9142 89.8128 19.1623 74.052 10.0636C58.2913 0.96495 32.738 0.96495 16.9773 10.0636C1.21651 19.1623 1.21651 33.9142 16.9773 43.0129ZM16.5876 43.2379C32.5635 52.4608 58.4658 52.4608 74.4417 43.2379C90.4177 34.0149 90.4177 19.0616 74.4417 9.83865C58.4658 0.615709 32.5635 0.615709 16.5876 9.83865C0.611559 19.0616 0.611555 34.0149 16.5876 43.2379Z" fill="#2F7EB8"/>
        <path d="M17.5499 27.702C15.7 26.634 14.3535 25.4849 13.5104 24.2547C12.6791 23.0313 12.3806 21.7977 12.6147 20.554C12.8723 19.3103 13.6978 18.1375 15.0911 17.0357L20.1492 19.1852C19.0252 20.2667 18.633 21.3786 18.9725 22.521C19.3238 23.67 20.2605 24.684 21.7826 25.5627C22.6841 26.0831 23.6735 26.4921 24.7507 26.7895C25.8279 27.0869 26.8817 27.2221 27.912 27.1951C28.9541 27.1748 29.8673 26.9382 30.6518 26.4853C31.0031 26.2825 31.2665 26.0629 31.4422 25.8263C31.6295 25.583 31.7232 25.3261 31.7232 25.0557C31.7349 24.7921 31.6529 24.5015 31.4773 24.1838C31.3251 23.8661 31.085 23.5315 30.7572 23.18L26.1557 18.293C25.7576 17.8739 25.3654 17.3974 24.979 16.8634C24.616 16.3294 24.3819 15.7548 24.2765 15.1397C24.1945 14.5246 24.3409 13.8926 24.7156 13.2437C25.1137 12.5948 25.8689 11.9493 26.9812 11.3072C28.6087 10.3676 30.3825 9.81673 32.3027 9.6545C34.2464 9.49228 36.19 9.6545 38.1336 10.1412C40.0889 10.6346 41.9155 11.3781 43.6132 12.3718C45.3344 13.3789 46.5814 14.4435 47.3541 15.5656C48.1386 16.6809 48.4372 17.8198 48.2498 18.9824C48.0625 20.145 47.3775 21.284 46.195 22.3993L40.8559 20.2295C41.5584 19.6077 41.9506 18.9621 42.0326 18.293C42.1379 17.6238 41.9682 16.9715 41.5232 16.3361C41.09 15.7075 40.4519 15.1363 39.6089 14.6226C38.7776 14.1292 37.8643 13.7507 36.8691 13.4871C35.8973 13.2234 34.943 13.1052 34.0063 13.1322C33.0814 13.166 32.291 13.3722 31.6353 13.7507C31.0148 14.1089 30.6928 14.5111 30.6694 14.9572C30.6577 15.3966 30.8099 15.8427 31.126 16.2956C31.4656 16.7485 31.8461 17.1844 32.2676 17.6035L35.5343 20.9494C35.9909 21.4023 36.4651 21.9329 36.9569 22.5412C37.4487 23.1496 37.7999 23.8052 38.0107 24.5082C38.2214 25.2112 38.1453 25.9311 37.7824 26.6678C37.4311 27.4114 36.6232 28.1481 35.3587 28.8781C34.0473 29.6352 32.6189 30.1421 31.0733 30.399C29.5512 30.6559 27.9998 30.7066 26.4192 30.5511C24.8385 30.3956 23.2871 30.0678 21.765 29.5676C20.2546 29.0742 18.8496 28.4523 17.5499 27.702Z" fill="#2F7EB8"/>
        <path d="M41.9703 41.7999C39.4412 40.3399 37.8254 38.7717 37.1229 37.0954C36.4321 35.4123 36.5902 33.7191 37.5971 32.0157C38.6158 30.3191 40.4306 28.7171 43.0416 27.2098C45.6526 25.7025 48.4276 24.6548 51.3664 24.0667C54.317 23.4854 57.2441 23.3975 60.1479 23.8031C63.0633 24.2019 65.7855 25.1313 68.3146 26.5913C71.23 28.2744 72.9278 30.0994 73.4078 32.0664C73.8996 34.0266 73.3025 35.9463 71.6164 37.8254L66.1719 36.0409C67.3311 34.8039 67.7819 33.5771 67.5243 32.3604C67.2784 31.137 66.2129 29.9811 64.3278 28.8929C62.6301 27.9128 60.8328 27.3146 58.936 27.0983C57.0509 26.8887 55.1307 27.0172 53.1754 27.4835C51.2435 27.9499 49.3467 28.7138 47.485 29.775C45.6351 30.843 44.3003 31.938 43.4807 33.06C42.6845 34.1821 42.4737 35.2906 42.8484 36.3856C43.2231 37.4807 44.2593 38.5182 45.957 39.4983C47.8421 40.5866 49.8443 41.2017 51.9636 41.3436C54.0828 41.4856 56.2079 41.2253 58.3389 40.5629L61.43 43.706C58.175 44.6794 54.8439 45.0275 51.4367 44.7504C48.0412 44.4665 44.8857 43.483 41.9703 41.7999Z" fill="#2F7EB8"/>
    </symbol>

    <symbol id="hidePass" viewBox="0 0 24 24" xmlns="http://www.w3.org/2000/svg">
        <path fill-rule="evenodd" clip-rule="evenodd" d="M4.41246 3.00177L21.3813 19.9706L21.3831 19.9689L21.3848 19.9706L19.9706 21.3848L16.6137 18.028C15.3568 18.6142 13.8332 19 12 19C4.408 19 2.12632 12.383 2.10444 12.316L2 12L2.10543 11.684C2.11863 11.6417 3.03404 8.98544 5.62047 7.0347L3 4.41423L4.41246 3.00177ZM15.0867 16.5009L13.2895 14.7037C12.8976 14.8934 12.4599 15 12 15C10.358 15 9 13.642 9 12C9 11.5401 9.10665 11.1024 9.29631 10.7105L7.03632 8.45055C5.26898 9.66594 4.41537 11.3098 4.11657 12C4.61587 13.154 6.67774 17 12 17C13.184 17 14.2067 16.8097 15.0867 16.5009Z" fill="currentColor"/>
        <path d="M9.50022 5.2611C10.2611 5.09454 11.0926 5.00002 12 5.00002C19.592 5.00002 21.8737 11.617 21.8956 11.684L22 12L21.8946 12.316C21.8843 12.349 21.3248 13.9731 19.8511 15.6119L18.4594 14.2203C19.2458 13.3296 19.6859 12.4564 19.8834 12C19.3841 10.846 17.3223 7.00002 12 7.00002C11.7475 7.00002 11.5024 7.00867 11.2644 7.02529L9.50022 5.2611Z" fill="currentColor"/>
    </symbol>

    <symbol id="showPass" viewBox="0 0 24 24" xmlns="http://www.w3.org/2000/svg">
        <path d="M12 9C10.358 9 9 10.359 9 12C9 13.642 10.358 15 12 15C13.641 15 15 13.642 15 12C15 10.359 13.641 9 12 9Z" fill="currentColor"/>
        <path d="M12 5C4.408 5 2.12632 11.617 2.10543 11.684L2 12L2.10444 12.316C2.12632 12.383 4.408 19 12 19C19.592 19 21.8737 12.383 21.8946 12.316L22 12L21.8956 11.684C21.8737 11.617 19.592 5 12 5ZM12 17C6.67774 17 4.61587 13.154 4.11657 12C4.61786 10.842 6.68072 7 12 7C17.3223 7 19.3841 10.846 19.8834 12C19.3821 13.158 17.3193 17 12 17Z" fill="currentColor"/>
    </symbol>

    <symbol id="info" viewBox="0 0 24 24" xmlns="http://www.w3.org/2000/svg">
        <path d="M12.0006 0C5.3726 0 0 5.37204 0 12C0 18.6274 5.3726 24 12.0006 24C18.6276 24 24.0007 18.6274 24.0007 12C24.0007 5.37204 18.6276 0 12.0006 0ZM12.0006 22.524C6.19726 22.524 1.47605 17.8027 1.47605 12C1.47605 6.19726 6.19726 1.47605 12.0006 1.47605C17.8035 1.47605 22.5247 6.19726 22.5247 12C22.5247 17.8027 17.8035 22.524 12.0006 22.524Z" fill="currentColor"/>
        <path d="M12.9106 8.58057H11.0918V18.5836H12.9106V8.58057Z" fill="currentColor"/>
        <path d="M12.0007 4.63306C11.319 4.63306 10.8643 5.14982 10.8643 5.7699C10.8643 6.3898 11.2981 6.88594 11.9595 6.88594C12.6829 6.88594 13.1171 6.3898 13.1171 5.7699C13.1171 5.1292 12.6621 4.63306 12.0007 4.63306Z" fill="currentColor"/>
    </symbol>

</svg>