<svg width="163" height="163" viewBox="0 0 163 163" fill="none" xmlns="http://www.w3.org/2000/svg">
<path d="M0 33C0 14.7746 14.7746 0 33 0H130C148.225 0 163 14.7746 163 33V130C163 148.225 148.225 163 130 163H33C14.7746 163 0 148.225 0 130V33Z" fill="#2F7EB8"/>
<path d="M24 124V39H62.1872V46.4982H32.9728V116.557H62.1916V124H24Z" fill="white"/>
<path d="M138.143 124V39H99.9561V46.4982H129.171V116.557H99.9517V124H138.143Z" fill="white"/>
<path d="M64.1491 101.174C61.3902 101.174 58.7463 100.813 56.2173 100.09C53.6883 99.3345 51.652 98.3657 50.1083 97.1833L52.8179 91.1728C54.2959 92.2238 56.0366 93.0942 58.0401 93.7839C60.0765 94.4408 62.1292 94.7692 64.1984 94.7692C65.7749 94.7692 67.0394 94.6214 67.9919 94.3258C68.9772 93.9974 69.6998 93.554 70.1596 92.9957C70.6194 92.4373 70.8493 91.7968 70.8493 91.0743C70.8493 90.1546 70.488 89.4321 69.7654 88.9066C69.0429 88.3482 68.0904 87.9048 66.908 87.5764C65.7256 87.2151 64.4119 86.8867 62.9667 86.5911C61.5544 86.2626 60.1257 85.8685 58.6806 85.4087C57.2683 84.9489 55.971 84.3577 54.7886 83.6351C53.6062 82.9125 52.6373 81.9601 51.8819 80.7777C51.1593 79.5953 50.798 78.0845 50.798 76.2452C50.798 74.2746 51.3235 72.4846 52.3745 70.8752C53.4584 69.233 55.0677 67.9357 57.2026 66.9832C59.3703 65.9979 62.0799 65.5052 65.3315 65.5052C67.4992 65.5052 69.6341 65.768 71.7361 66.2935C73.8381 66.7861 75.6938 67.5415 77.3031 68.5597L74.8398 74.6194C73.2305 73.6998 71.6211 73.0265 70.0118 72.5995C68.4024 72.1397 66.8259 71.9098 65.2822 71.9098C63.7386 71.9098 62.4741 72.0904 61.4888 72.4517C60.5034 72.813 59.7973 73.2892 59.3703 73.8804C58.9433 74.4388 58.7299 75.0957 58.7299 75.8511C58.7299 76.7379 59.0911 77.4604 59.8137 78.0188C60.5363 78.5443 61.4888 78.9713 62.6711 79.2997C63.8535 79.6281 65.1509 79.9566 66.5631 80.285C68.0083 80.6135 69.437 80.9912 70.8493 81.4181C72.2944 81.8451 73.6082 82.4199 74.7906 83.1424C75.973 83.865 76.9254 84.8175 77.648 85.9999C78.4034 87.1823 78.7811 88.6767 78.7811 90.4831C78.7811 92.4209 78.2392 94.1945 77.1553 95.8038C76.0715 97.4132 74.4457 98.7105 72.278 99.6958C70.1431 100.681 67.4335 101.174 64.1491 101.174Z" fill="white"/>
<path d="M100.739 101.174C98.0784 101.174 95.5987 100.747 93.2996 99.8929C91.0334 99.0061 89.0627 97.758 87.3877 96.1487C85.7126 94.5393 84.3989 92.6508 83.4464 90.4831C82.5268 88.3154 82.0669 85.9342 82.0669 83.3395C82.0669 80.7448 82.5268 78.3636 83.4464 76.1959C84.3989 74.0282 85.7126 72.1397 87.3877 70.5303C89.0956 68.921 91.0826 67.6893 93.3489 66.8354C95.6151 65.9486 98.0948 65.5052 100.788 65.5052C103.777 65.5052 106.47 66.0307 108.868 67.0817C111.298 68.0999 113.334 69.6107 114.977 71.6142L109.853 76.3437C108.671 74.9971 107.357 73.9954 105.912 73.3385C104.467 72.6488 102.89 72.3039 101.182 72.3039C99.5728 72.3039 98.0948 72.5667 96.7482 73.0922C95.4016 73.6177 94.2356 74.3731 93.2503 75.3584C92.265 76.3437 91.4932 77.5097 90.9348 78.8563C90.4093 80.2029 90.1466 81.6973 90.1466 83.3395C90.1466 84.9817 90.4093 86.4761 90.9348 87.8227C91.4932 89.1693 92.265 90.3353 93.2503 91.3206C94.2356 92.3059 95.4016 93.0613 96.7482 93.5869C98.0948 94.1124 99.5728 94.3751 101.182 94.3751C102.89 94.3751 104.467 94.0467 105.912 93.3898C107.357 92.7001 108.671 91.6655 109.853 90.286L114.977 95.0156C113.334 97.0191 111.298 98.5463 108.868 99.5973C106.47 100.648 103.76 101.174 100.739 101.174Z" fill="white"/>
</svg>
